Grade -1 UC.ufo
<glyph name="percent" format="2">
  <advance width="1916"/>
  <unicode hex="0025"/>
  <outline>
    <contour>
      <point x="76.01333333333334" y="1069.0" type="qcurve" smooth="yes"/>
      <point x="76.01333333333334" y="1266.3333333333333"/>
      <point x="277.1133333333333" y="1522.0"/>
      <point x="445.93333333333334" y="1522.0" type="qcurve" smooth="yes"/>
      <point x="615.7533333333333" y="1522.0"/>
      <point x="819.1266666666667" y="1276.3333333333333"/>
      <point x="819.1266666666667" y="1072.3333333333333" type="qcurve" smooth="yes"/>
      <point x="819.1266666666667" y="876.0"/>
      <point x="618.36" y="614.3333333333334"/>
      <point x="449.48" y="614.3333333333334" type="qcurve" smooth="yes"/>
      <point x="279.66" y="614.3333333333334"/>
      <point x="76.01333333333334" y="864.6666666666666"/>
    </contour>
    <contour>
      <point x="175.87333333333333" y="1080.0" type="qcurve" smooth="yes"/>
      <point x="176.54" y="903.0"/>
      <point x="324.12666666666667" y="692.4"/>
      <point x="445.6" y="692.4" type="qcurve" smooth="yes"/>
      <point x="569.9533333333334" y="692.4"/>
      <point x="716.3266666666666" y="891.3333333333334"/>
      <point x="716.3266666666666" y="1073.0" type="qcurve" smooth="yes"/>
      <point x="716.3266666666666" y="1246.0"/>
      <point x="569.0133333333333" y="1441.2666666666667"/>
      <point x="445.93333333333334" y="1441.2666666666667" type="qcurve" smooth="yes"/>
      <point x="319.24666666666667" y="1441.2666666666667"/>
      <point x="174.87333333333333" y="1256.3333333333333"/>
    </contour>
    <contour>
      <point x="392.16" y="9.0" type="line"/>
      <point x="1454.28" y="1523.6666666666667" type="line"/>
      <point x="1519.1933333333332" y="1483.0266666666666" type="line"/>
      <point x="457.0733333333333" y="-32.973333333333336" type="line"/>
    </contour>
    <contour>
      <point x="1096.88" y="418.6666666666667" type="qcurve" smooth="yes"/>
      <point x="1096.88" y="615.3333333333334"/>
      <point x="1297.98" y="877.6666666666666"/>
      <point x="1466.8" y="877.6666666666666" type="qcurve" smooth="yes"/>
      <point x="1636.62" y="877.6666666666666"/>
      <point x="1839.9933333333333" y="625.3333333333334"/>
      <point x="1839.9933333333333" y="422.0" type="qcurve" smooth="yes"/>
      <point x="1839.9933333333333" y="232.33333333333334"/>
      <point x="1639.8933333333332" y="-30.0"/>
      <point x="1470.3466666666668" y="-30.0" type="qcurve" smooth="yes"/>
      <point x="1300.5866666666668" y="-30.0"/>
      <point x="1096.88" y="221.0"/>
    </contour>
    <contour>
      <point x="1196.74" y="429.0" type="qcurve" smooth="yes"/>
      <point x="1197.4066666666668" y="259.3333333333333"/>
      <point x="1345.66" y="48.4"/>
      <point x="1466.4666666666667" y="48.4" type="qcurve" smooth="yes"/>
      <point x="1591.4866666666667" y="48.4"/>
      <point x="1737.1933333333332" y="247.66666666666666"/>
      <point x="1737.1933333333332" y="422.6666666666667" type="qcurve" smooth="yes"/>
      <point x="1737.1933333333332" y="595.6666666666666"/>
      <point x="1589.88" y="796.6"/>
      <point x="1466.8" y="796.6" type="qcurve" smooth="yes"/>
      <point x="1340.1733333333332" y="796.6"/>
      <point x="1196.74" y="605.3333333333334"/>
    </contour>
  </outline>
</glyph>
<glyph name="ampersand" format="2">
  <advance width="1556"/>
  <unicode hex="0026"/>
  <outline>
    <contour>
      <point x="556.04" y="-28.0" type="qcurve" smooth="yes"/>
      <point x="311.49333333333334" y="-28.0"/>
      <point x="84.23333333333333" y="193.06"/>
      <point x="86.14666666666666" y="372.8" type="qcurve" smooth="yes"/>
      <point x="87.51333333333334" y="501.6733333333333"/>
      <point x="273.4533333333333" y="747.8066666666666"/>
      <point x="566.4733333333334" y="897.3733333333333" type="qcurve"/>
      <point x="703.38" y="950.8933333333333"/>
      <point x="824.02" y="1121.0"/>
      <point x="824.02" y="1211.0" type="qcurve" smooth="yes"/>
      <point x="824.02" y="1313.9333333333332"/>
      <point x="705.9933333333333" y="1441.9333333333332"/>
      <point x="603.0933333333334" y="1441.9333333333332" type="qcurve" smooth="yes"/>
      <point x="492.44" y="1441.9333333333332"/>
      <point x="353.4733333333333" y="1308.7466666666667"/>
      <point x="353.4733333333333" y="1195.7466666666667" type="qcurve" smooth="yes"/>
      <point x="353.4733333333333" y="1091.86"/>
      <point x="477.1333333333333" y="918.5"/>
      <point x="593.6866666666666" y="890.76" type="qcurve"/>
      <point x="1063.6533333333332" y="247.44666666666666" type="line" smooth="yes"/>
      <point x="1132.5733333333333" y="152.78"/>
      <point x="1248.68" y="57.38"/>
      <point x="1321.58" y="57.38" type="qcurve" smooth="yes"/>
      <point x="1381.5" y="57.38"/>
      <point x="1449.76" y="91.29333333333334"/>
      <point x="1478.5533333333333" y="124.96" type="qcurve"/>
      <point x="1518.04" y="89.72" type="line"/>
      <point x="1487.82" y="38.72"/>
      <point x="1382.0733333333333" y="-32.00666666666667"/>
      <point x="1307.36" y="-32.28" type="qcurve" smooth="yes"/>
      <point x="1216.5266666666666" y="-32.553333333333335"/>
      <point x="1078.9733333333334" y="47.06"/>
      <point x="990.34" y="168.68" type="qcurve" smooth="yes"/>
      <point x="509.9533333333334" y="830.7133333333334" type="line"/>
      <point x="411.64" y="862.8666666666667"/>
      <point x="252.76" y="1055.3066666666668"/>
      <point x="254.9466666666667" y="1193.0466666666669" type="qcurve" smooth="yes"/>
      <point x="257.1333333333333" y="1330.5133333333333"/>
      <point x="444.74666666666667" y="1516.6"/>
      <point x="601.2666666666667" y="1516.6" type="qcurve" smooth="yes"/>
      <point x="742.9" y="1516.6"/>
      <point x="911.14" y="1356.2"/>
      <point x="911.14" y="1209.38" type="qcurve" smooth="yes"/>
      <point x="911.14" y="1087.0"/>
      <point x="750.4666666666666" y="902.3333333333334"/>
      <point x="614.5466666666666" y="849.72" type="qcurve"/>
      <point x="373.46" y="726.1266666666667"/>
      <point x="201.7466666666667" y="504.2133333333333"/>
      <point x="200.38" y="382.5333333333333" type="qcurve" smooth="yes"/>
      <point x="198.74" y="232.53333333333333"/>
      <point x="385.54" y="58.8"/>
      <point x="565.0866666666666" y="58.8" type="qcurve" smooth="yes"/>
      <point x="851.5133333333333" y="58.8"/>
      <point x="1317.46" y="581.9333333333334"/>
      <point x="1447.7733333333333" y="891.2" type="qcurve"/>
      <point x="1517.56" y="889.5333333333334" type="line"/>
      <point x="1393.34" y="552.1466666666666"/>
      <point x="868.38" y="-28.0"/>
    </contour>
    <contour>
      <point x="1044.0333333333333" y="858.1" type="line"/>
      <point x="1070.4866666666667" y="908.8"/>
      <point x="1162.56" y="969.2"/>
      <point x="1208.72" y="969.2" type="qcurve" smooth="yes"/>
      <point x="1253.88" y="969.2"/>
      <point x="1371.9466666666667" y="910.18"/>
      <point x="1417.2866666666666" y="910.18" type="qcurve" smooth="yes"/>
      <point x="1445.4133333333332" y="910.18"/>
      <point x="1486.4933333333333" y="926.8666666666667"/>
      <point x="1508.3466666666668" y="946.8666666666667" type="qcurve"/>
      <point x="1550.14" y="907.56" type="line"/>
      <point x="1503.8733333333332" y="839.5733333333334"/>
      <point x="1437.5133333333333" y="806.08"/>
      <point x="1396.3933333333332" y="806.2" type="qcurve" smooth="yes"/>
      <point x="1362.0933333333332" y="806.26"/>
      <point x="1248.5866666666668" y="871.1333333333333"/>
      <point x="1209.3066666666668" y="871.1333333333333" type="qcurve" smooth="yes"/>
      <point x="1170.0266666666666" y="871.1333333333333"/>
      <point x="1100.7333333333333" y="841.7"/>
      <point x="1077.9133333333332" y="822.0" type="qcurve"/>
    </contour>
  </outline>
</glyph>
<glyph name="comma" format="2">
  <advance width="561"/>
  <unicode hex="002C"/>
  <outline>
    <contour>
      <point x="158.72" y="-198.92666666666665" type="line"/>
      <point x="200.36" y="-165.5"/>
      <point x="279.7933333333333" y="-69.52"/>
      <point x="295.28" y="-10.453333333333333" type="qcurve"/>
      <point x="233.27333333333334" y="-15.12"/>
      <point x="173.6" y="41.22"/>
      <point x="173.6" y="86.34666666666668" type="qcurve" smooth="yes"/>
      <point x="173.6" y="130.53333333333333"/>
      <point x="233.21333333333334" y="192.42"/>
      <point x="279.6133333333333" y="192.42" type="qcurve" smooth="yes"/>
      <point x="323.4066666666667" y="192.42"/>
      <point x="385.68666666666667" y="133.7466666666667"/>
      <point x="385.68666666666667" y="78.13333333333334" type="qcurve" smooth="yes"/>
      <point x="385.68666666666667" y="-14.786666666666665"/>
      <point x="263.4" y="-180.92666666666668"/>
      <point x="184.3" y="-230.72" type="qcurve"/>
    </contour>
  </outline>
</glyph>
<glyph name="colon" format="2">
  <advance width="596"/>
  <unicode hex="003A"/>
  <outline>
    <contour>
      <point x="190.53333333333333" y="86.40666666666667" type="qcurve" smooth="yes"/>
      <point x="190.53333333333333" y="129.2"/>
      <point x="250.8133333333333" y="192.42"/>
      <point x="297.88" y="192.42" type="qcurve" smooth="yes"/>
      <point x="345.00666666666666" y="192.42"/>
      <point x="405.2866666666667" y="129.2"/>
      <point x="405.2866666666667" y="86.40666666666667" type="qcurve" smooth="yes"/>
      <point x="405.2866666666667" y="43.88666666666667"/>
      <point x="345.00666666666666" y="-19.333333333333332"/>
      <point x="297.88" y="-19.333333333333332" type="qcurve" smooth="yes"/>
      <point x="250.8133333333333" y="-19.333333333333332"/>
      <point x="190.53333333333333" y="43.88666666666667"/>
    </contour>
    <contour>
      <point x="190.53333333333333" y="913.58" type="qcurve" smooth="yes"/>
      <point x="190.53333333333333" y="956.3733333333333"/>
      <point x="250.8133333333333" y="1019.5933333333332"/>
      <point x="297.88" y="1019.5933333333332" type="qcurve" smooth="yes"/>
      <point x="345.00666666666666" y="1019.5933333333332"/>
      <point x="405.2866666666667" y="956.3733333333333"/>
      <point x="405.2866666666667" y="913.58" type="qcurve" smooth="yes"/>
      <point x="405.2866666666667" y="871.06"/>
      <point x="345.00666666666666" y="807.84"/>
      <point x="297.88" y="807.84" type="qcurve" smooth="yes"/>
      <point x="250.8133333333333" y="807.84"/>
      <point x="190.53333333333333" y="871.06"/>
    </contour>
  </outline>
</glyph>
<glyph name="semicolon" format="2">
  <advance width="596"/>
  <unicode hex="003B"/>
  <outline>
    <contour>
      <point x="171.92666666666665" y="-201.47333333333333" type="line"/>
      <point x="214.23333333333335" y="-167.77333333333334"/>
      <point x="293.2733333333333" y="-69.52"/>
      <point x="308.82" y="-10.453333333333333" type="qcurve"/>
      <point x="246.48" y="-16.453333333333333"/>
      <point x="184.53333333333333" y="41.22"/>
      <point x="184.53333333333333" y="86.34666666666668" type="qcurve" smooth="yes"/>
      <point x="184.53333333333333" y="130.53333333333333"/>
      <point x="244.14666666666665" y="192.42"/>
      <point x="290.5466666666667" y="192.42" type="qcurve" smooth="yes"/>
      <point x="334.34" y="192.42"/>
      <point x="396.62" y="133.7466666666667"/>
      <point x="396.62" y="78.13333333333334" type="qcurve" smooth="yes"/>
      <point x="396.62" y="-14.786666666666665"/>
      <point x="274.3333333333333" y="-180.92666666666668"/>
      <point x="195.23333333333335" y="-230.72" type="qcurve"/>
    </contour>
    <contour>
      <point x="190.53333333333333" y="913.52" type="qcurve" smooth="yes"/>
      <point x="190.53333333333333" y="956.3733333333333"/>
      <point x="250.8133333333333" y="1019.5933333333332"/>
      <point x="297.88" y="1019.5933333333332" type="qcurve" smooth="yes"/>
      <point x="345.00666666666666" y="1019.5933333333332"/>
      <point x="405.2866666666667" y="956.3733333333333"/>
      <point x="405.2866666666667" y="913.52" type="qcurve" smooth="yes"/>
      <point x="405.2866666666667" y="871.06"/>
      <point x="345.00666666666666" y="807.84"/>
      <point x="297.88" y="807.84" type="qcurve" smooth="yes"/>
      <point x="250.8133333333333" y="807.84"/>
      <point x="190.53333333333333" y="871.06"/>
    </contour>
  </outline>
</glyph>
<glyph name="equal" format="2">
  <advance width="987"/>
  <unicode hex="003D"/>
  <outline>
    <contour>
      <point x="107.40666666666667" y="380.75333333333333" type="line"/>
      <point x="107.40666666666667" y="486.8933333333333" type="line"/>
      <point x="491.5133333333333" y="483.56" type="line"/>
      <point x="879.62" y="486.8933333333333" type="line"/>
      <point x="879.62" y="380.75333333333333" type="line"/>
      <point x="491.5133333333333" y="384.75333333333333" type="line"/>
    </contour>
    <contour>
      <point x="107.40666666666667" y="748.44" type="line"/>
      <point x="107.40666666666667" y="854.58" type="line"/>
      <point x="491.5133333333333" y="850.58" type="line"/>
      <point x="879.62" y="854.58" type="line"/>
      <point x="879.62" y="748.44" type="line"/>
      <point x="491.5133333333333" y="751.7733333333334" type="line"/>
    </contour>
  </outline>
</glyph>
<glyph name="at" format="2">
  <advance width="1610"/>
  <unicode hex="0040"/>
  <outline>
    <contour>
      <point x="66.56" y="744.64" type="qcurve" smooth="yes"/>
      <point x="66.56" y="1070.96"/>
      <point x="475.6" y="1519.3333333333333"/>
      <point x="818.1466666666666" y="1519.3333333333333" type="qcurve" smooth="yes"/>
      <point x="1149.36" y="1519.3333333333333"/>
      <point x="1556.7733333333333" y="1145.2333333333333"/>
      <point x="1556.7733333333333" y="839.6666666666666" type="qcurve" smooth="yes"/>
      <point x="1556.7733333333333" y="606.0"/>
      <point x="1341.0733333333333" y="351.0"/>
      <point x="1203.9266666666667" y="351.0" type="qcurve" smooth="yes"/>
      <point x="1124.9733333333334" y="351.0"/>
      <point x="1019.74" y="416.0"/>
      <point x="1008.4333333333333" y="486.3333333333333" type="qcurve"/>
      <point x="974.6" y="423.32"/>
      <point x="814.9066666666666" y="332.93333333333334"/>
      <point x="721.58" y="332.93333333333334" type="qcurve" smooth="yes"/>
      <point x="595.2666666666667" y="332.93333333333334"/>
      <point x="464.5733333333333" y="457.6666666666667"/>
      <point x="464.5733333333333" y="554.0" type="qcurve" smooth="yes"/>
      <point x="464.5733333333333" y="664.0"/>
      <point x="713.4133333333334" y="826.0"/>
      <point x="1016.7066666666667" y="872.6666666666666" type="qcurve"/>
      <point x="1021.1933333333333" y="817.0" type="line"/>
      <point x="791.28" y="782.6666666666666"/>
      <point x="565.5066666666667" y="662.4"/>
      <point x="565.5066666666667" y="559.6666666666666" type="qcurve" smooth="yes"/>
      <point x="565.5066666666667" y="486.6666666666667"/>
      <point x="667.62" y="408.93333333333334"/>
      <point x="746.2666666666667" y="408.93333333333334" type="qcurve" smooth="yes"/>
      <point x="833.7333333333333" y="408.93333333333334"/>
      <point x="980.4866666666667" y="504.52"/>
      <point x="1001.7333333333333" y="566.3333333333334" type="qcurve"/>
      <point x="1003.0666666666666" y="869.0" type="line" smooth="yes"/>
      <point x="1003.34" y="1008.0"/>
      <point x="892.0733333333334" y="1128.0666666666668"/>
      <point x="800.18" y="1128.0666666666668" type="qcurve" smooth="yes"/>
      <point x="728.2533333333333" y="1128.0666666666668"/>
      <point x="627.06" y="1087.36"/>
      <point x="602.6" y="1057.3333333333333" type="qcurve"/>
      <point x="616.8733333333333" y="1043.3"/>
      <point x="636.78" y="1011.0"/>
      <point x="638.78" y="994.6666666666666" type="qcurve" smooth="yes"/>
      <point x="642.3266666666666" y="967.0933333333334"/>
      <point x="612.84" y="930.3333333333334"/>
      <point x="585.2266666666666" y="930.3333333333334" type="qcurve" smooth="yes"/>
      <point x="555.5866666666666" y="930.3333333333334"/>
      <point x="519.3733333333333" y="977.76"/>
      <point x="519.4333333333334" y="1021.0933333333334" type="qcurve" smooth="yes"/>
      <point x="519.5533333333334" y="1088.4266666666667"/>
      <point x="693.16" y="1198.4"/>
      <point x="819.2733333333334" y="1198.4" type="qcurve" smooth="yes"/>
      <point x="943.24" y="1198.4"/>
      <point x="1096.2333333333333" y="1032.6666666666667"/>
      <point x="1097.5666666666668" y="849.3333333333334" type="qcurve" smooth="yes"/>
      <point x="1100.4466666666667" y="474.2" type="line" smooth="yes"/>
      <point x="1100.4466666666667" y="453.5333333333333"/>
      <point x="1140.8133333333333" y="417.8666666666667"/>
      <point x="1188.4066666666668" y="417.8666666666667" type="qcurve" smooth="yes"/>
      <point x="1319.1866666666667" y="417.8666666666667"/>
      <point x="1471.46" y="631.0"/>
      <point x="1471.46" y="834.0" type="qcurve" smooth="yes"/>
      <point x="1471.46" y="1099.4"/>
      <point x="1133.0266666666666" y="1431.9333333333332"/>
      <point x="820.88" y="1431.9333333333332" type="qcurve" smooth="yes"/>
      <point x="507.33333333333337" y="1431.9333333333332"/>
      <point x="157.42" y="1046.9333333333332"/>
      <point x="158.08666666666667" y="752.3333333333334" type="qcurve" smooth="yes"/>
      <point x="158.75333333333333" y="447.99333333333334"/>
      <point x="523.44" y="53.66666666666667"/>
      <point x="817.6133333333333" y="53.66666666666667" type="qcurve" smooth="yes"/>
      <point x="947.0933333333334" y="53.66666666666667"/>
      <point x="1139.7866666666666" y="119.66666666666667"/>
      <point x="1192.6733333333332" y="165.66666666666666" type="qcurve"/>
      <point x="1230.62" y="115.69333333333333" type="line"/>
      <point x="1166.7" y="53.36"/>
      <point x="949.58" y="-29.333333333333332"/>
      <point x="814.0066666666667" y="-29.333333333333332" type="qcurve" smooth="yes"/>
      <point x="488.7933333333333" y="-29.333333333333332"/>
      <point x="66.56" y="400.1133333333333"/>
    </contour>
  </outline>
</glyph>
<glyph name="C" format="2">
  <advance width="1416"/>
  <unicode hex="0043"/>
  <outline>
    <contour>
      <point x="82.37333333333333" y="703.58" type="qcurve" smooth="yes"/>
      <point x="82.37333333333333" y="1068.36"/>
      <point x="493.0933333333333" y="1518.9733333333334"/>
      <point x="820.84" y="1518.9733333333334" type="qcurve" smooth="yes"/>
      <point x="951.46" y="1518.9733333333334"/>
      <point x="1156.3266666666668" y="1456.6866666666667"/>
      <point x="1221.98" y="1412.3266666666668" type="qcurve"/>
      <point x="1245.8066666666668" y="1499.94" type="line"/>
      <point x="1315.6266666666668" y="1499.94" type="line"/>
      <point x="1315.6266666666668" y="1037.6066666666668" type="line"/>
      <point x="1240.5333333333333" y="1037.6066666666668" type="line"/>
      <point x="1210.56" y="1219.4133333333332" type="line" smooth="yes"/>
      <point x="1192.16" y="1333.34"/>
      <point x="975.1733333333334" y="1433.64"/>
      <point x="830.8466666666666" y="1433.64" type="qcurve" smooth="yes"/>
      <point x="550.08" y="1433.64"/>
      <point x="199.38" y="1071.62"/>
      <point x="201.92666666666668" y="731.28" type="qcurve" smooth="yes"/>
      <point x="203.80666666666667" y="425.4733333333333"/>
      <point x="558.16" y="66.78666666666668"/>
      <point x="834.0133333333333" y="66.78666666666668" type="qcurve" smooth="yes"/>
      <point x="1029.12" y="66.78666666666668"/>
      <point x="1278.58" y="199.32"/>
      <point x="1344.5933333333332" y="296.0733333333333" type="qcurve"/>
      <point x="1404.4733333333334" y="240.15333333333334" type="line"/>
      <point x="1315.9533333333331" y="116.53333333333333"/>
      <point x="1022.3466666666667" y="-29.57333333333333"/>
      <point x="828.12" y="-29.57333333333333" type="qcurve" smooth="yes"/>
      <point x="483.8266666666667" y="-29.57333333333333"/>
      <point x="82.37333333333333" y="387.92"/>
    </contour>
  </outline>
</glyph>
<glyph name="G" format="2">
  <advance width="1579"/>
  <unicode hex="0047"/>
  <outline>
    <contour>
      <point x="82.37333333333333" y="733.4666666666666" type="qcurve" smooth="yes"/>
      <point x="82.37333333333333" y="1078.4"/>
      <point x="505.64666666666665" y="1518.9733333333334"/>
      <point x="824.2266666666667" y="1518.9733333333334" type="qcurve" smooth="yes"/>
      <point x="982.4666666666666" y="1518.9733333333334"/>
      <point x="1188.24" y="1451.7533333333333"/>
      <point x="1239.16" y="1409.9733333333334" type="qcurve"/>
      <point x="1263.62" y="1499.94" type="line"/>
      <point x="1337.14" y="1499.94" type="line"/>
      <point x="1337.14" y="1046.34" type="line"/>
      <point x="1259.5666666666668" y="1046.34" type="line"/>
      <point x="1233.4333333333332" y="1208.78" type="line" smooth="yes"/>
      <point x="1214.9133333333332" y="1326.98"/>
      <point x="994.44" y="1429.4533333333331"/>
      <point x="820.8333333333334" y="1429.4533333333331" type="qcurve" smooth="yes"/>
      <point x="542.6866666666666" y="1429.4533333333331"/>
      <point x="199.98666666666668" y="1071.1333333333332"/>
      <point x="201.98666666666668" y="751.4666666666666" type="qcurve" smooth="yes"/>
      <point x="203.26" y="439.8"/>
      <point x="555.14" y="56.08"/>
      <point x="853.46" y="56.08" type="qcurve" smooth="yes"/>
      <point x="992.9533333333334" y="56.08"/>
      <point x="1219.5533333333333" y="135.22"/>
      <point x="1292.2133333333334" y="200.2" type="qcurve"/>
      <point x="1292.2133333333334" y="565.0" type="line"/>
      <point x="1070.2066666666667" y="594.6666666666666" type="line"/>
      <point x="1070.2066666666667" y="661.3333333333334" type="line"/>
      <point x="1565.22" y="661.3333333333334" type="line"/>
      <point x="1565.22" y="594.6666666666666" type="line"/>
      <point x="1399.2266666666667" y="565.0" type="line"/>
      <point x="1399.2266666666667" y="186.18" type="line"/>
      <point x="1325.82" y="101.32666666666667"/>
      <point x="1037.4333333333332" y="-28.85333333333333"/>
      <point x="848.0866666666666" y="-28.85333333333333" type="qcurve" smooth="yes"/>
      <point x="512.1" y="-28.85333333333333"/>
      <point x="82.37333333333333" y="382.8"/>
    </contour>
  </outline>
</glyph>
<glyph name="I" format="2">
  <advance width="736"/>
  <unicode hex="0049"/>
  <outline>
    <contour>
      <point x="83.84" y="0.0" type="line"/>
      <point x="83.84" y="65.09333333333335" type="line"/>
      <point x="311.5733333333333" y="100.09333333333335" type="line"/>
      <point x="313.5733333333333" y="754.0" type="line"/>
      <point x="311.5733333333333" y="1397.0266666666666" type="line"/>
      <point x="83.84" y="1431.0266666666666" type="line"/>
      <point x="83.84" y="1500.0" type="line"/>
      <point x="652.04" y="1500.0" type="line"/>
      <point x="652.04" y="1431.0266666666666" type="line"/>
      <point x="424.3066666666667" y="1397.0266666666666" type="line"/>
      <point x="422.3066666666667" y="754.0" type="line"/>
      <point x="424.3066666666667" y="100.36666666666667" type="line"/>
      <point x="652.04" y="65.09333333333335" type="line"/>
      <point x="652.04" y="0.0" type="line"/>
    </contour>
  </outline>
</glyph>
<glyph name="L" format="2">
  <advance width="1220"/>
  <unicode hex="004C"/>
  <outline>
    <contour>
      <point x="83.24" y="0.0" type="line"/>
      <point x="83.24" y="65.09333333333335" type="line"/>
      <point x="302.24" y="99.27333333333334" type="line"/>
      <point x="303.5733333333333" y="754.0" type="line"/>
      <point x="301.5733333333333" y="1397.0266666666666" type="line"/>
      <point x="71.24" y="1431.0266666666666" type="line"/>
      <point x="71.24" y="1500.0" type="line"/>
      <point x="671.5933333333334" y="1500.0" type="line"/>
      <point x="671.5933333333334" y="1431.0266666666666" type="line"/>
      <point x="414.3066666666667" y="1397.0266666666666" type="line"/>
      <point x="412.3066666666667" y="754.0" type="line"/>
      <point x="412.9733333333333" y="100.76" type="line"/>
      <point x="442.25333333333333" y="74.0" type="line"/>
      <point x="1032.1466666666668" y="74.0" type="line"/>
      <point x="1123.92" y="410.8" type="line"/>
      <point x="1198.7666666666667" y="410.8" type="line"/>
      <point x="1149.3933333333332" y="0.0" type="line"/>
    </contour>
  </outline>
</glyph>
<glyph name="U" format="2">
  <advance width="1603"/>
  <unicode hex="0055"/>
  <outline>
    <contour>
      <point x="59.526666666666664" y="1431.0266666666666" type="line"/>
      <point x="59.526666666666664" y="1500.0" type="line"/>
      <point x="626.4" y="1500.0" type="line"/>
      <point x="626.4" y="1431.0266666666666" type="line"/>
      <point x="399.72" y="1397.0266666666666" type="line"/>
      <point x="396.84" y="797.3333333333334" type="line"/>
      <point x="398.78" y="464.1333333333333" type="line" smooth="yes"/>
      <point x="400.1133333333333" y="261.4666666666667"/>
      <point x="617.6" y="61.873333333333335"/>
      <point x="820.0266666666666" y="61.873333333333335" type="qcurve" smooth="yes"/>
      <point x="1016.1466666666668" y="61.873333333333335"/>
      <point x="1250.2133333333334" y="266.4666666666667"/>
      <point x="1246.7266666666667" y="478.8" type="qcurve" smooth="yes"/>
      <point x="1248.3" y="794.0" type="line"/>
      <point x="1246.5466666666669" y="1397.0266666666666" type="line"/>
      <point x="1019.5266666666668" y="1431.6933333333332" type="line"/>
      <point x="1019.5266666666668" y="1500.0" type="line"/>
      <point x="1556.2466666666667" y="1500.0" type="line"/>
      <point x="1556.2466666666667" y="1431.6933333333332" type="line"/>
      <point x="1339.34" y="1397.0266666666666" type="line"/>
      <point x="1338.0066666666667" y="794.0" type="line"/>
      <point x="1340.46" y="479.1333333333333" type="line" smooth="yes"/>
      <point x="1342.8533333333332" y="220.46666666666667"/>
      <point x="1050.6733333333332" y="-30.46"/>
      <point x="815.2666666666667" y="-30.46" type="qcurve" smooth="yes"/>
      <point x="564.22" y="-30.46"/>
      <point x="286.0466666666667" y="234.20666666666665"/>
      <point x="287.32" y="464.4666666666667" type="qcurve" smooth="yes"/>
      <point x="288.5933333333333" y="797.3333333333334" type="line"/>
      <point x="286.6533333333333" y="1397.0266666666666" type="line"/>
    </contour>
  </outline>
</glyph>
<glyph name="X" format="2">
  <advance width="1345"/>
  <unicode hex="0058"/>
  <outline>
    <contour>
      <point x="-37.953333333333326" y="0.0" type="line"/>
      <point x="-38.07333333333333" y="65.15333333333334" type="line"/>
      <point x="151.40666666666667" y="100.82" type="line"/>
      <point x="627.9133333333334" y="837.4266666666666" type="line"/>
      <point x="633.9666666666666" y="837.5466666666666" type="line"/>
      <point x="994.2466666666667" y="1400.12" type="line"/>
      <point x="794.5466666666666" y="1431.0266666666666" type="line"/>
      <point x="794.5466666666666" y="1500.0" type="line"/>
      <point x="1295.8866666666668" y="1500.0" type="line"/>
      <point x="1295.8866666666668" y="1431.0266666666666" type="line"/>
      <point x="1097.92" y="1397.8466666666668" type="line"/>
      <point x="683.52" y="767.22" type="line"/>
      <point x="678.3133333333334" y="767.1" type="line"/>
      <point x="255.80666666666667" y="98.54666666666667" type="line"/>
      <point x="453.2733333333333" y="65.15333333333334" type="line"/>
      <point x="453.2733333333333" y="0.0" type="line"/>
    </contour>
    <contour>
      <point x="7.513333333333335" y="1431.0266666666666" type="line"/>
      <point x="7.513333333333335" y="1500.0" type="line"/>
      <point x="537.5266666666666" y="1500.0" type="line"/>
      <point x="537.5266666666666" y="1431.0266666666666" type="line"/>
      <point x="328.06" y="1397.24" type="line"/>
      <point x="691.98" y="837.9666666666666" type="line"/>
      <point x="1183.4666666666667" y="100.09333333333335" type="line"/>
      <point x="1388.82" y="65.15333333333334" type="line"/>
      <point x="1388.82" y="0.0" type="line"/>
      <point x="847.36" y="0.0" type="line"/>
      <point x="847.36" y="65.15333333333334" type="line"/>
      <point x="1053.7266666666667" y="100.09333333333335" type="line"/>
      <point x="617.94" y="763.4066666666666" type="line"/>
      <point x="199.59333333333333" y="1397.8466666666668" type="line"/>
    </contour>
  </outline>
</glyph>
<glyph name="bracketleft" format="2">
  <advance width="609"/>
  <unicode hex="005B"/>
  <outline>
    <contour>
      <point x="147.0" y="508.6666666666667" type="line"/>
      <point x="143.0" y="1408.6666666666667" type="line"/>
      <point x="130.66666666666666" y="1428.6666666666667" type="line"/>
      <point x="130.66666666666666" y="1500.0" type="line"/>
      <point x="554.7666666666667" y="1500.0" type="line"/>
      <point x="554.7666666666667" y="1420.3333333333333" type="line"/>
      <point x="246.03333333333333" y="1406.6666666666667" type="line"/>
      <point x="240.7" y="508.6666666666667" type="line"/>
      <point x="246.03333333333333" y="-387.3333333333333" type="line"/>
      <point x="554.7666666666667" y="-401.0" type="line"/>
      <point x="554.7666666666667" y="-480.0" type="line"/>
      <point x="129.33333333333334" y="-480.0" type="line"/>
      <point x="129.33333333333334" y="-408.6666666666667" type="line"/>
      <point x="143.0" y="-388.6666666666667" type="line"/>
    </contour>
  </outline>
</glyph>
<glyph name="bracketright" format="2">
  <advance width="609"/>
  <unicode hex="005D"/>
  <outline>
    <contour>
      <point x="54.3" y="-480.0" type="line"/>
      <point x="54.3" y="-401.0" type="line"/>
      <point x="363.0333333333333" y="-387.3333333333333" type="line"/>
      <point x="368.3666666666667" y="508.6666666666667" type="line"/>
      <point x="363.0333333333333" y="1406.6666666666667" type="line"/>
      <point x="54.3" y="1420.3333333333333" type="line"/>
      <point x="54.3" y="1500.0" type="line"/>
      <point x="478.4" y="1500.0" type="line"/>
      <point x="478.4" y="1428.6666666666667" type="line"/>
      <point x="466.06666666666666" y="1408.6666666666667" type="line"/>
      <point x="462.06666666666666" y="508.6666666666667" type="line"/>
      <point x="466.06666666666666" y="-388.6666666666667" type="line"/>
      <point x="479.7333333333333" y="-408.6666666666667" type="line"/>
      <point x="479.7333333333333" y="-480.0" type="line"/>
    </contour>
  </outline>
</glyph>
<glyph name="underscore" format="2">
  <advance width="1371"/>
  <unicode hex="005F"/>
  <outline>
    <contour>
      <point x="-18.666666666666668" y="-479.76" type="line"/>
      <point x="-18.666666666666668" y="-390.9066666666667" type="line"/>
      <point x="689.4266666666666" y="-384.9666666666667" type="line"/>
      <point x="1389.64" y="-390.9066666666667" type="line"/>
      <point x="1389.64" y="-479.76" type="line"/>
      <point x="689.4266666666666" y="-488.06666666666666" type="line"/>
    </contour>
  </outline>
</glyph>
<glyph name="grave" format="2">
  <advance width="1024"/>
  <unicode hex="0060"/>
  <outline>
    <contour>
      <point x="320.62" y="1398.4133333333332" type="qcurve" smooth="yes"/>
      <point x="320.74" y="1418.9933333333333"/>
      <point x="356.9" y="1449.7533333333333"/>
      <point x="380.6" y="1449.7533333333333" type="qcurve" smooth="yes"/>
      <point x="405.3" y="1449.7533333333333"/>
      <point x="451.9133333333333" y="1413.9333333333332"/>
      <point x="475.22" y="1387.9" type="qcurve" smooth="yes"/>
      <point x="666.6466666666666" y="1166.6533333333332" type="line"/>
      <point x="627.7266666666666" y="1124.6466666666668" type="line"/>
      <point x="372.05333333333334" y="1320.0733333333333" type="line" smooth="yes"/>
      <point x="347.4133333333333" y="1337.8933333333332"/>
      <point x="320.5" y="1373.7066666666667"/>
    </contour>
  </outline>
</glyph>
<glyph name="h" format="2">
  <advance width="1229"/>
  <unicode hex="0068"/>
  <outline>
    <contour>
      <point x="80.86666666666667" y="0.0" type="line"/>
      <point x="80.86666666666667" y="53.333333333333336" type="line"/>
      <point x="237.68" y="83.0" type="line"/>
      <point x="239.68" y="527.0" type="line"/>
      <point x="237.68" y="1410.4266666666667" type="line"/>
      <point x="49.95333333333333" y="1434.6666666666667" type="line"/>
      <point x="49.95333333333333" y="1500.0" type="line"/>
      <point x="312.2933333333333" y="1520.6666666666667" type="line"/>
      <point x="328.2933333333333" y="1517.3333333333333" type="line"/>
      <point x="343.62666666666667" y="1492.6666666666667" type="line"/>
      <point x="343.9" y="839.5866666666666" type="line"/>
      <point x="401.49333333333334" y="916.54"/>
      <point x="605.0533333333334" y="1020.9733333333334"/>
      <point x="730.28" y="1020.9733333333334" type="qcurve" smooth="yes"/>
      <point x="868.68" y="1020.9733333333334"/>
      <point x="1013.3533333333332" y="881.54"/>
      <point x="1013.3533333333332" y="743.4133333333334" type="qcurve" smooth="yes"/>
      <point x="1013.3533333333332" y="676.2533333333333"/>
      <point x="1011.8066666666667" y="533.4"/>
      <point x="1011.8066666666667" y="529.1" type="qcurve"/>
      <point x="1016.6866666666667" y="83.0" type="line"/>
      <point x="1167.9866666666667" y="53.333333333333336" type="line"/>
      <point x="1167.9866666666667" y="0.0" type="line"/>
      <point x="757.36" y="0.0" type="line"/>
      <point x="757.36" y="53.333333333333336" type="line"/>
      <point x="905.3466666666666" y="83.0" type="line"/>
      <point x="907.2266666666667" y="529.1" type="line"/>
      <point x="907.2266666666667" y="725.5933333333334" type="line" smooth="yes"/>
      <point x="907.2266666666667" y="819.5866666666666"/>
      <point x="791.38" y="919.64"/>
      <point x="680.7133333333334" y="919.64" type="qcurve" smooth="yes"/>
      <point x="583.0866666666666" y="919.64"/>
      <point x="396.55333333333334" y="823.7533333333333"/>
      <point x="343.68666666666667" y="744.9266666666666" type="qcurve"/>
      <point x="343.68666666666667" y="529.1" type="line"/>
      <point x="349.56666666666666" y="83.0" type="line"/>
      <point x="498.76" y="53.333333333333336" type="line"/>
      <point x="498.76" y="0.0" type="line"/>
    </contour>
  </outline>
</glyph>
<glyph name="i" format="2">
  <advance width="609"/>
  <unicode hex="0069"/>
  <outline>
    <contour>
      <point x="71.68666666666667" y="0.0" type="line"/>
      <point x="71.68666666666667" y="54.66666666666667" type="line"/>
      <point x="258.6933333333333" y="83.0" type="line"/>
      <point x="260.6933333333333" y="527.0" type="line"/>
      <point x="256.66" y="890.6666666666666" type="line"/>
      <point x="73.65333333333332" y="915.3333333333334" type="line"/>
      <point x="73.65333333333332" y="980.0" type="line"/>
      <point x="327.64" y="1002.0" type="line"/>
      <point x="353.9733333333333" y="1000.6666666666666" type="line"/>
      <point x="368.9733333333333" y="965.3" type="line"/>
      <point x="364.64" y="527.0" type="line"/>
      <point x="369.9733333333333" y="83.0" type="line"/>
      <point x="550.98" y="54.66666666666667" type="line"/>
      <point x="550.98" y="0.0" type="line"/>
    </contour>
    <contour>
      <point x="200.2" y="1324.28" type="qcurve" smooth="yes"/>
      <point x="200.2" y="1368.2533333333333"/>
      <point x="245.44666666666666" y="1415.8333333333333"/>
      <point x="290.0866666666667" y="1415.8333333333333" type="qcurve" smooth="yes"/>
      <point x="330.7266666666667" y="1415.8333333333333"/>
      <point x="379.9733333333333" y="1365.5866666666668"/>
      <point x="379.9733333333333" y="1324.28" type="qcurve" smooth="yes"/>
      <point x="379.9733333333333" y="1280.9733333333334"/>
      <point x="333.3933333333333" y="1233.3333333333333"/>
      <point x="290.0866666666667" y="1233.3333333333333" type="qcurve" smooth="yes"/>
      <point x="248.11333333333334" y="1233.3333333333333"/>
      <point x="200.2" y="1283.58"/>
    </contour>
  </outline>
</glyph>
<glyph name="v" format="2">
  <advance width="1026"/>
  <unicode hex="0076"/>
  <outline>
    <contour>
      <point x="-27.4" y="934.0" type="line"/>
      <point x="-27.4" y="1000.0" type="line"/>
      <point x="385.74666666666667" y="1000.0" type="line"/>
      <point x="385.74666666666667" y="934.0" type="line"/>
      <point x="239.99333333333334" y="906.3333333333334" type="line"/>
      <point x="373.4133333333333" y="523.3066666666666" type="line"/>
      <point x="525.96" y="120.18666666666667" type="line"/>
      <point x="676.6066666666667" y="528.7933333333334" type="line"/>
      <point x="809.8733333333333" y="908.6666666666666" type="line"/>
      <point x="655.9333333333334" y="934.0" type="line"/>
      <point x="655.9333333333334" y="1000.0" type="line"/>
      <point x="1058.9666666666667" y="1000.0" type="line"/>
      <point x="1058.9666666666667" y="934.0" type="line"/>
      <point x="904.7533333333333" y="907.0" type="line"/>
      <point x="748.9666666666666" y="502.82" type="line"/>
      <point x="562.7466666666667" y="-7.333333333333333" type="line"/>
      <point x="464.4466666666667" y="-7.333333333333333" type="line"/>
      <point x="281.14" y="491.72" type="line"/>
      <point x="123.53333333333333" y="906.3333333333334" type="line"/>
    </contour>
  </outline>
</glyph>
<glyph name="z" format="2">
  <advance width="886"/>
  <unicode hex="007A"/>
  <outline>
    <contour>
      <point x="52.666666666666664" y="0.0" type="line"/>
      <point x="52.666666666666664" y="66.66666666666667" type="line"/>
      <point x="686.12" y="922.0" type="line"/>
      <point x="197.26" y="922.0" type="line"/>
      <point x="158.74" y="740.0" type="line"/>
      <point x="86.85333333333332" y="740.0" type="line"/>
      <point x="86.85333333333332" y="1000.0" type="line"/>
      <point x="815.8733333333333" y="1000.0" type="line"/>
      <point x="815.8733333333333" y="934.3333333333334" type="line"/>
      <point x="176.53333333333333" y="77.33333333333334" type="line"/>
      <point x="726.5" y="77.33333333333334" type="line"/>
      <point x="765.02" y="259.3333333333333" type="line"/>
      <point x="836.24" y="259.3333333333333" type="line"/>
      <point x="836.24" y="0.0" type="line"/>
    </contour>
  </outline>
</glyph>
<glyph name="bar" format="2">
  <advance width="587"/>
  <unicode hex="007C"/>
  <outline>
    <contour>
      <point x="245.66666666666666" y="-521.0" type="line"/>
      <point x="249.33333333333334" y="-55.0" type="line"/>
      <point x="254.66666666666669" y="253.0" type="line"/>
      <point x="254.0" y="833.0" type="line"/>
      <point x="248.33333333333334" y="1141.0" type="line"/>
      <point x="245.0" y="1499.0" type="line"/>
      <point x="342.7666666666667" y="1537.0" type="line"/>
      <point x="338.43333333333334" y="1141.0" type="line"/>
      <point x="331.7666666666667" y="833.0" type="line"/>
      <point x="332.43333333333334" y="253.0" type="line"/>
      <point x="338.7666666666667" y="-55.0" type="line"/>
      <point x="342.1" y="-483.0" type="line"/>
    </contour>
  </outline>
</glyph>
<glyph name="braceright" format="2">
  <advance width="674"/>
  <unicode hex="007D"/>
  <outline>
    <contour>
      <point x="16.8" y="-484.0" type="qcurve"/>
      <point x="16.8" y="-408.6666666666667" type="line"/>
      <point x="65.46666666666667" y="-412.0"/>
      <point x="117.5" y="-412.6666666666667"/>
      <point x="163.83333333333334" y="-412.6666666666667" type="qcurve" smooth="yes"/>
      <point x="258.8666666666667" y="-412.6666666666667"/>
      <point x="373.43333333333334" y="-299.8666666666667"/>
      <point x="373.43333333333334" y="-178.53333333333333" type="qcurve" smooth="yes"/>
      <point x="373.43333333333334" y="-67.33333333333333"/>
      <point x="255.5666666666667" y="222.33333333333334"/>
      <point x="255.5666666666667" y="338.0" type="qcurve" smooth="yes"/>
      <point x="255.5666666666667" y="430.6666666666667"/>
      <point x="312.93333333333334" y="532.0"/>
      <point x="389.93333333333334" y="548.6666666666666" type="qcurve"/>
      <point x="332.2666666666667" y="566.3333333333334"/>
      <point x="254.23333333333332" y="675.6666666666666"/>
      <point x="254.23333333333332" y="770.0" type="qcurve" smooth="yes"/>
      <point x="254.23333333333332" y="859.0"/>
      <point x="365.0333333333333" y="1084.0"/>
      <point x="365.0333333333333" y="1202.5333333333333" type="qcurve" smooth="yes"/>
      <point x="365.0333333333333" y="1310.6"/>
      <point x="258.8" y="1427.3333333333333"/>
      <point x="157.76666666666665" y="1427.3333333333333" type="qcurve" smooth="yes"/>
      <point x="113.43333333333332" y="1427.3333333333333"/>
      <point x="55.13333333333333" y="1426.0"/>
      <point x="11.8" y="1424.0" type="qcurve"/>
      <point x="11.8" y="1500.0" type="line"/>
      <point x="46.56" y="1503.06"/>
      <point x="118.26666666666667" y="1510.0"/>
      <point x="174.8" y="1510.0" type="qcurve" smooth="yes"/>
      <point x="322.1333333333333" y="1510.0"/>
      <point x="470.7333333333333" y="1339.6"/>
      <point x="470.7333333333333" y="1193.9333333333332" type="qcurve" smooth="yes"/>
      <point x="470.7333333333333" y="1071.2"/>
      <point x="343.2666666666667" y="830.6666666666666"/>
      <point x="343.2666666666667" y="726.6666666666666" type="qcurve" smooth="yes"/>
      <point x="343.2666666666667" y="651.3333333333334"/>
      <point x="424.93333333333334" y="586.3333333333334"/>
      <point x="490.93333333333334" y="581.0" type="qcurve" smooth="yes"/>
      <point x="614.8" y="571.0" type="line"/>
      <point x="614.8" y="499.0" type="line"/>
      <point x="358.93333333333334" y="494.3333333333333" type="line"/>
      <point x="347.6" y="380.0" type="line"/>
      <point x="347.6" y="252.0"/>
      <point x="479.1333333333333" y="-50.6"/>
      <point x="479.1333333333333" y="-169.93333333333334" type="qcurve" smooth="yes"/>
      <point x="479.1333333333333" y="-328.93333333333334"/>
      <point x="324.2" y="-495.0"/>
      <point x="178.86666666666665" y="-495.0" type="qcurve" smooth="yes"/>
      <point x="121.73333333333333" y="-495.0"/>
      <point x="53.13333333333333" y="-487.8466666666667"/>
    </contour>
  </outline>
</glyph>
<glyph name="exclamdown" format="2">
  <advance width="588"/>
  <unicode hex="00A1"/>
  <outline>
    <contour>
      <point x="401.4066666666667" y="1240.46" type="qcurve" smooth="yes"/>
      <point x="401.4066666666667" y="1197.6666666666667"/>
      <point x="341.12666666666667" y="1134.4466666666667"/>
      <point x="294.06" y="1134.4466666666667" type="qcurve" smooth="yes"/>
      <point x="246.93333333333334" y="1134.4466666666667"/>
      <point x="186.65333333333334" y="1197.6666666666667"/>
      <point x="186.65333333333334" y="1240.46" type="qcurve" smooth="yes"/>
      <point x="186.65333333333334" y="1282.98"/>
      <point x="246.93333333333334" y="1346.2"/>
      <point x="294.06" y="1346.2" type="qcurve" smooth="yes"/>
      <point x="341.12666666666667" y="1346.2"/>
      <point x="401.4066666666667" y="1282.98"/>
    </contour>
    <contour>
      <point x="357.3933333333333" y="-81.0" type="line" smooth="yes"/>
      <point x="360.3333333333333" y="-149.0"/>
      <point x="331.7266666666667" y="-223.33333333333334"/>
      <point x="292.7266666666667" y="-223.66666666666666" type="qcurve" smooth="yes"/>
      <point x="253.72666666666666" y="-224.0"/>
      <point x="225.12" y="-151.0"/>
      <point x="228.06" y="-82.0" type="qcurve" smooth="yes"/>
      <point x="238.54666666666665" y="220.66666666666666" type="line"/>
      <point x="253.72666666666666" y="528.6666666666666" type="line"/>
      <point x="265.3933333333333" y="894.8666666666667" type="line"/>
      <point x="322.06" y="894.8666666666667" type="line"/>
      <point x="333.7266666666667" y="528.6666666666666" type="line"/>
      <point x="346.9066666666667" y="220.66666666666666" type="line"/>
    </contour>
  </outline>
</glyph>
<glyph name="brokenbar" format="2">
  <advance width="587"/>
  <unicode hex="00A6"/>
  <outline>
    <contour>
      <point x="251.54" y="680.3333333333334" type="line"/>
      <point x="253.94" y="869.6666666666666" type="line"/>
      <point x="246.96666666666667" y="1177.6666666666667" type="line"/>
      <point x="240.9" y="1499.0" type="line"/>
      <point x="345.7733333333333" y="1537.0" type="line"/>
      <point x="339.5866666666667" y="1177.6666666666667" type="line"/>
      <point x="331.8866666666667" y="869.6666666666666" type="line"/>
      <point x="332.31333333333333" y="708.3333333333334" type="line"/>
    </contour>
    <contour>
      <point x="241.02" y="-521.0" type="line"/>
      <point x="247.08666666666664" y="-91.66666666666667" type="line"/>
      <point x="254.66666666666669" y="216.33333333333331" type="line"/>
      <point x="254.06" y="387.0" type="line"/>
      <point x="334.8933333333333" y="420.3333333333333" type="line"/>
      <point x="332.49333333333334" y="216.33333333333331" type="line"/>
      <point x="339.5866666666667" y="-91.66666666666667" type="line"/>
      <point x="345.6533333333333" y="-477.8066666666667" type="line"/>
    </contour>
  </outline>
</glyph>
<glyph name="threesuperior" format="2">
  <advance width="693"/>
  <unicode hex="00B3"/>
  <outline>
    <contour>
      <point x="40.92" y="738.3333333333334" type="qcurve"/>
      <point x="76.28666666666668" y="800.6666666666666" type="line"/>
      <point x="131.59333333333333" y="756.3333333333334"/>
      <point x="246.12" y="724.3333333333334"/>
      <point x="312.5866666666667" y="724.3333333333334" type="qcurve" smooth="yes"/>
      <point x="412.92" y="724.3333333333334"/>
      <point x="527.14" y="812.6333333333333"/>
      <point x="527.14" y="897.7" type="qcurve" smooth="yes"/>
      <point x="527.14" y="985.3666666666667"/>
      <point x="383.58" y="1072.6333333333332"/>
      <point x="253.36" y="1073.9666666666667" type="qcurve" smooth="yes"/>
      <point x="195.93333333333334" y="1073.9666666666667" type="line"/>
      <point x="178.36" y="1138.3666666666668" type="line"/>
      <point x="255.66666666666669" y="1141.3666666666668" type="line" smooth="yes"/>
      <point x="378.52" y="1146.0333333333333"/>
      <point x="502.56" y="1248.0"/>
      <point x="502.56" y="1318.0" type="qcurve" smooth="yes"/>
      <point x="502.56" y="1382.6666666666667"/>
      <point x="420.68" y="1444.6666666666667"/>
      <point x="345.34" y="1444.6666666666667" type="qcurve" smooth="yes"/>
      <point x="272.82" y="1444.6666666666667"/>
      <point x="154.54" y="1403.6666666666667"/>
      <point x="106.95333333333335" y="1368.6333333333332" type="qcurve"/>
      <point x="76.01333333333334" y="1419.3333333333333" type="line"/>
      <point x="130.65333333333334" y="1465.3333333333333"/>
      <point x="262.5133333333333" y="1520.0"/>
      <point x="354.6733333333333" y="1520.0" type="qcurve" smooth="yes"/>
      <point x="481.8933333333333" y="1520.0"/>
      <point x="600.0533333333334" y="1412.6666666666667"/>
      <point x="600.0533333333334" y="1331.6666666666667" type="qcurve" smooth="yes"/>
      <point x="600.0533333333334" y="1246.6666666666667"/>
      <point x="487.31333333333333" y="1140.0"/>
      <point x="385.3666666666667" y="1117.3333333333333" type="qcurve"/>
      <point x="385.3666666666667" y="1113.3333333333333" type="line"/>
      <point x="495.5266666666667" y="1107.6666666666667"/>
      <point x="624.8733333333333" y="1001.0"/>
      <point x="624.8733333333333" y="898.3333333333334" type="qcurve" smooth="yes"/>
      <point x="624.8733333333333" y="789.6666666666666"/>
      <point x="463.2866666666667" y="649.0"/>
      <point x="314.18666666666667" y="649.0" type="qcurve" smooth="yes"/>
      <point x="234.72666666666666" y="649.0"/>
      <point x="92.62" y="696.3333333333334"/>
    </contour>
  </outline>
</glyph>
<glyph name="acute" format="2">
  <advance width="1024"/>
  <unicode hex="00B4"/>
  <outline>
    <contour>
      <point x="736.0333333333334" y="1398.4133333333332" type="qcurve" smooth="yes"/>
      <point x="736.1533333333334" y="1373.7066666666667"/>
      <point x="709.24" y="1338.44"/>
      <point x="684.6" y="1320.0733333333333" type="qcurve" smooth="yes"/>
      <point x="428.1066666666667" y="1123.0066666666667" type="line"/>
      <point x="389.1866666666666" y="1165.0133333333333" type="line"/>
      <point x="581.4333333333334" y="1387.9" type="line" smooth="yes"/>
      <point x="604.4666666666666" y="1414.2066666666667"/>
      <point x="651.3533333333334" y="1449.7533333333333"/>
      <point x="676.0533333333334" y="1449.7533333333333" type="qcurve" smooth="yes"/>
      <point x="699.7533333333333" y="1449.7533333333333"/>
      <point x="735.9133333333334" y="1418.9933333333333"/>
    </contour>
  </outline>
</glyph>
<glyph name="cedilla" format="2">
  <advance width="1024"/>
  <unicode hex="00B8"/>
  <outline>
    <contour>
      <point x="557.44" y="-6.186666666666666" type="line"/>
      <point x="493.04" y="-128.04666666666665" type="line"/>
      <point x="508.5266666666667" y="-122.77333333333333"/>
      <point x="564.7133333333334" y="-113.22666666666667"/>
      <point x="592.4133333333334" y="-113.22666666666667" type="qcurve" smooth="yes"/>
      <point x="662.42" y="-113.22666666666667"/>
      <point x="765.0666666666666" y="-185.11333333333334"/>
      <point x="765.0666666666666" y="-267.2733333333333" type="qcurve" smooth="yes"/>
      <point x="765.0666666666666" y="-352.4"/>
      <point x="633.6666666666666" y="-448.4133333333333"/>
      <point x="542.42" y="-448.4133333333333" type="qcurve" smooth="yes"/>
      <point x="474.2" y="-448.4133333333333"/>
      <point x="349.72" y="-410.1666666666667"/>
      <point x="304.2" y="-371.1933333333333" type="qcurve"/>
      <point x="336.87333333333333" y="-303.0266666666667" type="line"/>
      <point x="372.6933333333333" y="-334.7266666666667"/>
      <point x="469.5866666666667" y="-371.8266666666667"/>
      <point x="528.9866666666667" y="-371.8266666666667" type="qcurve" smooth="yes"/>
      <point x="585.7733333333334" y="-371.8266666666667"/>
      <point x="660.78" y="-319.9133333333333"/>
      <point x="660.78" y="-272.3333333333333" type="qcurve" smooth="yes"/>
      <point x="660.78" y="-221.14666666666665"/>
      <point x="594.9866666666667" y="-182.32666666666665"/>
      <point x="544.1333333333333" y="-182.32666666666665" type="qcurve" smooth="yes"/>
      <point x="508.04" y="-182.32666666666665"/>
      <point x="453.52" y="-190.26666666666665"/>
      <point x="437.9733333333333" y="-195.54" type="qcurve"/>
      <point x="400.8466666666667" y="-152.86666666666665" type="line"/>
      <point x="497.28" y="31.0" type="line"/>
    </contour>
  </outline>
</glyph>
<glyph name="ordmasculine" format="2">
  <advance width="1013"/>
  <unicode hex="00BA"/>
  <outline>
    <contour>
      <point x="102.68" y="1101.3866666666668" type="qcurve" smooth="yes"/>
      <point x="102.68" y="1285.02"/>
      <point x="322.76" y="1542.0"/>
      <point x="504.9266666666666" y="1542.0" type="qcurve" smooth="yes"/>
      <point x="689.3666666666667" y="1542.0"/>
      <point x="910.0866666666666" y="1302.02"/>
      <point x="910.0866666666666" y="1106.3866666666668" type="qcurve" smooth="yes"/>
      <point x="910.0866666666666" y="923.0866666666666"/>
      <point x="691.34" y="660.2266666666666"/>
      <point x="508.96" y="660.2266666666666" type="qcurve" smooth="yes"/>
      <point x="327.18666666666667" y="660.2266666666666"/>
      <point x="102.68" y="903.8133333333334"/>
    </contour>
    <contour>
      <point x="208.51333333333335" y="1119.72" type="qcurve" smooth="yes"/>
      <point x="209.24" y="951.1466666666666"/>
      <point x="370.38" y="725.4333333333334"/>
      <point x="505.0466666666666" y="725.4333333333334" type="qcurve" smooth="yes"/>
      <point x="649.08" y="725.4333333333334"/>
      <point x="802.6133333333333" y="930.6"/>
      <point x="802.6133333333333" y="1106.1133333333332" type="qcurve" smooth="yes"/>
      <point x="802.6133333333333" y="1268.96"/>
      <point x="641.5333333333334" y="1474.7933333333333"/>
      <point x="506.9266666666666" y="1474.7933333333333" type="qcurve" smooth="yes"/>
      <point x="359.5" y="1474.7933333333333"/>
      <point x="207.51333333333335" y="1287.1133333333332"/>
    </contour>
  </outline>
</glyph>
<glyph name="AE" format="2">
  <advance width="1999"/>
  <unicode hex="00C6"/>
  <outline>
    <contour>
      <point x="-29.273333333333337" y="0.0" type="line"/>
      <point x="-29.273333333333337" y="65.09333333333335" type="line"/>
      <point x="155.12666666666667" y="100.03333333333335" type="line"/>
      <point x="431.5933333333333" y="540.0" type="line"/>
      <point x="965.56" y="1411.6666666666667" type="line"/>
      <point x="814.6266666666667" y="1431.0266666666666" type="line"/>
      <point x="814.6266666666667" y="1500.0" type="line"/>
      <point x="1843.1933333333332" y="1500.0" type="line"/>
      <point x="1843.1933333333332" y="1157.9333333333332" type="line"/>
      <point x="1770.1066666666668" y="1157.9333333333332" type="line"/>
      <point x="1729.04" y="1422.6666666666667" type="line"/>
      <point x="1171.4533333333331" y="1422.6666666666667" type="line"/>
      <point x="1144.3266666666668" y="1398.6666666666667" type="line"/>
      <point x="1143.0533333333333" y="783.6666666666666" type="line"/>
      <point x="1144.3266666666668" y="100.0" type="line"/>
      <point x="1170.4533333333331" y="74.0" type="line"/>
      <point x="1790.2333333333333" y="74.0" type="line"/>
      <point x="1870.9133333333332" y="372.6666666666667" type="line"/>
      <point x="1943.3333333333333" y="372.6666666666667" type="line"/>
      <point x="1904.0533333333333" y="0.0" type="line"/>
      <point x="814.9266666666666" y="0.0" type="line"/>
      <point x="814.9266666666666" y="65.09333333333335" type="line"/>
      <point x="1032.5933333333332" y="100.64" type="line"/>
      <point x="1034.5933333333332" y="783.0" type="line"/>
      <point x="1032.5933333333332" y="1347.6666666666667" type="line"/>
      <point x="1019.9266666666667" y="1360.3333333333333" type="line"/>
      <point x="504.8266666666667" y="504.2" type="line"/>
      <point x="264.46" y="98.60666666666667" type="line"/>
      <point x="446.12666666666667" y="65.09333333333335" type="line"/>
      <point x="446.12666666666667" y="0.0" type="line"/>
    </contour>
    <contour>
      <point x="452.1933333333333" y="489.2" type="line"/>
      <point x="497.5933333333333" y="568.2" type="line"/>
      <point x="799.5933333333334" y="557.2" type="line"/>
      <point x="799.5933333333334" y="489.2" type="line"/>
    </contour>
    <contour>
      <point x="799.5933333333334" y="557.2" type="line"/>
      <point x="1096.3933333333332" y="569.2" type="line"/>
      <point x="1096.3933333333332" y="489.2" type="line"/>
      <point x="799.5933333333334" y="489.2" type="line"/>
    </contour>
    <contour>
      <point x="1091.8866666666668" y="752.0" type="line"/>
      <point x="1091.8866666666668" y="820.0" type="line"/>
      <point x="1593.5466666666669" y="824.0" type="line"/>
      <point x="1623.9466666666667" y="1001.3333333333334" type="line"/>
      <point x="1695.1666666666667" y="1001.3333333333334" type="line"/>
      <point x="1695.1666666666667" y="568.0" type="line"/>
      <point x="1623.9466666666667" y="568.0" type="line"/>
      <point x="1593.5466666666669" y="748.6666666666666" type="line"/>
    </contour>
  </outline>
</glyph>
<glyph name="multiply" format="2">
  <advance width="987"/>
  <unicode hex="00D7"/>
  <outline>
    <contour>
      <point x="214.20666666666668" y="281.7" type="line"/>
      <point x="150.9" y="345.00666666666666" type="line"/>
      <point x="772.94" y="982.3" type="line"/>
      <point x="836.1266666666667" y="918.9933333333333" type="line"/>
    </contour>
    <contour>
      <point x="771.4533333333334" y="280.3333333333333" type="line"/>
      <point x="149.53333333333333" y="917.6266666666667" type="line"/>
      <point x="215.45333333333335" y="983.6666666666666" type="line"/>
      <point x="837.4933333333333" y="346.37333333333333" type="line"/>
    </contour>
  </outline>
</glyph>
<glyph name="OE" format="2">
  <advance width="2137"/>
  <unicode hex="0152"/>
  <outline>
    <contour>
      <point x="82.37333333333333" y="737.0" type="qcurve" smooth="yes"/>
      <point x="82.37333333333333" y="1068.0"/>
      <point x="466.3" y="1519.3333333333333"/>
      <point x="833.2133333333334" y="1519.3333333333333" type="qcurve" smooth="yes"/>
      <point x="907.4333333333334" y="1519.3333333333333"/>
      <point x="1174.0" y="1500.0"/>
      <point x="1237.28" y="1500.0" type="qcurve" smooth="yes"/>
      <point x="1980.4533333333331" y="1500.0" type="line"/>
      <point x="1980.4533333333331" y="1157.9333333333332" type="line"/>
      <point x="1907.3666666666668" y="1157.9333333333332" type="line"/>
      <point x="1866.3" y="1422.6666666666667" type="line"/>
      <point x="1316.9133333333332" y="1422.6666666666667" type="line"/>
      <point x="1289.7866666666666" y="1398.6666666666667" type="line"/>
      <point x="1288.5133333333333" y="783.6666666666666" type="line"/>
      <point x="1289.7866666666666" y="100.0" type="line"/>
      <point x="1315.9133333333332" y="74.0" type="line"/>
      <point x="1927.4933333333333" y="74.0" type="line"/>
      <point x="2008.1733333333332" y="372.6666666666667" type="line"/>
      <point x="2081.1933333333336" y="372.6666666666667" type="line"/>
      <point x="2041.9133333333334" y="0.0" type="line"/>
      <point x="1271.2266666666667" y="0.0" type="line" smooth="yes"/>
      <point x="1205.0066666666667" y="0.0"/>
      <point x="917.1333333333333" y="-29.333333333333332"/>
      <point x="837.1533333333334" y="-29.333333333333332" type="qcurve" smooth="yes"/>
      <point x="487.4466666666667" y="-29.333333333333332"/>
      <point x="82.37333333333333" y="396.0"/>
    </contour>
    <contour>
      <point x="198.59333333333333" y="768.3333333333334" type="qcurve" smooth="yes"/>
      <point x="198.59333333333333" y="452.6666666666667"/>
      <point x="528.1533333333334" y="53.0"/>
      <point x="841.1533333333334" y="53.0" type="qcurve" smooth="yes"/>
      <point x="954.92" y="53.0"/>
      <point x="1118.7733333333333" y="74.66666666666667"/>
      <point x="1179.3866666666668" y="95.66666666666667" type="qcurve"/>
      <point x="1180.72" y="783.6666666666666" type="line"/>
      <point x="1179.3866666666668" y="1397.3333333333333" type="line"/>
      <point x="1121.2" y="1414.6666666666667"/>
      <point x="937.92" y="1435.3333333333333"/>
      <point x="830.4866666666667" y="1435.3333333333333" type="qcurve" smooth="yes"/>
      <point x="518.12" y="1435.3333333333333"/>
      <point x="198.59333333333333" y="1064.3333333333333"/>
    </contour>
    <contour>
      <point x="1237.3466666666668" y="752.0" type="line"/>
      <point x="1237.3466666666668" y="820.0" type="line"/>
      <point x="1730.8066666666668" y="824.0" type="line"/>
      <point x="1761.2066666666667" y="1001.3333333333334" type="line"/>
      <point x="1832.4266666666667" y="1001.3333333333334" type="line"/>
      <point x="1832.4266666666667" y="568.0" type="line"/>
      <point x="1761.2066666666667" y="568.0" type="line"/>
      <point x="1730.8066666666668" y="748.6666666666666" type="line"/>
    </contour>
  </outline>
</glyph>
<glyph name="florin" format="2">
  <advance width="632"/>
  <unicode hex="0192"/>
  <outline>
    <contour>
      <point x="363.0" y="-104.33333333333333" type="line" smooth="yes"/>
      <point x="364.3333333333333" y="-194.0"/>
      <point x="252.66666666666666" y="-310.3333333333333"/>
      <point x="166.0" y="-310.3333333333333" type="qcurve" smooth="yes"/>
      <point x="131.0" y="-310.3333333333333"/>
      <point x="61.0" y="-293.3333333333333"/>
      <point x="36.0" y="-278.3333333333333" type="qcurve" smooth="yes"/>
      <point x="22.333333333333332" y="-271.3333333333333" type="line"/>
      <point x="35.0" y="-205.0" type="line"/>
      <point x="49.666666666666664" y="-210.0" type="line" smooth="yes"/>
      <point x="65.0" y="-216.0"/>
      <point x="106.66666666666667" y="-225.0"/>
      <point x="134.0" y="-225.0" type="qcurve" smooth="yes"/>
      <point x="202.33333333333334" y="-225.0"/>
      <point x="262.3333333333333" y="-147.66666666666666"/>
      <point x="261.6666666666667" y="-83.33333333333333" type="qcurve" smooth="yes"/>
      <point x="250.0" y="898.6666666666666" type="line"/>
      <point x="48.8" y="914.0" type="line"/>
      <point x="45.46666666666666" y="974.0" type="line"/>
      <point x="248.0" y="988.6666666666666" type="line"/>
      <point x="245.33333333333334" y="1314.8" type="line" smooth="yes"/>
      <point x="244.66666666666666" y="1404.4666666666667"/>
      <point x="355.1333333333333" y="1515.3333333333333"/>
      <point x="442.4" y="1515.3333333333333" type="qcurve" smooth="yes"/>
      <point x="477.4" y="1515.3333333333333"/>
      <point x="546.7333333333333" y="1497.12"/>
      <point x="572.4" y="1483.3333333333333" type="qcurve" smooth="yes"/>
      <point x="586.0666666666666" y="1476.3333333333333" type="line"/>
      <point x="573.4" y="1410.0" type="line"/>
      <point x="558.7333333333333" y="1415.0" type="line" smooth="yes"/>
      <point x="543.4" y="1421.0"/>
      <point x="501.7333333333333" y="1430.0"/>
      <point x="474.4" y="1430.0" type="qcurve" smooth="yes"/>
      <point x="406.06666666666666" y="1430.0"/>
      <point x="346.5733333333333" y="1358.1333333333332"/>
      <point x="347.5133333333333" y="1293.8" type="qcurve" smooth="yes"/>
      <point x="351.3333333333333" y="985.0" type="line"/>
      <point x="577.2" y="985.0" type="line"/>
      <point x="577.2" y="911.0" type="line"/>
      <point x="351.3333333333333" y="907.3333333333334" type="line"/>
    </contour>
  </outline>
</glyph>
<glyph name="primemod" format="2">
  <advance width="520"/>
  <unicode hex="02B9"/>
  <outline>
    <contour>
      <point x="248.13333333333335" y="1502.0" type="line"/>
      <point x="387.1333333333333" y="1502.0" type="line"/>
      <point x="269.4666666666667" y="991.0" type="line"/>
      <point x="194.13333333333335" y="996.0" type="line"/>
    </contour>
  </outline>
</glyph>
<glyph name="ogonek" format="2">
  <advance width="1024"/>
  <unicode hex="02DB"/>
  <outline>
    <contour>
      <point x="426.62" y="-245.69333333333336" type="qcurve" smooth="yes"/>
      <point x="426.62" y="-290.0"/>
      <point x="484.81333333333333" y="-351.0333333333333"/>
      <point x="552.06" y="-351.0333333333333" type="qcurve" smooth="yes"/>
      <point x="600.58" y="-351.0333333333333"/>
      <point x="698.6333333333333" y="-310.2733333333333"/>
      <point x="744.4866666666667" y="-270.6333333333333" type="qcurve"/>
      <point x="778.7333333333333" y="-319.8533333333333" type="line"/>
      <point x="740.76" y="-365.43333333333334"/>
      <point x="611.9" y="-438.0466666666667"/>
      <point x="528.6333333333333" y="-438.0466666666667" type="qcurve" smooth="yes"/>
      <point x="427.9266666666667" y="-438.0466666666667"/>
      <point x="318.0" y="-351.55333333333334"/>
      <point x="318.0" y="-275.6066666666667" type="qcurve" smooth="yes"/>
      <point x="318.0" y="-197.38666666666666"/>
      <point x="432.98" y="-49.61333333333333"/>
      <point x="510.8666666666667" y="10.513333333333335" type="qcurve" smooth="yes"/>
      <point x="537.6266666666667" y="31.0" type="line"/>
      <point x="587.9066666666666" y="-3.853333333333333" type="line"/>
      <point x="566.3" y="-23.673333333333332" type="line" smooth="yes"/>
      <point x="495.72" y="-89.10666666666667"/>
      <point x="426.62" y="-186.17333333333335"/>
    </contour>
  </outline>
</glyph>
<glyph name="hookabovecomb" format="2">
  <advance width="1024"/>
  <unicode hex="0309"/>
  <outline>
    <contour>
      <point x="422.2866666666667" y="1013.4" type="line"/>
      <point x="422.2866666666667" y="1132.38" type="line"/>
      <point x="465.9066666666667" y="1177.2933333333333" type="line"/>
      <point x="482.18" y="1171.96"/>
      <point x="526.7866666666666" y="1166.2333333333333"/>
      <point x="552.7866666666666" y="1166.2333333333333" type="qcurve" smooth="yes"/>
      <point x="611.6066666666667" y="1166.2333333333333"/>
      <point x="669.2133333333334" y="1223.9933333333333"/>
      <point x="669.2133333333334" y="1268.42" type="qcurve" smooth="yes"/>
      <point x="669.2133333333334" y="1321.5133333333333"/>
      <point x="588.2733333333334" y="1365.1533333333332"/>
      <point x="531.06" y="1365.1533333333332" type="qcurve" smooth="yes"/>
      <point x="486.24" y="1365.1533333333332"/>
      <point x="390.75333333333333" y="1343.3333333333333"/>
      <point x="353.2666666666667" y="1326.5133333333333" type="qcurve"/>
      <point x="326.66" y="1393.7933333333333" type="line"/>
      <point x="375.81333333333333" y="1415.6133333333332"/>
      <point x="482.5733333333333" y="1442.7066666666667"/>
      <point x="539.4533333333334" y="1442.7066666666667" type="qcurve" smooth="yes"/>
      <point x="646.5466666666666" y="1442.7066666666667"/>
      <point x="769.52" y="1359.76"/>
      <point x="769.52" y="1267.48" type="qcurve" smooth="yes"/>
      <point x="769.52" y="1184.3533333333332"/>
      <point x="659.76" y="1092.0733333333333"/>
      <point x="585.2133333333334" y="1092.0733333333333" type="qcurve" smooth="yes"/>
      <point x="559.6066666666667" y="1092.0733333333333"/>
      <point x="519.0" y="1097.68"/>
      <point x="505.18" y="1101.62" type="qcurve"/>
      <point x="505.18" y="1013.4" type="line"/>
    </contour>
  </outline>
</glyph>
<glyph name="breveinvertedcomb" format="2">
  <advance width="1024"/>
  <unicode hex="030F"/>
  <outline>
    <contour>
      <point x="275.66" y="1152.0533333333333" type="qcurve"/>
      <point x="223.83333333333331" y="1175.42" type="line"/>
      <point x="239.86" y="1259.1533333333332"/>
      <point x="400.66" y="1406.2"/>
      <point x="511.0" y="1406.2" type="qcurve"/>
      <point x="623.1" y="1406.2"/>
      <point x="782.9333333333334" y="1267.5666666666668"/>
      <point x="800.1666666666666" y="1176.8733333333332" type="qcurve"/>
      <point x="746.16" y="1151.3266666666668" type="line"/>
      <point x="719.8866666666667" y="1207.08"/>
      <point x="601.62" y="1301.0933333333332"/>
      <point x="510.5466666666667" y="1301.0933333333332" type="qcurve"/>
      <point x="418.99333333333334" y="1301.0933333333332"/>
      <point x="298.8466666666667" y="1206.3533333333332"/>
    </contour>
  </outline>
</glyph>
<glyph name="dieresisbelowcomb" format="2">
  <advance width="1024"/>
  <unicode hex="0324"/>
  <outline>
    <contour>
      <point x="244.60666666666665" y="-277.26" type="qcurve" smooth="yes"/>
      <point x="244.60666666666665" y="-235.95333333333335"/>
      <point x="290.55333333333334" y="-190.64666666666665"/>
      <point x="333.2266666666667" y="-190.64666666666665" type="qcurve" smooth="yes"/>
      <point x="372.9" y="-190.64666666666665"/>
      <point x="419.8466666666667" y="-238.56"/>
      <point x="419.8466666666667" y="-277.26" type="qcurve" smooth="yes"/>
      <point x="419.8466666666667" y="-318.96"/>
      <point x="376.2333333333333" y="-364.2666666666667"/>
      <point x="333.2266666666667" y="-364.2666666666667" type="qcurve" smooth="yes"/>
      <point x="292.22" y="-364.2666666666667"/>
      <point x="244.60666666666665" y="-317.2933333333333"/>
    </contour>
    <contour>
      <point x="604.1533333333334" y="-277.26" type="qcurve" smooth="yes"/>
      <point x="604.1533333333334" y="-235.95333333333335"/>
      <point x="648.7666666666667" y="-190.64666666666665"/>
      <point x="690.7733333333334" y="-190.64666666666665" type="qcurve" smooth="yes"/>
      <point x="731.78" y="-190.64666666666665"/>
      <point x="779.3933333333333" y="-238.56"/>
      <point x="779.3933333333333" y="-277.26" type="qcurve" smooth="yes"/>
      <point x="779.3933333333333" y="-318.96"/>
      <point x="734.4466666666666" y="-364.2666666666667"/>
      <point x="690.7733333333334" y="-364.2666666666667" type="qcurve" smooth="yes"/>
      <point x="651.1" y="-364.2666666666667"/>
      <point x="604.1533333333334" y="-317.2933333333333"/>
    </contour>
  </outline>
</glyph>
<glyph name="commaaccentcomb" format="2">
  <advance width="1024"/>
  <unicode hex="0326"/>
  <outline>
    <contour>
      <point x="401.8666666666667" y="-532.7866666666666" type="line"/>
      <point x="445.55333333333334" y="-498.12666666666667"/>
      <point x="523.2466666666667" y="-401.59333333333336"/>
      <point x="538.28" y="-345.58" type="qcurve"/>
      <point x="480.0" y="-351.3066666666667"/>
      <point x="419.9533333333333" y="-294.81333333333333"/>
      <point x="419.9533333333333" y="-250.47333333333333" type="qcurve" smooth="yes"/>
      <point x="419.9533333333333" y="-207.19333333333336"/>
      <point x="477.9066666666667" y="-146.82"/>
      <point x="523.52" y="-146.82" type="qcurve" smooth="yes"/>
      <point x="566.4666666666666" y="-146.82"/>
      <point x="626.9666666666666" y="-204.25333333333333"/>
      <point x="626.9666666666666" y="-258.74666666666667" type="qcurve" smooth="yes"/>
      <point x="626.9666666666666" y="-349.64"/>
      <point x="506.06666666666666" y="-516.4533333333334"/>
      <point x="428.2066666666667" y="-566.0666666666666" type="qcurve"/>
    </contour>
  </outline>
</glyph>
<glyph name="brevebelowcomb" format="2">
  <advance width="1024"/>
  <unicode hex="032E"/>
  <outline>
    <contour>
      <point x="753.5866666666666" y="-127.85333333333334" type="qcurve"/>
      <point x="809.5133333333333" y="-155.86666666666667" type="line"/>
      <point x="786.9266666666666" y="-241.24"/>
      <point x="628.26" y="-386.97333333333336"/>
      <point x="512.7266666666666" y="-386.97333333333336" type="qcurve" smooth="yes"/>
      <point x="400.9" y="-386.97333333333336"/>
      <point x="241.56" y="-253.48"/>
      <point x="214.76" y="-157.04666666666668" type="qcurve"/>
      <point x="274.78" y="-127.12666666666667" type="line"/>
      <point x="305.4266666666667" y="-185.34"/>
      <point x="422.81333333333333" y="-277.7133333333333"/>
      <point x="513.4533333333334" y="-277.7133333333333" type="qcurve" smooth="yes"/>
      <point x="606.9733333333334" y="-277.7133333333333"/>
      <point x="726.5733333333334" y="-185.98"/>
    </contour>
  </outline>
</glyph>
<glyph name="numeralsign" format="2">
  <advance width="349"/>
  <unicode hex="0374"/>
  <outline>
    <contour>
      <point x="84.99333333333334" y="1017.3333333333334" type="line"/>
      <point x="40.65333333333333" y="1033.3666666666668" type="line"/>
      <point x="155.87333333333333" y="1500.0" type="line"/>
      <point x="259.6733333333333" y="1487.58" type="line"/>
      <point x="277.4266666666667" y="1458.88" type="line"/>
    </contour>
  </outline>
</glyph>
<glyph name="lownumeralsign" format="2">
  <advance width="349"/>
  <unicode hex="0375"/>
  <outline>
    <contour>
      <point x="89.21333333333334" y="-217.66666666666666" type="line"/>
      <point x="-14.586666666666666" y="-205.24666666666667" type="line"/>
      <point x="-32.34" y="-176.54666666666665" type="line"/>
      <point x="160.09333333333333" y="265.0" type="line"/>
      <point x="204.43333333333334" y="248.96666666666667" type="line"/>
    </contour>
  </outline>
</glyph>
<glyph name="Delta" format="2">
  <advance width="1473"/>
  <unicode hex="0394"/>
  <outline>
    <contour>
      <point x="129.88666666666666" y="0.0" type="line"/>
      <point x="129.88666666666666" y="74.66666666666667" type="line"/>
      <point x="313.26" y="538.3333333333334" type="line"/>
      <point x="684.12" y="1508.0" type="line"/>
      <point x="776.6066666666667" y="1508.0" type="line"/>
      <point x="1148.4733333333334" y="536.3333333333334" type="line"/>
      <point x="1326.5733333333333" y="74.66666666666667" type="line"/>
      <point x="1326.5733333333333" y="0.0" type="line"/>
    </contour>
    <contour>
      <point x="231.36" y="88.08666666666667" type="line"/>
      <point x="712.3066666666666" y="84.42" type="line"/>
      <point x="1203.1" y="89.08666666666667" type="line"/>
      <point x="1044.5266666666666" y="508.3333333333333" type="line"/>
      <point x="721.8533333333334" y="1355.54" type="line"/>
      <point x="394.66" y="513.06" type="line"/>
    </contour>
  </outline>
</glyph>
<glyph name="Sigma" format="2">
  <advance width="1152"/>
  <unicode hex="03A3"/>
  <outline>
    <contour>
      <point x="61.10666666666666" y="0.0" type="line"/>
      <point x="38.8" y="68.0" type="line"/>
      <point x="557.48" y="747.46" type="line"/>
      <point x="101.45333333333333" y="1424.8666666666668" type="line"/>
      <point x="101.45333333333333" y="1500.0" type="line"/>
      <point x="1087.6533333333332" y="1500.0" type="line"/>
      <point x="1087.6533333333332" y="1101.7333333333333" type="line"/>
      <point x="1015.5866666666667" y="1101.7333333333333" type="line"/>
      <point x="969.1" y="1422.6666666666667" type="line"/>
      <point x="251.49333333333334" y="1422.6666666666667" type="line"/>
      <point x="244.61333333333334" y="1413.3333333333333" type="line"/>
      <point x="667.4933333333333" y="781.3533333333334" type="line"/>
      <point x="667.4933333333333" y="754.74" type="line"/>
      <point x="168.87333333333333" y="97.88" type="line"/>
      <point x="174.81333333333333" y="87.88" type="line"/>
      <point x="978.22" y="87.88" type="line"/>
      <point x="1062.78" y="385.4666666666667" type="line"/>
      <point x="1140.2933333333333" y="385.4666666666667" type="line"/>
      <point x="1094.92" y="0.0" type="line"/>
    </contour>
  </outline>
</glyph>
<glyph name="alpha" format="2">
  <advance width="1221"/>
  <unicode hex="03B1"/>
  <anchor x="504.86" y="1000.0" name="GRKtop"/>
  <outline>
    <contour>
      <point x="450.48" y="-14.333333333333332" type="qcurve" smooth="yes"/>
      <point x="267.38" y="-14.333333333333332"/>
      <point x="65.94666666666667" y="251.33333333333334"/>
      <point x="65.94666666666667" y="482.6666666666667" type="qcurve" smooth="yes"/>
      <point x="65.94666666666667" y="720.6666666666666"/>
      <point x="281.66" y="1029.94"/>
      <point x="479.06666666666666" y="1029.94" type="qcurve" smooth="yes"/>
      <point x="648.8266666666666" y="1029.94"/>
      <point x="819.78" y="799.6666666666666"/>
      <point x="872.9066666666666" y="527.3333333333334" type="qcurve"/>
      <point x="885.7533333333333" y="527.3333333333334" type="line"/>
      <point x="962.3933333333334" y="214.80666666666667"/>
      <point x="1045.4866666666667" y="84.06666666666668"/>
      <point x="1112.4" y="84.06666666666668" type="qcurve" smooth="yes"/>
      <point x="1175.0333333333333" y="84.06666666666668" type="line"/>
      <point x="1175.0333333333333" y="26.30666666666667" type="line"/>
      <point x="1051.2933333333333" y="-8.0" type="line"/>
      <point x="962.8333333333334" y="-8.0"/>
      <point x="881.8533333333334" y="141.94666666666666"/>
      <point x="821.0533333333334" y="428.3333333333333" type="qcurve"/>
      <point x="812.78" y="428.3333333333333" type="line"/>
      <point x="748.0733333333334" y="739.6666666666666"/>
      <point x="603.1733333333334" y="960.88"/>
      <point x="475.93333333333334" y="960.88" type="qcurve" smooth="yes"/>
      <point x="330.3266666666667" y="960.88"/>
      <point x="184.5" y="701.0"/>
      <point x="184.5" y="488.0466666666667" type="qcurve" smooth="yes"/>
      <point x="184.5" y="275.6666666666667"/>
      <point x="331.1466666666667" y="70.27333333333334"/>
      <point x="460.36" y="70.27333333333334" type="qcurve" smooth="yes"/>
      <point x="563.5466666666666" y="70.27333333333334"/>
      <point x="726.1866666666666" y="272.6666666666667"/>
      <point x="822.2866666666666" y="523.6666666666666" type="qcurve"/>
      <point x="835.1733333333334" y="523.6666666666666" type="line"/>
      <point x="1022.6" y="988.94" type="line"/>
      <point x="1124.88" y="1000.0" type="line"/>
      <point x="1151.88" y="979.6666666666666" type="line"/>
      <point x="884.8933333333334" y="413.0" type="line"/>
      <point x="869.1266666666667" y="413.0" type="line"/>
      <point x="773.2666666666667" y="197.02666666666667"/>
      <point x="592.2933333333334" y="-14.333333333333332"/>
    </contour>
  </outline>
</glyph>
<glyph name="upsilon" format="2">
  <advance width="1094"/>
  <unicode hex="03C5"/>
  <anchor x="543.5733333333334" y="1000.0" name="GRKtop"/>
  <outline>
    <contour>
      <point x="586.7466666666667" y="-18.34" type="qcurve" smooth="yes"/>
      <point x="419.4733333333333" y="-18.34"/>
      <point x="221.46" y="181.69333333333336"/>
      <point x="223.88666666666666" y="378.9866666666667" type="qcurve" smooth="yes"/>
      <point x="228.04" y="705.3333333333334" type="line" smooth="yes"/>
      <point x="229.31333333333333" y="819.9666666666666"/>
      <point x="190.06666666666666" y="898.7266666666666"/>
      <point x="140.20666666666665" y="905.7266666666666" type="qcurve"/>
      <point x="48.25333333333334" y="917.3333333333334" type="line"/>
      <point x="48.25333333333334" y="982.6666666666666" type="line"/>
      <point x="210.08" y="1006.0" type="line"/>
      <point x="274.9866666666667" y="1007.76"/>
      <point x="334.0466666666667" y="894.3666666666667"/>
      <point x="333.0466666666667" y="803.6666666666666" type="qcurve" smooth="yes"/>
      <point x="328.38" y="379.2266666666667" type="line" smooth="yes"/>
      <point x="327.1666666666667" y="241.02"/>
      <point x="453.11333333333334" y="76.26"/>
      <point x="591.42" y="76.26" type="qcurve" smooth="yes"/>
      <point x="736.3533333333334" y="76.26"/>
      <point x="904.4333333333334" y="285.48"/>
      <point x="904.4333333333334" y="477.28" type="qcurve" smooth="yes"/>
      <point x="904.4333333333334" y="632.88"/>
      <point x="805.3066666666666" y="880.16"/>
      <point x="729.7466666666667" y="978.36" type="qcurve"/>
      <point x="809.9666666666666" y="1027.6666666666667" type="line"/>
      <point x="913.7066666666666" y="900.6533333333334"/>
      <point x="1017.4133333333333" y="628.6733333333334"/>
      <point x="1017.4133333333333" y="486.2" type="qcurve" smooth="yes"/>
      <point x="1017.4133333333333" y="258.8066666666667"/>
      <point x="779.6066666666667" y="-18.34"/>
    </contour>
  </outline>
</glyph>
<glyph name="psi" format="2">
  <advance width="1348"/>
  <unicode hex="03C8"/>
  <outline>
    <contour>
      <point x="701.0266666666666" y="-18.34" type="line"/>
      <point x="455.36" y="-15.88"/>
      <point x="220.94" y="188.39333333333335"/>
      <point x="224.12666666666667" y="387.18666666666667" type="qcurve" smooth="yes"/>
      <point x="228.04" y="712.82" type="line"/>
      <point x="228.98" y="821.0933333333334"/>
      <point x="190.97333333333333" y="897.3933333333333"/>
      <point x="141.3" y="905.4533333333334" type="qcurve" smooth="yes"/>
      <point x="48.25333333333334" y="917.3333333333334" type="line"/>
      <point x="48.25333333333334" y="982.6666666666666" type="line"/>
      <point x="209.80666666666667" y="1006.0" type="line"/>
      <point x="275.6533333333333" y="1007.0933333333334"/>
      <point x="333.68666666666667" y="894.64"/>
      <point x="332.74666666666667" y="803.6666666666666" type="qcurve"/>
      <point x="328.38" y="386.6066666666667" type="line" smooth="yes"/>
      <point x="326.9533333333333" y="228.44"/>
      <point x="514.6333333333333" y="77.93333333333334"/>
      <point x="701.0266666666666" y="76.32666666666667" type="qcurve"/>
    </contour>
    <contour>
      <point x="738.8466666666666" y="-18.34" type="qcurve"/>
      <point x="738.8466666666666" y="76.32666666666667" type="line"/>
      <point x="940.3133333333334" y="76.99333333333334"/>
      <point x="1158.6066666666668" y="290.68666666666667"/>
      <point x="1158.6066666666668" y="505.5" type="qcurve" smooth="yes"/>
      <point x="1158.6066666666668" y="658.3666666666667"/>
      <point x="1059.9" y="897.16"/>
      <point x="985.18" y="978.36" type="qcurve"/>
      <point x="1065.4" y="1027.6666666666667" type="line"/>
      <point x="1162.6933333333332" y="923.9"/>
      <point x="1271.5866666666668" y="662.3466666666666"/>
      <point x="1271.5866666666668" y="509.02" type="qcurve" smooth="yes"/>
      <point x="1271.5866666666668" y="258.48"/>
      <point x="975.8933333333334" y="-13.76"/>
    </contour>
    <contour>
      <point x="684.38" y="-480.0" type="line"/>
      <point x="657.38" y="-459.6666666666667" type="line"/>
      <point x="665.7466666666667" y="26.686666666666667" type="line"/>
      <point x="668.7466666666667" y="26.686666666666667" type="line"/>
      <point x="676.7466666666667" y="1427.6066666666668" type="line"/>
      <point x="733.08" y="1434.48" type="line"/>
      <point x="759.96" y="1413.3666666666668" type="line"/>
      <point x="771.36" y="26.686666666666667" type="line"/>
      <point x="774.36" y="26.686666666666667" type="line"/>
      <point x="782.7266666666666" y="-469.2133333333333" type="line"/>
    </contour>
  </outline>
</glyph>
<glyph name="Dje" format="2">
  <advance width="1608"/>
  <unicode hex="0402"/>
  <guideline x="568.0" y="625.0" angle="90.0" identifier="YDADns81zF"/>
  <outline>
    <contour>
      <point x="1149.16" y="0.0" type="qcurve"/>
      <point x="1149.16" y="65.33333333333334" type="line"/>
      <point x="1283.06" y="74.87333333333335"/>
      <point x="1427.4466666666667" y="265.7933333333333"/>
      <point x="1427.4466666666667" y="422.0733333333333" type="qcurve" smooth="yes"/>
      <point x="1427.4466666666667" y="587.2336648250666"/>
      <point x="1234.5677050882541" y="770.6"/>
      <point x="1034.56" y="770.6" type="qcurve" smooth="yes"/>
      <point x="908.2688080651274" y="770.6"/>
      <point x="722.6084749772547" y="738.7420375583654"/>
      <point x="631.1" y="706.8266666666666" type="qcurve"/>
      <point x="631.1" y="788.32" type="line"/>
      <point x="723.0009308440987" y="822.238227619632"/>
      <point x="919.7788985915346" y="856.76"/>
      <point x="1043.82" y="856.76" type="qcurve" smooth="yes"/>
      <point x="1294.7391963109353" y="856.76"/>
      <point x="1548.4" y="633.5848281374667"/>
      <point x="1548.4" y="428.7866666666667" type="qcurve" smooth="yes"/>
      <point x="1548.4" y="231.67333333333335"/>
      <point x="1331.4266666666667" y="0.84"/>
    </contour>
    <contour>
      <point x="58.0" y="1096.5333333333333" type="line"/>
      <point x="58.0" y="1500.0" type="line"/>
      <point x="1256.8666666666668" y="1500.0" type="line"/>
      <point x="1256.8666666666668" y="1109.2666666666667" type="line"/>
      <point x="1184.2" y="1109.2666666666667" type="line"/>
      <point x="1137.2" y="1422.6666666666667" type="line"/>
      <point x="710.8333333333334" y="1422.6666666666667" type="line"/>
      <point x="687.4666666666666" y="1408.0" type="line"/>
      <point x="685.4666666666666" y="754.0" type="line"/>
      <point x="687.4666666666666" y="100.30666666666667" type="line"/>
      <point x="924.2" y="65.03333333333335" type="line"/>
      <point x="924.2" y="0.0" type="line"/>
      <point x="332.7333333333333" y="0.0" type="line"/>
      <point x="332.7333333333333" y="65.03333333333335" type="line"/>
      <point x="574.7333333333333" y="100.30666666666667" type="line"/>
      <point x="576.7333333333333" y="754.0" type="line"/>
      <point x="574.7333333333333" y="1406.6666666666667" type="line"/>
      <point x="554.7666666666667" y="1422.6666666666667" type="line"/>
      <point x="172.33333333333334" y="1422.6666666666667" type="line"/>
      <point x="131.33333333333334" y="1096.5333333333333" type="line"/>
    </contour>
  </outline>
</glyph>
<glyph name="Nje" format="2">
  <advance width="2093"/>
  <unicode hex="040A"/>
  <outline>
    <contour>
      <point x="83.24" y="0.0" type="line"/>
      <point x="638.7066666666666" y="0.0" type="line"/>
      <point x="638.7066666666666" y="65.09333333333335" type="line"/>
      <point x="414.3066666666667" y="100.09333333333335" type="line"/>
      <point x="412.3066666666667" y="754.0" type="line"/>
      <point x="414.3066666666667" y="1397.0266666666666" type="line"/>
      <point x="638.7066666666666" y="1431.0266666666666" type="line"/>
      <point x="638.7066666666666" y="1500.0" type="line"/>
      <point x="83.24" y="1500.0" type="line"/>
      <point x="83.24" y="1431.0266666666666" type="line"/>
      <point x="301.5733333333333" y="1397.0266666666666" type="line"/>
      <point x="303.5733333333333" y="754.0" type="line"/>
      <point x="301.5733333333333" y="100.09333333333335" type="line"/>
      <point x="83.24" y="65.09333333333335" type="line"/>
    </contour>
    <contour>
      <point x="357.94" y="777.0066666666667" type="line"/>
      <point x="848.64" y="777.0066666666667" type="line"/>
      <point x="1212.6733333333332" y="777.0066666666667" type="line"/>
      <point x="1212.6733333333332" y="859.3666666666667" type="line"/>
      <point x="848.64" y="851.3666666666667" type="line"/>
      <point x="357.94" y="859.3666666666667" type="line"/>
    </contour>
    <contour>
      <point x="938.5733333333334" y="0.0" type="line"/>
      <point x="1549.1333333333332" y="0.0" type="line" smooth="yes"/>
      <point x="1780.7466666666667" y="0.0"/>
      <point x="2044.08" y="237.90666666666667"/>
      <point x="2044.08" y="445.6666666666667" type="qcurve" smooth="yes"/>
      <point x="2044.08" y="649.1866666666666"/>
      <point x="1792.1133333333332" y="858.58"/>
      <point x="1547.2133333333334" y="858.58" type="qcurve" smooth="yes"/>
      <point x="1275.4666666666667" y="858.58" type="line"/>
      <point x="1267.3133333333333" y="870.58" type="line"/>
      <point x="1269.04" y="1397.0266666666666" type="line"/>
      <point x="1494.04" y="1431.0266666666666" type="line"/>
      <point x="1494.04" y="1500.0" type="line"/>
      <point x="938.5733333333334" y="1500.0" type="line"/>
      <point x="938.5733333333334" y="1431.0266666666666" type="line"/>
      <point x="1156.3066666666668" y="1397.0266666666666" type="line"/>
      <point x="1158.3066666666668" y="749.08" type="line"/>
      <point x="1156.3066666666668" y="100.09333333333335" type="line"/>
      <point x="938.5733333333334" y="65.09333333333335" type="line"/>
    </contour>
    <contour>
      <point x="1267.5866666666668" y="767.9466666666666" type="line"/>
      <point x="1273.8" y="779.9466666666666" type="line"/>
      <point x="1528.1" y="779.9466666666666" type="line" smooth="yes"/>
      <point x="1717.0866666666668" y="779.9466666666666"/>
      <point x="1922.16" y="613.52"/>
      <point x="1922.16" y="445.6666666666667" type="qcurve" smooth="yes"/>
      <point x="1922.16" y="260.9666666666667"/>
      <point x="1715.1266666666668" y="74.66666666666667"/>
      <point x="1525.9133333333332" y="75.33333333333334" type="qcurve" smooth="yes"/>
      <point x="1299.3466666666668" y="76.0" type="line"/>
      <point x="1268.3733333333332" y="94.72666666666667" type="line"/>
    </contour>
  </outline>
</glyph>
<glyph name="Hard" format="2">
  <advance width="1420"/>
  <unicode hex="042A"/>
  <outline>
    <contour>
      <point x="594.7133333333334" y="899.6666666666666" type="line"/>
      <point x="602.8666666666667" y="887.6666666666666" type="line"/>
      <point x="874.6133333333333" y="887.6666666666666" type="line" smooth="yes"/>
      <point x="1119.5133333333333" y="887.6666666666666"/>
      <point x="1371.48" y="667.0"/>
      <point x="1371.48" y="455.6666666666667" type="qcurve" smooth="yes"/>
      <point x="1371.48" y="244.33333333333334"/>
      <point x="1108.1466666666668" y="0.0"/>
      <point x="876.5333333333334" y="0.0" type="qcurve" smooth="yes"/>
      <point x="265.37333333333333" y="0.0" type="line"/>
      <point x="265.37333333333333" y="65.09333333333335" type="line"/>
      <point x="483.7066666666667" y="100.09333333333335" type="line"/>
      <point x="485.7066666666667" y="749.08" type="line"/>
      <point x="483.7066666666667" y="1424.0" type="line"/>
      <point x="152.33333333333334" y="1424.0" type="line"/>
      <point x="111.33333333333334" y="1097.8666666666668" type="line"/>
      <point x="38.0" y="1097.8666666666668" type="line"/>
      <point x="38.0" y="1501.3333333333333" type="line"/>
      <point x="821.44" y="1500.0" type="line"/>
      <point x="821.44" y="1431.0266666666666" type="line"/>
      <point x="596.44" y="1397.0266666666666" type="line"/>
    </contour>
    <contour>
      <point x="594.9866666666667" y="797.0333333333334" type="line"/>
      <point x="596.0466666666666" y="94.72666666666667" type="line"/>
      <point x="627.02" y="76.0" type="line"/>
      <point x="853.3133333333334" y="75.33333333333334" type="line" smooth="yes"/>
      <point x="1042.5266666666666" y="74.66666666666667"/>
      <point x="1249.56" y="267.3333333333333"/>
      <point x="1249.56" y="455.6666666666667" type="qcurve" smooth="yes"/>
      <point x="1249.56" y="632.0"/>
      <point x="1044.4866666666667" y="809.0333333333334"/>
      <point x="855.5" y="809.0333333333334" type="qcurve" smooth="yes"/>
      <point x="601.2" y="809.0333333333334" type="line"/>
    </contour>
  </outline>
</glyph>
<glyph name="Soft" format="2">
  <advance width="1238"/>
  <unicode hex="042C"/>
  <outline>
    <contour>
      <point x="419.06666666666666" y="809.0333333333334" type="line"/>
      <point x="412.8533333333333" y="797.0333333333334" type="line"/>
      <point x="413.9133333333333" y="94.72666666666667" type="line"/>
      <point x="444.8866666666667" y="76.0" type="line"/>
      <point x="671.18" y="75.33333333333334" type="line" smooth="yes"/>
      <point x="860.3933333333333" y="74.66666666666667"/>
      <point x="1067.4266666666667" y="267.3333333333333"/>
      <point x="1067.4266666666667" y="455.6666666666667" type="qcurve" smooth="yes"/>
      <point x="1067.4266666666667" y="632.0"/>
      <point x="862.3533333333334" y="809.0333333333334"/>
      <point x="673.3666666666667" y="809.0333333333334" type="qcurve" smooth="yes"/>
    </contour>
    <contour>
      <point x="412.58" y="899.6666666666666" type="line"/>
      <point x="420.7333333333333" y="887.6666666666666" type="line"/>
      <point x="692.48" y="887.6666666666666" type="line" smooth="yes"/>
      <point x="937.38" y="887.7266666666666"/>
      <point x="1189.3466666666668" y="667.0"/>
      <point x="1189.3466666666668" y="455.6666666666667" type="qcurve" smooth="yes"/>
      <point x="1189.3466666666668" y="244.33333333333334"/>
      <point x="926.0133333333333" y="0.0"/>
      <point x="694.4" y="0.0" type="qcurve" smooth="yes"/>
      <point x="83.24" y="0.0" type="line"/>
      <point x="83.24" y="65.09333333333335" type="line"/>
      <point x="301.5733333333333" y="100.09333333333335" type="line"/>
      <point x="303.5733333333333" y="749.08" type="line"/>
      <point x="301.5733333333333" y="1397.0266666666666" type="line"/>
      <point x="83.24" y="1431.0266666666666" type="line"/>
      <point x="83.24" y="1500.0" type="line"/>
      <point x="639.3066666666666" y="1500.0" type="line"/>
      <point x="639.3066666666666" y="1431.0266666666666" type="line"/>
      <point x="414.3066666666667" y="1397.0266666666666" type="line"/>
    </contour>
  </outline>
</glyph>
<glyph name="Ecyr" format="2">
  <advance width="1477"/>
  <unicode hex="042D"/>
  <guideline x="1147.0" y="753.0" angle="90.0" identifier="Ovo68woMtl"/>
  <guideline x="211.0" y="787.0" angle="90.0" identifier="BltxzGcBtl"/>
  <outline>
    <contour>
      <point x="657.2533333333333" y="-31.793333333333337" type="qcurve" smooth="yes"/>
      <point x="515.6866666666666" y="-31.793333333333337"/>
      <point x="299.4266666666667" y="44.74"/>
      <point x="243.14" y="97.88" type="qcurve"/>
      <point x="219.31333333333333" y="-10.4" type="line"/>
      <point x="149.49333333333334" y="-10.4" type="line"/>
      <point x="149.49333333333334" y="448.6666666666667" type="line"/>
      <point x="225.25333333333333" y="448.6666666666667" type="line"/>
      <point x="249.19333333333336" y="319.9866666666667" type="line" smooth="yes"/>
      <point x="274.14" y="179.78"/>
      <point x="487.58" y="53.78"/>
      <point x="660.1266666666667" y="53.78" type="qcurve" smooth="yes"/>
      <point x="962.626712518986" y="53.78"/>
      <point x="1279.9266666666667" y="418.48"/>
      <point x="1279.9266666666667" y="742.5733333333334" type="qcurve" smooth="yes"/>
      <point x="1279.9266666666667" y="1048.0333333333333"/>
      <point x="948.993315533544" y="1433.64"/>
      <point x="661.9133333333334" y="1433.64" type="qcurve" smooth="yes"/>
      <point x="505.67333333333335" y="1433.64"/>
      <point x="289.11333333333334" y="1333.34"/>
      <point x="267.5266666666667" y="1209.5533333333333" type="qcurve" smooth="yes"/>
      <point x="240.92" y="1050.94" type="line"/>
      <point x="164.49333333333334" y="1050.94" type="line"/>
      <point x="164.49333333333334" y="1499.94" type="line"/>
      <point x="234.31333333333333" y="1499.94" type="line"/>
      <point x="258.14" y="1412.3266666666668" type="line"/>
      <point x="321.12666666666667" y="1455.62"/>
      <point x="527.2" y="1520.0"/>
      <point x="666.92" y="1520.0" type="qcurve" smooth="yes"/>
      <point x="996.28" y="1520.0"/>
      <point x="1394.42" y="1099.9"/>
      <point x="1394.42" y="753.5733333333334" type="qcurve" smooth="yes"/>
      <point x="1394.42" y="421.36"/>
      <point x="1001.0066666666667" y="-31.793333333333337"/>
    </contour>
    <contour>
      <point x="1337.1733333333332" y="728.6333333333333" type="line"/>
      <point x="636.1266666666667" y="723.9666666666666" type="line"/>
      <point x="605.7266666666666" y="543.3" type="line"/>
      <point x="533.9066666666666" y="543.3" type="line"/>
      <point x="533.9066666666666" y="976.6333333333333" type="line"/>
      <point x="605.7266666666666" y="976.6333333333333" type="line"/>
      <point x="636.1266666666667" y="799.3" type="line"/>
      <point x="1337.1733333333332" y="792.6333333333333" type="line"/>
    </contour>
  </outline>
</glyph>
<glyph name="el" format="2">
  <advance width="1182"/>
  <unicode hex="043B"/>
  <guideline x="302.0" y="625.0" angle="90.0" identifier="jHuxcyi1x5"/>
  <guideline x="953.0" y="554.0" angle="90.0" identifier="b1mHk7wgTR"/>
  <guideline x="627.0" y="553.0" angle="90.0" identifier="m4aYe0x4PZ"/>
  <outline>
    <contour>
      <point x="330.98" y="917.0" type="line"/>
      <point x="291.3933333333333" y="454.0" type="line" smooth="yes"/>
      <point x="276.7171264002" y="284.1200864801333"/>
      <point x="196.04" y="105.0"/>
      <point x="116.96" y="105.0" type="qcurve" smooth="yes"/>
      <point x="101.9" y="105.0"/>
      <point x="70.62" y="109.39333333333335"/>
      <point x="48.8" y="116.33333333333334" type="qcurve"/>
      <point x="48.8" y="-2.0" type="line"/>
      <point x="70.32" y="-11.0"/>
      <point x="107.602857142858" y="-17.0"/>
      <point x="128.5" y="-17.0" type="qcurve" smooth="yes"/>
      <point x="248.487247706424" y="-17.0"/>
      <point x="357.0013881614067" y="192.88869314823467"/>
      <point x="377.76" y="439.0" type="qcurve" smooth="yes"/>
      <point x="418.62" y="925.9666666666666" type="line"/>
      <point x="829.9466666666666" y="925.9666666666666" type="line"/>
      <point x="831.9466666666666" y="499.76" type="line"/>
      <point x="829.9466666666666" y="83.0" type="line"/>
      <point x="670.62" y="53.333333333333336" type="line"/>
      <point x="670.62" y="0.0" type="line"/>
      <point x="1097.62" y="0.0" type="line"/>
      <point x="1097.62" y="53.333333333333336" type="line"/>
      <point x="939.1666666666666" y="83.0" type="line"/>
      <point x="937.1666666666666" y="500.0" type="line"/>
      <point x="939.1666666666666" y="917.0" type="line"/>
      <point x="1097.62" y="946.6666666666666" type="line"/>
      <point x="1097.62" y="1000.0" type="line"/>
      <point x="175.26" y="1000.0" type="line"/>
      <point x="175.26" y="946.6666666666666" type="line"/>
    </contour>
  </outline>
</glyph>
<glyph name="ef" format="2">
  <advance width="1319"/>
  <unicode hex="0444"/>
  <outline>
    <contour>
      <point x="709.9" y="509.0" type="line"/>
      <point x="713.5666666666666" y="24.3" type="line"/>
      <point x="714.84" y="6.78" type="line"/>
      <point x="715.1733333333334" y="-397.0" type="line"/>
      <point x="894.0133333333333" y="-424.6666666666667" type="line"/>
      <point x="894.0133333333333" y="-480.0" type="line"/>
      <point x="425.05333333333334" y="-480.0" type="line"/>
      <point x="425.05333333333334" y="-424.6666666666667" type="line"/>
      <point x="603.8933333333333" y="-397.0" type="line"/>
      <point x="604.8933333333333" y="12.24" type="line"/>
      <point x="606.1666666666666" y="27.06" type="line"/>
      <point x="607.8933333333333" y="509.0" type="line"/>
      <point x="607.5" y="977.5133333333333" type="line"/>
      <point x="606.2266666666666" y="991.2133333333334" type="line"/>
      <point x="605.2266666666666" y="1410.4266666666667" type="line"/>
      <point x="412.0333333333333" y="1434.6666666666667" type="line"/>
      <point x="412.0333333333333" y="1500.0" type="line"/>
      <point x="681.1733333333334" y="1520.6666666666667" type="line"/>
      <point x="697.1733333333334" y="1517.3333333333333" type="line"/>
      <point x="712.5066666666667" y="1492.6666666666667" type="line"/>
      <point x="711.5066666666667" y="989.5133333333333" type="line"/>
      <point x="710.2333333333333" y="974.8733333333333" type="line"/>
    </contour>
    <contour>
      <point x="664.9" y="-23.0" type="line"/>
      <point x="356.6066666666667" y="-15.12"/>
      <point x="52.49333333333333" y="259.0"/>
      <point x="52.49333333333333" y="475.0" type="qcurve" smooth="yes"/>
      <point x="52.49333333333333" y="727.0"/>
      <point x="374.2500325732953" y="1023.0"/>
      <point x="664.9" y="1023.0" type="qcurve"/>
      <point x="664.9" y="947.0" type="line"/>
      <point x="415.13818321786863" y="947.0"/>
      <point x="168.2266666666667" y="709.6666666666666"/>
      <point x="168.2266666666667" y="491.0" type="qcurve" smooth="yes"/>
      <point x="168.2266666666667" y="283.3333333333333"/>
      <point x="412.2133333333333" y="49.66666666666667"/>
      <point x="664.9" y="49.66666666666667" type="qcurve"/>
    </contour>
    <contour>
      <point x="664.9" y="-23.0" type="qcurve"/>
      <point x="664.9" y="49.66666666666667" type="line"/>
      <point x="895.3066666666666" y="49.66666666666667"/>
      <point x="1149.5666666666668" y="292.3333333333333"/>
      <point x="1149.5666666666668" y="515.0" type="qcurve" smooth="yes"/>
      <point x="1149.5666666666668" y="718.0"/>
      <point x="914.5505813097733" y="947.0"/>
      <point x="664.9" y="947.0" type="qcurve"/>
      <point x="664.9" y="1023.0" type="line"/>
      <point x="968.522353109198" y="1015.17514752437"/>
      <point x="1266.6333333333332" y="741.0"/>
      <point x="1266.6333333333332" y="525.0" type="qcurve" smooth="yes"/>
      <point x="1266.6333333333332" y="273.0"/>
      <point x="939.64" y="-23.0"/>
    </contour>
  </outline>
</glyph>
<glyph name="yu" format="2">
  <advance width="1630"/>
  <unicode hex="044E"/>
  <guideline x="302.0" y="625.0" angle="90.0" identifier="jHuxcyi1x5"/>
  <guideline x="953.0" y="554.0" angle="90.0" identifier="b1mHk7wgTR"/>
  <guideline x="627.0" y="553.0" angle="90.0" identifier="m4aYe0x4PZ"/>
  <outline>
    <contour>
      <point x="297.96" y="548.6666666666666" type="line"/>
      <point x="628.1333333333333" y="545.6666666666666" type="line"/>
      <point x="628.1333333333333" y="475.6666666666667" type="line"/>
      <point x="297.96" y="473.6666666666667" type="line"/>
    </contour>
    <contour>
      <point x="245.32" y="500.0" type="line"/>
      <point x="243.32" y="917.0" type="line"/>
      <point x="84.86666666666667" y="946.6666666666666" type="line"/>
      <point x="84.86666666666667" y="1000.0" type="line"/>
      <point x="506.34" y="1000.0" type="line"/>
      <point x="506.34" y="946.6666666666666" type="line"/>
      <point x="352.48" y="917.0" type="line"/>
      <point x="350.6" y="500.0" type="line"/>
      <point x="352.48" y="83.0" type="line"/>
      <point x="505.0066666666666" y="53.333333333333336" type="line"/>
      <point x="505.0066666666666" y="0.0" type="line"/>
      <point x="84.86666666666667" y="0.0" type="line"/>
      <point x="84.86666666666667" y="53.333333333333336" type="line"/>
      <point x="243.32" y="83.0" type="line"/>
    </contour>
    <contour>
      <point x="570.4333333333334" y="500.0" type="qcurve" smooth="yes"/>
      <point x="570.4333333333334" y="717.6"/>
      <point x="842.3733333333333" y="1021.82"/>
      <point x="1065.3866666666668" y="1021.82" type="qcurve" smooth="yes"/>
      <point x="1291.4" y="1021.82"/>
      <point x="1563.92" y="737.6"/>
      <point x="1563.92" y="506.0" type="qcurve" smooth="yes"/>
      <point x="1563.92" y="289.4"/>
      <point x="1294.04" y="-21.7"/>
      <point x="1071.0266666666666" y="-21.7" type="qcurve" smooth="yes"/>
      <point x="846.4066666666666" y="-21.7"/>
      <point x="570.4333333333334" y="266.4"/>
    </contour>
    <contour>
      <point x="685.8333333333334" y="522.0" type="qcurve" smooth="yes"/>
      <point x="686.8333333333334" y="323.06666666666666"/>
      <point x="894.4066666666666" y="49.513333333333335"/>
      <point x="1065.5066666666667" y="49.513333333333335" type="qcurve" smooth="yes"/>
      <point x="1247.64" y="49.513333333333335"/>
      <point x="1445.5466666666669" y="299.06666666666666"/>
      <point x="1445.5466666666669" y="506.6666666666667" type="qcurve" smooth="yes"/>
      <point x="1445.5466666666669" y="697.9333333333334"/>
      <point x="1238.4266666666667" y="943.2733333333334"/>
      <point x="1067.3866666666668" y="943.2733333333334" type="qcurve" smooth="yes"/>
      <point x="881.92" y="943.2733333333334"/>
      <point x="684.8333333333334" y="719.2666666666667"/>
    </contour>
  </outline>
</glyph>
<glyph name="ieukran" format="2">
  <advance width="984"/>
  <unicode hex="0454"/>
  <guideline x="180.0" y="548.0" angle="90.0" identifier="n4jm0tBg3Y"/>
  <outline>
    <contour>
      <point x="123.58666666666667" y="537.3266666666666" type="line"/>
      <point x="630.94" y="540.3266666666666" type="line"/>
      <point x="630.94" y="468.66" type="line"/>
      <point x="123.58666666666667" y="470.66" type="line"/>
    </contour>
    <contour>
      <point x="65.82666666666667" y="487.0133333333333" type="qcurve" smooth="yes"/>
      <point x="65.82666666666667" y="722.4333333333334"/>
      <point x="332.6933333333333" y="1020.4866666666667"/>
      <point x="541.5266666666666" y="1020.4866666666667" type="qcurve" smooth="yes"/>
      <point x="634.6" y="1020.4866666666667"/>
      <point x="758.4533333333334" y="974.7266666666666"/>
      <point x="794.0066666666667" y="936.6666666666666" type="qcurve"/>
      <point x="817.74" y="1008.36" type="line"/>
      <point x="881.96" y="1008.36" type="line"/>
      <point x="888.9266666666666" y="674.42" type="line"/>
      <point x="823.3133333333334" y="674.42" type="line"/>
      <point x="802.1266666666667" y="753.18" type="line" smooth="yes"/>
      <point x="775.8979412520647" y="851.232093154398"/>
      <point x="650.2133333333334" y="945.9733333333334"/>
      <point x="547.44" y="945.9733333333334" type="qcurve" smooth="yes"/>
      <point x="380.1267166979567" y="945.9733333333334"/>
      <point x="180.62" y="722.7133333333334"/>
      <point x="181.2866666666667" y="500.5266666666667" type="qcurve" smooth="yes"/>
      <point x="181.95333333333335" y="286.2666666666667"/>
      <point x="399.97486702727736" y="68.78666666666668"/>
      <point x="578.74" y="68.78666666666668" type="qcurve" smooth="yes"/>
      <point x="684.5866666666666" y="68.78666666666668"/>
      <point x="852.72" y="149.85333333333335"/>
      <point x="908.0933333333334" y="218.18666666666667" type="qcurve"/>
      <point x="942.3066666666666" y="179.15333333333334" type="line"/>
      <point x="888.78" y="93.33333333333333"/>
      <point x="685.1333333333333" y="-21.7"/>
      <point x="541.8" y="-21.7" type="qcurve" smooth="yes"/>
      <point x="335.8533333333333" y="-21.7"/>
      <point x="65.82666666666667" y="245.26666666666665"/>
    </contour>
  </outline>
</glyph>
<glyph name="nje" format="2">
  <advance width="1619"/>
  <unicode hex="045A"/>
  <guideline x="302.0" y="625.0" angle="90.0" identifier="jHuxcyi1x5"/>
  <guideline x="953.0" y="554.0" angle="90.0" identifier="b1mHk7wgTR"/>
  <guideline x="627.0" y="553.0" angle="90.0" identifier="m4aYe0x4PZ"/>
  <guideline x="322.52" y="620.68" angle="0" identifier="rq0U6aqci5"/>
  <outline>
    <contour>
      <point x="297.96" y="581.0266666666666" type="line"/>
      <point x="590.52" y="578.0266666666666" type="line"/>
      <point x="924.9066666666666" y="581.0266666666666" type="line"/>
      <point x="924.9066666666666" y="506.0266666666667" type="line"/>
      <point x="590.52" y="508.0266666666667" type="line"/>
      <point x="297.96" y="506.0266666666667" type="line"/>
    </contour>
    <contour>
      <point x="245.32" y="500.0" type="line"/>
      <point x="243.32" y="917.0" type="line"/>
      <point x="84.86666666666667" y="946.6666666666666" type="line"/>
      <point x="84.86666666666667" y="1000.0" type="line"/>
      <point x="506.34" y="1000.0" type="line"/>
      <point x="506.34" y="946.6666666666666" type="line"/>
      <point x="352.48" y="917.0" type="line"/>
      <point x="350.6" y="500.0" type="line"/>
      <point x="352.48" y="83.0" type="line"/>
      <point x="505.0066666666666" y="53.333333333333336" type="line"/>
      <point x="505.0066666666666" y="0.0" type="line"/>
      <point x="84.86666666666667" y="0.0" type="line"/>
      <point x="84.86666666666667" y="53.333333333333336" type="line"/>
      <point x="243.32" y="83.0" type="line"/>
    </contour>
    <contour>
      <point x="924.9066666666666" y="509.66" type="line"/>
      <point x="924.9066666666666" y="581.0266666666666" type="line"/>
      <point x="1205.7533333333333" y="581.0266666666666" type="line" smooth="yes"/>
      <point x="1387.2333333333333" y="581.0266666666666"/>
      <point x="1574.4733333333334" y="426.36"/>
      <point x="1574.4733333333334" y="293.6333333333333" type="qcurve" smooth="yes"/>
      <point x="1574.4733333333334" y="161.78666666666666"/>
      <point x="1387.2333333333333" y="0.0"/>
      <point x="1205.7533333333333" y="0.0" type="qcurve" smooth="yes"/>
      <point x="716.2866666666666" y="0.0" type="line"/>
      <point x="716.2866666666666" y="53.333333333333336" type="line"/>
      <point x="870.2666666666667" y="83.0" type="line"/>
      <point x="872.2666666666667" y="500.0" type="line"/>
      <point x="870.2666666666667" y="917.0" type="line"/>
      <point x="716.2866666666666" y="946.6666666666666" type="line"/>
      <point x="716.2866666666666" y="1000.0" type="line"/>
      <point x="1136.02" y="1000.0" type="line"/>
      <point x="1136.02" y="946.6666666666666" type="line"/>
      <point x="979.4266666666666" y="917.0" type="line"/>
      <point x="977.5466666666666" y="500.0" type="line"/>
      <point x="979.4266666666666" y="73.36666666666667" type="line"/>
      <point x="1201.0866666666668" y="73.36666666666667" type="line" smooth="yes"/>
      <point x="1346.1066666666668" y="73.36666666666667"/>
      <point x="1454.82" y="198.72666666666666"/>
      <point x="1454.82" y="293.6333333333333" type="qcurve" smooth="yes"/>
      <point x="1454.82" y="387.75333333333333"/>
      <point x="1346.1066666666668" y="509.66"/>
      <point x="1201.0866666666668" y="509.66" type="qcurve" smooth="yes"/>
    </contour>
  </outline>
</glyph>
<glyph name="kabashkircyr" format="2">
  <advance width="1295"/>
  <unicode hex="04A1"/>
  <guideline x="302.0" y="625.0" angle="90.0" identifier="0glbwjr6f1"/>
  <guideline x="953.0" y="554.0" angle="90.0" identifier="41A0uQDzZV"/>
  <guideline x="627.0" y="553.0" angle="90.0" identifier="rA3XBl1QkZ"/>
  <guideline x="241.0" y="553.0" angle="90.0" identifier="UwAftolvUF"/>
  <outline>
    <contour>
      <point x="732.0733333333334" y="484.9" type="line"/>
      <point x="808.8266666666666" y="550.2266666666666" type="line"/>
      <point x="1164.2133333333334" y="83.0" type="line"/>
      <point x="1303.8066666666668" y="53.333333333333336" type="line"/>
      <point x="1303.8066666666668" y="0.0" type="line"/>
      <point x="1028.3" y="0.0" type="line"/>
      <point x="1017.6333333333332" y="49.0" type="line"/>
      <point x="1047.84" y="69.66666666666667" type="line"/>
    </contour>
    <contour>
      <point x="498.4266666666667" y="547.42" type="line"/>
      <point x="739.6466666666666" y="544.42" type="line"/>
      <point x="1020.9133333333333" y="915.3333333333334" type="line"/>
      <point x="878.3733333333333" y="940.0" type="line"/>
      <point x="878.3733333333333" y="1000.0" type="line"/>
      <point x="1274.98" y="1000.0" type="line"/>
      <point x="1274.98" y="940.0" type="line"/>
      <point x="1119.32" y="913.0" type="line"/>
      <point x="807.0733333333334" y="524.2266666666666" type="line"/>
      <point x="764.6133333333333" y="473.6933333333333" type="line"/>
      <point x="498.4266666666667" y="471.75333333333333" type="line"/>
    </contour>
    <contour>
      <point x="705.4733333333334" y="53.333333333333336" type="line"/>
      <point x="705.4733333333334" y="0.0" type="line"/>
      <point x="285.3333333333333" y="0.0" type="line"/>
      <point x="285.3333333333333" y="53.333333333333336" type="line"/>
      <point x="443.7866666666667" y="83.0" type="line"/>
      <point x="445.7866666666667" y="500.0" type="line"/>
      <point x="443.7266666666667" y="925.9666666666666" type="line"/>
      <point x="166.32666666666668" y="925.9666666666666" type="line"/>
      <point x="120.45333333333335" y="714.0" type="line"/>
      <point x="51.53333333333334" y="714.0" type="line"/>
      <point x="51.53333333333334" y="1000.0" type="line"/>
      <point x="706.8066666666666" y="1000.0" type="line"/>
      <point x="706.8066666666666" y="946.6666666666666" type="line"/>
      <point x="552.9466666666666" y="917.0" type="line"/>
      <point x="551.0666666666666" y="500.0" type="line"/>
      <point x="552.9466666666666" y="83.0" type="line"/>
    </contour>
  </outline>
</glyph>
<glyph name="endescender" format="2">
  <advance width="1262"/>
  <unicode hex="04A3"/>
  <guideline x="302.0" y="625.0" angle="90.0" identifier="jHuxcyi1x5"/>
  <guideline x="953.0" y="554.0" angle="90.0" identifier="b1mHk7wgTR"/>
  <guideline x="627.0" y="553.0" angle="90.0" identifier="m4aYe0x4PZ"/>
  <outline>
    <contour>
      <point x="297.96" y="548.6666666666666" type="line"/>
      <point x="630.52" y="545.6666666666666" type="line"/>
      <point x="965.6266666666667" y="548.6666666666666" type="line"/>
      <point x="965.6266666666667" y="473.6666666666667" type="line"/>
      <point x="630.52" y="475.6666666666667" type="line"/>
      <point x="297.96" y="473.6666666666667" type="line"/>
    </contour>
    <contour>
      <point x="245.32" y="500.0" type="line"/>
      <point x="243.32" y="917.0" type="line"/>
      <point x="84.86666666666667" y="946.6666666666666" type="line"/>
      <point x="84.86666666666667" y="1000.0" type="line"/>
      <point x="506.34" y="1000.0" type="line"/>
      <point x="506.34" y="946.6666666666666" type="line"/>
      <point x="352.48" y="917.0" type="line"/>
      <point x="350.6" y="500.0" type="line"/>
      <point x="352.48" y="83.0" type="line"/>
      <point x="505.0066666666666" y="53.333333333333336" type="line"/>
      <point x="505.0066666666666" y="0.0" type="line"/>
      <point x="84.86666666666667" y="0.0" type="line"/>
      <point x="84.86666666666667" y="53.333333333333336" type="line"/>
      <point x="243.32" y="83.0" type="line"/>
    </contour>
    <contour>
      <point x="1020.2666666666668" y="73.36666666666667" type="line"/>
      <point x="1190.0" y="73.36666666666667" type="line"/>
      <point x="1200.0" y="-318.0" type="line"/>
      <point x="1133.2666666666667" y="-318.0" type="line"/>
      <point x="1067.1133333333332" y="0.0" type="line"/>
      <point x="758.58" y="0.0" type="line"/>
      <point x="758.58" y="53.333333333333336" type="line"/>
      <point x="911.1066666666667" y="83.0" type="line"/>
      <point x="912.9866666666667" y="500.0" type="line"/>
      <point x="911.1066666666667" y="917.0" type="line"/>
      <point x="757.2466666666667" y="946.6666666666666" type="line"/>
      <point x="757.2466666666667" y="1000.0" type="line"/>
      <point x="1178.72" y="1000.0" type="line"/>
      <point x="1178.72" y="946.6666666666666" type="line"/>
      <point x="1020.2666666666668" y="917.0" type="line"/>
      <point x="1018.2666666666668" y="500.0" type="line"/>
    </contour>
  </outline>
</glyph>
<glyph name="Shha" format="2">
  <advance width="1623"/>
  <unicode hex="04BA"/>
  <outline>
    <contour>
      <point x="633.24" y="1500.0" type="line"/>
      <point x="633.24" y="1434.9066666666668" type="line"/>
      <point x="414.3066666666667" y="1399.9066666666668" type="line"/>
      <point x="412.3066666666667" y="740.5333333333334" type="line"/>
      <point x="414.3066666666667" y="102.31333333333335" type="line"/>
      <point x="638.7066666666666" y="68.25333333333334" type="line"/>
      <point x="638.7066666666666" y="0.0" type="line"/>
      <point x="83.24" y="0.0" type="line"/>
      <point x="83.24" y="68.25333333333334" type="line"/>
      <point x="301.5733333333333" y="102.31333333333335" type="line"/>
      <point x="303.5733333333333" y="746.0" type="line"/>
      <point x="301.5733333333333" y="1399.9066666666668" type="line"/>
      <point x="83.24" y="1434.9066666666668" type="line"/>
      <point x="83.24" y="1500.0" type="line"/>
    </contour>
    <contour>
      <point x="1568.0066666666667" y="68.25333333333334" type="line"/>
      <point x="1568.0066666666667" y="0.0" type="line"/>
      <point x="1012.54" y="0.0" type="line"/>
      <point x="1012.54" y="68.25333333333334" type="line"/>
      <point x="1236.6666666666667" y="102.31333333333335" type="line"/>
      <point x="1237.6666666666667" y="431.4" type="line" smooth="yes"/>
      <point x="1238.6066666666668" y="634.3133333333334"/>
      <point x="1025.8533333333332" y="796.0"/>
      <point x="791.5533333333334" y="796.0" type="qcurve" smooth="yes"/>
      <point x="670.7778351783534" y="796.0"/>
      <point x="461.0114024694733" y="759.825235611318"/>
      <point x="357.94" y="723.56" type="qcurve"/>
      <point x="357.94" y="802.3866666666667" type="line"/>
      <point x="461.681494137518" y="838.925758105658"/>
      <point x="675.0024666666666" y="876.8266666666666"/>
      <point x="832.7733333333334" y="876.8266666666666" type="qcurve" smooth="yes"/>
      <point x="1080.36" y="876.8266666666666"/>
      <point x="1348.22" y="677.6333333333333"/>
      <point x="1348.9466666666667" y="424.4" type="qcurve" smooth="yes"/>
      <point x="1349.6733333333332" y="102.31333333333335" type="line"/>
    </contour>
  </outline>
</glyph>
<glyph name="Obarcyr" format="2">
  <advance width="1630"/>
  <unicode hex="04E8"/>
  <outline>
    <contour>
      <point x="139.56" y="730.02" type="line"/>
      <point x="139.56" y="815.1133333333333" type="line"/>
      <point x="817.2" y="807.1133333333333" type="line"/>
      <point x="1490.18" y="815.1133333333333" type="line"/>
      <point x="1490.18" y="729.3533333333334" type="line"/>
      <point x="817.2" y="729.3533333333334" type="line"/>
    </contour>
    <contour>
      <point x="82.37333333333333" y="737.24" type="qcurve" smooth="yes"/>
      <point x="82.37333333333333" y="1068.12"/>
      <point x="485.16" y="1520.0"/>
      <point x="814.9" y="1520.0" type="qcurve" smooth="yes"/>
      <point x="1144.64" y="1520.0"/>
      <point x="1547.3666666666668" y="1097.12"/>
      <point x="1547.3666666666668" y="752.24" type="qcurve" smooth="yes"/>
      <point x="1547.3666666666668" y="423.36"/>
      <point x="1148.58" y="-30.46"/>
      <point x="818.78" y="-30.46" type="qcurve" smooth="yes"/>
      <point x="496.86" y="-30.46"/>
      <point x="82.37333333333333" y="396.42"/>
    </contour>
    <contour>
      <point x="196.7466666666667" y="776.5733333333334" type="qcurve" smooth="yes"/>
      <point x="196.7466666666667" y="461.0266666666667"/>
      <point x="540.9763061446628" y="56.14666666666667"/>
      <point x="818.84" y="56.14666666666667" type="qcurve" smooth="yes"/>
      <point x="1112.149597730108" y="56.14666666666667"/>
      <point x="1432.9933333333333" y="422.36"/>
      <point x="1432.9933333333333" y="747.9066666666666" type="qcurve" smooth="yes"/>
      <point x="1432.9933333333333" y="1043.5133333333333"/>
      <point x="1099.32991656683" y="1430.7266666666667"/>
      <point x="818.84" y="1430.7266666666667" type="qcurve" smooth="yes"/>
      <point x="523.1898643305353" y="1430.7266666666667"/>
      <point x="196.7466666666667" y="1072.5133333333333"/>
    </contour>
  </outline>
</glyph>
<glyph name="Germandbls" format="2">
  <advance width="1439"/>
  <unicode hex="1E9E"/>
  <outline>
    <contour>
      <point x="153.84" y="726.6666666666666" type="line"/>
      <point x="151.84" y="1038.6666666666667" type="line" smooth="yes"/>
      <point x="150.23333333333335" y="1281.6666666666667"/>
      <point x="379.3866666666667" y="1522.0"/>
      <point x="571.0466666666666" y="1522.0" type="qcurve" smooth="yes"/>
      <point x="680.7266666666666" y="1522.0"/>
      <point x="847.9266666666666" y="1506.0"/>
      <point x="933.8466666666666" y="1500.0" type="qcurve"/>
      <point x="935.8466666666666" y="1432.6666666666667" type="line"/>
      <point x="809.1666666666666" y="1427.3333333333333"/>
      <point x="661.1866666666666" y="1277.0"/>
      <point x="661.1866666666666" y="1171.0" type="qcurve" smooth="yes"/>
      <point x="661.1866666666666" y="1057.0"/>
      <point x="798.22" y="927.7333333333333"/>
      <point x="982.9066666666666" y="849.3333333333334" type="qcurve" smooth="yes"/>
      <point x="1171.9133333333332" y="769.0"/>
      <point x="1351.14" y="569.2666666666667"/>
      <point x="1351.14" y="403.06666666666666" type="qcurve" smooth="yes"/>
      <point x="1351.14" y="210.06666666666666"/>
      <point x="1103.8" y="-20.0"/>
      <point x="927.3266666666666" y="-20.0" type="qcurve" smooth="yes"/>
      <point x="801.1466666666666" y="-20.0"/>
      <point x="624.9066666666666" y="53.04"/>
      <point x="567.4" y="115.8" type="qcurve"/>
      <point x="521.36" y="0.0" type="line"/>
      <point x="465.1066666666667" y="0.0" type="line"/>
      <point x="465.1066666666667" y="484.0" type="line"/>
      <point x="533.42" y="484.0" type="line"/>
      <point x="557.7266666666666" y="339.6666666666667" type="line" smooth="yes"/>
      <point x="581.3066666666666" y="196.0"/>
      <point x="765.94" y="59.333333333333336"/>
      <point x="906.9066666666666" y="59.333333333333336" type="qcurve" smooth="yes"/>
      <point x="1059.9666666666667" y="59.333333333333336"/>
      <point x="1243.9733333333334" y="236.0"/>
      <point x="1243.9733333333334" y="381.6666666666667" type="qcurve" smooth="yes"/>
      <point x="1243.9733333333334" y="516.0466666666666"/>
      <point x="1114.7666666666667" y="679.9333333333334"/>
      <point x="923.8066666666666" y="757.0" type="qcurve" smooth="yes"/>
      <point x="744.8266666666666" y="829.4866666666667"/>
      <point x="558.2733333333334" y="997.6666666666666"/>
      <point x="558.2733333333334" y="1147.3333333333333" type="qcurve" smooth="yes"/>
      <point x="558.2733333333334" y="1234.3333333333333"/>
      <point x="640.9666666666666" y="1383.0"/>
      <point x="718.96" y="1428.6666666666667" type="qcurve"/>
      <point x="566.9533333333334" y="1429.3333333333333" type="line" smooth="yes"/>
      <point x="416.8466666666667" y="1430.0"/>
      <point x="265.5733333333334" y="1241.0"/>
      <point x="264.5133333333334" y="1032.3333333333333" type="qcurve" smooth="yes"/>
      <point x="262.5733333333334" y="726.6666666666666" type="line"/>
      <point x="264.5133333333334" y="-395.26" type="line"/>
      <point x="482.18666666666667" y="-429.2" type="line"/>
      <point x="482.18666666666667" y="-494.5333333333333" type="line"/>
      <point x="-50.666666666666664" y="-494.5333333333333" type="line"/>
      <point x="-50.666666666666664" y="-429.2" type="line"/>
      <point x="151.84" y="-393.8933333333333" type="line"/>
    </contour>
  </outline>
</glyph>
<glyph name="emdash" format="2">
  <advance width="2049"/>
  <unicode hex="2014"/>
  <outline>
    <contour>
      <point x="256.0" y="585.3333333333334" type="line"/>
      <point x="256.0" y="680.0" type="line"/>
      <point x="1026.6666666666667" y="682.0" type="line"/>
      <point x="1792.6666666666667" y="680.0" type="line"/>
      <point x="1792.6666666666667" y="585.3333333333334" type="line"/>
      <point x="1026.6666666666667" y="579.3333333333334" type="line"/>
    </contour>
  </outline>
</glyph>
<glyph name="quoteright" format="2">
  <advance width="565"/>
  <unicode hex="2019"/>
  <outline>
    <contour>
      <point x="178.79333333333335" y="1145.6666666666667" type="line"/>
      <point x="221.4" y="1179.5466666666669"/>
      <point x="300.44" y="1277.86"/>
      <point x="315.9866666666667" y="1336.8666666666668" type="qcurve"/>
      <point x="253.5266666666667" y="1331.1066666666668"/>
      <point x="191.76" y="1388.72"/>
      <point x="191.76" y="1434.0266666666666" type="qcurve" smooth="yes"/>
      <point x="191.76" y="1478.3333333333333"/>
      <point x="251.61333333333334" y="1538.0"/>
      <point x="298.1333333333333" y="1538.0" type="qcurve" smooth="yes"/>
      <point x="342.1066666666667" y="1538.0"/>
      <point x="407.5733333333333" y="1473.68"/>
      <point x="407.5733333333333" y="1417.8266666666668" type="qcurve" smooth="yes"/>
      <point x="407.5733333333333" y="1324.6066666666668"/>
      <point x="283.8333333333333" y="1163.3933333333332"/>
      <point x="202.58" y="1115.94" type="qcurve"/>
    </contour>
  </outline>
</glyph>
<glyph name="quotedblleft" format="2">
  <advance width="903"/>
  <unicode hex="201C"/>
  <outline>
    <contour>
      <point x="411.12666666666667" y="1517.4" type="line"/>
      <point x="368.52" y="1483.52"/>
      <point x="289.48" y="1385.2066666666667"/>
      <point x="273.93333333333334" y="1326.2" type="qcurve"/>
      <point x="336.3933333333333" y="1331.96"/>
      <point x="398.16" y="1274.3466666666668"/>
      <point x="398.16" y="1229.04" type="qcurve" smooth="yes"/>
      <point x="398.16" y="1184.7333333333333"/>
      <point x="338.3066666666667" y="1125.34"/>
      <point x="291.7866666666667" y="1125.34" type="qcurve" smooth="yes"/>
      <point x="247.81333333333333" y="1125.34"/>
      <point x="182.34666666666666" y="1189.3866666666668"/>
      <point x="182.34666666666666" y="1245.24" type="qcurve" smooth="yes"/>
      <point x="182.34666666666666" y="1338.46"/>
      <point x="306.0866666666667" y="1499.6733333333332"/>
      <point x="387.34" y="1547.1266666666668" type="qcurve"/>
    </contour>
    <contour>
      <point x="748.94" y="1517.4" type="line"/>
      <point x="706.3333333333334" y="1483.52"/>
      <point x="627.2933333333334" y="1385.2066666666667"/>
      <point x="611.7466666666667" y="1326.2" type="qcurve"/>
      <point x="674.2066666666667" y="1331.96"/>
      <point x="735.9733333333334" y="1274.3466666666668"/>
      <point x="735.9733333333334" y="1229.04" type="qcurve" smooth="yes"/>
      <point x="735.9733333333334" y="1184.7333333333333"/>
      <point x="676.12" y="1125.34"/>
      <point x="629.6" y="1125.34" type="qcurve" smooth="yes"/>
      <point x="585.6266666666667" y="1125.34"/>
      <point x="520.16" y="1189.3866666666668"/>
      <point x="520.16" y="1245.24" type="qcurve" smooth="yes"/>
      <point x="520.16" y="1338.46"/>
      <point x="643.9" y="1499.6733333333332"/>
      <point x="725.1533333333334" y="1547.1266666666668" type="qcurve"/>
    </contour>
  </outline>
</glyph>
<glyph name="daggerdbl" format="2">
  <advance width="955"/>
  <unicode hex="2021"/>
  <outline>
    <contour>
      <point x="469.28" y="-540.0" type="line"/>
      <point x="414.6133333333333" y="-58.0" type="line"/>
      <point x="431.94666666666666" y="550.0" type="line"/>
      <point x="429.94666666666666" y="830.0" type="line"/>
      <point x="411.28" y="1458.0" type="line"/>
      <point x="436.6133333333333" y="1505.0" type="line"/>
      <point x="511.28" y="1506.0" type="line"/>
      <point x="533.9466666666666" y="1458.0" type="line"/>
      <point x="516.6133333333333" y="830.0" type="line"/>
      <point x="518.6133333333333" y="550.0" type="line"/>
      <point x="533.9466666666666" y="-58.0" type="line"/>
      <point x="489.28" y="-540.0" type="line"/>
    </contour>
    <contour>
      <point x="74.68" y="877.9333333333334" type="line"/>
      <point x="74.68" y="974.6666666666666" type="line"/>
      <point x="475.28" y="966.6666666666666" type="line"/>
      <point x="879.2133333333334" y="974.6666666666666" type="line"/>
      <point x="879.2133333333334" y="877.9333333333334" type="line"/>
      <point x="475.28" y="882.1133333333333" type="line"/>
    </contour>
    <contour>
      <point x="76.01333333333334" y="448.2666666666667" type="line"/>
      <point x="76.01333333333334" y="545.0" type="line"/>
      <point x="476.6133333333333" y="537.0" type="line"/>
      <point x="880.5466666666666" y="545.0" type="line"/>
      <point x="880.5466666666666" y="448.2666666666667" type="line"/>
      <point x="476.6133333333333" y="452.44666666666666" type="line"/>
    </contour>
  </outline>
</glyph>
<glyph name="naira" format="2">
  <advance width="1500"/>
  <unicode hex="20A6"/>
  <outline>
    <contour>
      <point x="93.90666666666667" y="0.0" type="line"/>
      <point x="93.90666666666667" y="65.09333333333335" type="line"/>
      <point x="290.18666666666667" y="95.36666666666667" type="line"/>
      <point x="292.12666666666667" y="753.3333333333334" type="line"/>
      <point x="290.18666666666667" y="1400.36" type="line"/>
      <point x="93.90666666666667" y="1431.0266666666666" type="line"/>
      <point x="93.90666666666667" y="1500.0" type="line"/>
      <point x="438.1466666666667" y="1500.0" type="line"/>
      <point x="813.2266666666666" y="820.3333333333334" type="line"/>
      <point x="1162.3933333333332" y="199.29333333333335" type="line"/>
      <point x="1163.7866666666666" y="752.0" type="line"/>
      <point x="1159.1466666666668" y="1400.36" type="line"/>
      <point x="933.16" y="1431.0266666666666" type="line"/>
      <point x="933.16" y="1500.0" type="line"/>
      <point x="1445.1266666666668" y="1500.0" type="line"/>
      <point x="1445.1266666666668" y="1431.0266666666666" type="line"/>
      <point x="1246.9066666666668" y="1400.36" type="line"/>
      <point x="1244.9066666666668" y="753.3333333333334" type="line"/>
      <point x="1244.3" y="-2.9066666666666663" type="line"/>
      <point x="1155.1466666666668" y="-2.9066666666666663" type="line"/>
      <point x="723.7533333333333" y="773.2333333333333" type="line"/>
      <point x="376.6133333333333" y="1384.6666666666667" type="line"/>
      <point x="373.24666666666667" y="754.6666666666666" type="line"/>
      <point x="378.6133333333333" y="95.36666666666667" type="line"/>
      <point x="597.3866666666667" y="65.09333333333335" type="line"/>
      <point x="597.3866666666667" y="0.0" type="line"/>
    </contour>
    <contour>
      <point x="1430.4" y="586.6933333333334" type="line"/>
      <point x="1199.2666666666667" y="586.6933333333334" type="line"/>
      <point x="1199.2666666666667" y="592.1466666666666" type="line"/>
      <point x="892.8466666666666" y="592.1466666666666" type="line"/>
      <point x="843.9333333333334" y="669.3333333333334" type="line"/>
      <point x="1199.9333333333332" y="669.3333333333334" type="line"/>
      <point x="1199.9333333333332" y="674.0333333333334" type="line"/>
      <point x="1399.7333333333333" y="674.0333333333334" type="line"/>
    </contour>
    <contour>
      <point x="106.06666666666666" y="586.7533333333333" type="line"/>
      <point x="81.06666666666666" y="674.0333333333334" type="line"/>
      <point x="340.7333333333333" y="674.0333333333334" type="line"/>
      <point x="340.7333333333333" y="669.6066666666667" type="line"/>
      <point x="843.9333333333334" y="669.6066666666667" type="line"/>
      <point x="894.3" y="589.9666666666666" type="line"/>
      <point x="339.4" y="589.9666666666666" type="line"/>
      <point x="339.4" y="586.7533333333333" type="line"/>
    </contour>
    <contour>
      <point x="1430.4" y="897.3" type="line"/>
      <point x="1199.2666666666667" y="897.3" type="line"/>
      <point x="1199.2666666666667" y="900.6666666666666" type="line"/>
      <point x="722.9333333333334" y="900.6666666666666" type="line"/>
      <point x="672.2666666666667" y="980.6666666666666" type="line"/>
      <point x="1199.9333333333332" y="980.6666666666666" type="line"/>
      <point x="1199.9333333333332" y="984.7" type="line"/>
      <point x="1399.7333333333333" y="984.7" type="line"/>
    </contour>
    <contour>
      <point x="106.06666666666666" y="897.3" type="line"/>
      <point x="81.06666666666666" y="984.7" type="line"/>
      <point x="340.7333333333333" y="984.7" type="line"/>
      <point x="340.7333333333333" y="978.6666666666666" type="line"/>
      <point x="673.6" y="978.6666666666666" type="line"/>
      <point x="722.9333333333334" y="901.0" type="line"/>
      <point x="339.4" y="901.0" type="line"/>
      <point x="339.4" y="897.3" type="line"/>
    </contour>
  </outline>
</glyph>
<glyph name="manat" format="2">
  <advance width="1324"/>
  <unicode hex="20BC"/>
  <outline>
    <contour>
      <point x="1310.5" y="68.56" type="line"/>
      <point x="1310.5" y="0.0" type="line"/>
      <point x="856.6333333333333" y="0.0" type="line"/>
      <point x="856.6333333333333" y="68.56" type="line"/>
      <point x="1031.2333333333333" y="98.62" type="line"/>
      <point x="1036.2333333333333" y="506.0" type="line"/>
      <point x="1032.2333333333333" y="984.0" type="line" smooth="yes"/>
      <point x="1030.2333333333333" y="1176.0"/>
      <point x="831.8666666666667" y="1344.6"/>
      <point x="654.0666666666666" y="1344.6" type="qcurve" smooth="yes"/>
      <point x="494.2666666666667" y="1344.6"/>
      <point x="288.93333333333334" y="1161.0"/>
      <point x="287.6" y="964.0" type="qcurve" smooth="yes"/>
      <point x="285.6" y="506.0" type="line"/>
      <point x="287.6" y="98.62" type="line"/>
      <point x="479.8666666666667" y="68.56" type="line"/>
      <point x="479.8666666666667" y="0.0" type="line"/>
      <point x="12.8" y="0.0" type="line"/>
      <point x="12.8" y="68.56" type="line"/>
      <point x="189.6" y="98.62" type="line"/>
      <point x="191.6" y="506.0" type="line"/>
      <point x="189.26666666666665" y="907.0" type="line" smooth="yes"/>
      <point x="187.93333333333334" y="1167.0"/>
      <point x="430.6666666666667" y="1431.0"/>
      <point x="662.4" y="1431.0" type="qcurve" smooth="yes"/>
      <point x="907.4666666666666" y="1431.0"/>
      <point x="1144.6133333333332" y="1178.0"/>
      <point x="1143.7" y="939.0" type="qcurve" smooth="yes"/>
      <point x="1141.7" y="506.0" type="line"/>
      <point x="1143.7" y="98.62" type="line"/>
    </contour>
    <contour>
      <point x="606.7" y="260.6" type="line"/>
      <point x="616.7333333333333" y="662.0" type="line"/>
      <point x="618.0666666666666" y="1350.0" type="line"/>
      <point x="600.0333333333334" y="1536.9066666666668" type="line"/>
      <point x="719.8" y="1600.0" type="line"/>
      <point x="702.1" y="1350.0" type="line"/>
      <point x="704.7666666666667" y="762.0" type="line"/>
      <point x="719.8" y="323.3333333333333" type="line"/>
    </contour>
  </outline>
</glyph>
<glyph name="ruble" format="2">
  <advance width="1227"/>
  <unicode hex="20BD"/>
  <outline>
    <contour>
      <point x="73.58" y="0.0" type="line"/>
      <point x="73.58" y="65.09333333333335" type="line"/>
      <point x="298.44666666666666" y="94.60666666666667" type="line"/>
      <point x="300.44666666666666" y="759.3333333333334" type="line"/>
      <point x="299.1133333333333" y="1400.36" type="line"/>
      <point x="85.58" y="1431.0266666666666" type="line"/>
      <point x="85.58" y="1500.0" type="line"/>
      <point x="682.66" y="1500.0" type="line" smooth="yes"/>
      <point x="913.1933333333334" y="1500.0"/>
      <point x="1162.7933333333333" y="1286.7333333333333"/>
      <point x="1162.7933333333333" y="1083.4" type="qcurve" smooth="yes"/>
      <point x="1162.7933333333333" y="878.7333333333333"/>
      <point x="891.46" y="610.0"/>
      <point x="632.9933333333333" y="610.0" type="qcurve" smooth="yes"/>
      <point x="446.3266666666667" y="610.0"/>
      <point x="200.06" y="663.1866666666666"/>
      <point x="128.66" y="694.3333333333334" type="qcurve"/>
      <point x="134.32666666666665" y="769.6666666666666" type="line"/>
      <point x="210.14666666666665" y="737.4"/>
      <point x="451.5933333333333" y="688.6666666666666"/>
      <point x="630.26" y="688.6666666666666" type="qcurve" smooth="yes"/>
      <point x="826.7266666666666" y="688.6666666666666"/>
      <point x="1046.1266666666668" y="892.0"/>
      <point x="1046.1266666666668" y="1079.3333333333333" type="qcurve" smooth="yes"/>
      <point x="1046.1266666666668" y="1251.0"/>
      <point x="834.7266666666666" y="1421.3333333333333"/>
      <point x="653.26" y="1421.3333333333333" type="qcurve" smooth="yes"/>
      <point x="444.4866666666667" y="1421.3333333333333" type="line"/>
      <point x="410.7266666666667" y="1400.7866666666666" type="line"/>
      <point x="408.3933333333333" y="765.3333333333334" type="line"/>
      <point x="410.3933333333333" y="93.18" type="line"/>
      <point x="654.5933333333334" y="65.09333333333335" type="line"/>
      <point x="654.5933333333334" y="0.0" type="line"/>
    </contour>
    <contour>
      <point x="109.66" y="369.0" type="line"/>
      <point x="96.99333333333333" y="431.6666666666667" type="line"/>
      <point x="857.7266666666666" y="431.6666666666667" type="line"/>
      <point x="836.7266666666666" y="342.6333333333333" type="line"/>
    </contour>
  </outline>
</glyph>
<glyph name="approxequal" format="2">
  <advance width="1012"/>
  <unicode hex="2248"/>
  <outline>
    <contour>
      <point x="62.666666666666664" y="742.22" type="line"/>
      <point x="119.28" y="816.68"/>
      <point x="263.7866666666667" y="910.9866666666667"/>
      <point x="350.7066666666667" y="910.9866666666667" type="qcurve"/>
      <point x="689.5666666666666" y="781.4333333333334" type="line"/>
      <point x="748.8466666666666" y="781.4333333333334"/>
      <point x="859.7666666666667" y="861.9266666666666"/>
      <point x="892.3466666666666" y="915.6266666666667" type="qcurve"/>
      <point x="945.9333333333334" y="881.9266666666666" type="line"/>
      <point x="901.8666666666667" y="797.2533333333333"/>
      <point x="756.2733333333334" y="687.0933333333334"/>
      <point x="652.56" y="687.0933333333334" type="qcurve"/>
      <point x="323.06666666666666" y="813.3133333333334" type="line"/>
      <point x="262.7866666666667" y="813.3133333333334"/>
      <point x="157.5" y="755.0066666666667"/>
      <point x="105.16" y="701.3066666666666" type="qcurve"/>
    </contour>
    <contour>
      <point x="62.666666666666664" y="379.8333333333333" type="line"/>
      <point x="119.28" y="454.2933333333333"/>
      <point x="263.7866666666667" y="548.3"/>
      <point x="350.7066666666667" y="548.3" type="qcurve"/>
      <point x="689.5666666666666" y="418.74666666666667" type="line"/>
      <point x="748.8466666666666" y="418.74666666666667"/>
      <point x="859.7666666666667" y="499.54"/>
      <point x="892.3466666666666" y="553.24" type="qcurve"/>
      <point x="945.9333333333334" y="519.54" type="line"/>
      <point x="901.8666666666667" y="434.8666666666667"/>
      <point x="756.2733333333334" y="324.4066666666667"/>
      <point x="652.56" y="324.4066666666667" type="qcurve"/>
      <point x="323.06666666666666" y="450.62666666666667" type="line"/>
      <point x="262.7866666666667" y="450.62666666666667"/>
      <point x="157.5" y="392.62"/>
      <point x="105.16" y="338.92" type="qcurve"/>
    </contour>
  </outline>
</glyph>
<glyph name="rightanglebracket" format="2">
  <advance width="941"/>
  <unicode hex="27E9"/>
  <outline>
    <contour>
      <point x="48.006666666666675" y="-159.48666666666665" type="line"/>
      <point x="1.22" y="-110.04" type="line"/>
      <point x="806.2866666666666" y="690.04" type="line"/>
      <point x="1.58" y="1453.6266666666668" type="line"/>
      <point x="52.38" y="1503.3333333333333" type="line"/>
      <point x="915.2866666666666" y="732.7866666666666" type="line"/>
      <point x="915.2866666666666" y="645.3866666666667" type="line"/>
    </contour>
  </outline>
</glyph>
<glyph name="f_f_i" format="2">
  <advance width="1783"/>
  <unicode hex="FB03"/>
  <outline>
    <contour>
      <point x="51.333333333333336" y="0.0" type="line"/>
      <point x="51.333333333333336" y="53.333333333333336" type="line"/>
      <point x="243.0" y="83.0" type="line"/>
      <point x="247.0" y="527.0" type="line"/>
      <point x="246.0" y="899.1466666666666" type="line"/>
      <point x="64.85333333333332" y="914.06" type="line"/>
      <point x="59.03333333333334" y="974.0" type="line"/>
      <point x="247.33333333333334" y="988.6666666666666" type="line"/>
      <point x="247.88" y="1251.7866666666666" type="line" smooth="yes"/>
      <point x="248.76" y="1361.2933333333333"/>
      <point x="377.26" y="1483.8733333333332"/>
      <point x="464.2266666666667" y="1483.8733333333332" type="qcurve" smooth="yes"/>
      <point x="502.5333333333333" y="1483.8733333333332"/>
      <point x="575.18" y="1464.36"/>
      <point x="600.6666666666666" y="1449.2733333333333" type="qcurve" smooth="yes"/>
      <point x="614.7933333333334" y="1441.82" type="line"/>
      <point x="602.1266666666667" y="1375.7266666666667" type="line"/>
      <point x="587.7866666666666" y="1380.94" type="line" smooth="yes"/>
      <point x="570.0266666666666" y="1387.94"/>
      <point x="518.5133333333333" y="1398.12"/>
      <point x="488.24" y="1398.12" type="qcurve" smooth="yes"/>
      <point x="419.14" y="1398.12"/>
      <point x="349.3066666666667" y="1312.2933333333333"/>
      <point x="349.58" y="1234.84" type="qcurve" smooth="yes"/>
      <point x="350.12666666666667" y="984.7266666666666" type="line"/>
      <point x="838.2066666666666" y="984.7266666666666" type="line"/>
      <point x="838.42" y="1252.7733333333333" type="line" smooth="yes"/>
      <point x="838.9666666666666" y="1382.4666666666667"/>
      <point x="985.0666666666666" y="1512.1333333333332"/>
      <point x="1087.3666666666668" y="1511.86" type="qcurve" smooth="yes"/>
      <point x="1133.82" y="1511.5866666666668"/>
      <point x="1216.2066666666667" y="1487.6066666666668"/>
      <point x="1240.42" y="1471.18" type="qcurve" smooth="yes"/>
      <point x="1253.6666666666667" y="1462.6933333333332" type="line"/>
      <point x="1241.0" y="1396.54" type="line"/>
      <point x="1225.84" y="1402.7266666666667" type="line" smooth="yes"/>
      <point x="1204.5266666666666" y="1411.52"/>
      <point x="1135.9133333333332" y="1428.26"/>
      <point x="1101.2933333333333" y="1428.26" type="qcurve" smooth="yes"/>
      <point x="1024.0533333333333" y="1428.26"/>
      <point x="940.12" y="1334.32"/>
      <point x="940.3933333333333" y="1235.2266666666667" type="qcurve" smooth="yes"/>
      <point x="940.94" y="985.0" type="line"/>
      <point x="1501.1" y="999.52" type="line"/>
      <point x="1527.4333333333332" y="998.1866666666666" type="line"/>
      <point x="1542.4333333333332" y="969.4866666666667" type="line"/>
      <point x="1538.1" y="527.0" type="line"/>
      <point x="1543.4333333333332" y="83.0" type="line"/>
      <point x="1724.44" y="54.66666666666667" type="line"/>
      <point x="1724.44" y="0.0" type="line"/>
      <point x="1247.88" y="0.0" type="line"/>
      <point x="1247.88" y="54.66666666666667" type="line"/>
      <point x="1432.1533333333332" y="83.0" type="line"/>
      <point x="1434.1533333333332" y="527.0" type="line"/>
      <point x="1430.12" y="900.4266666666666" type="line"/>
      <point x="1413.24" y="914.0933333333334" type="line"/>
      <point x="940.94" y="907.4533333333334" type="line"/>
      <point x="941.0" y="527.0" type="line"/>
      <point x="947.9133333333334" y="83.0" type="line"/>
      <point x="1133.9733333333334" y="53.333333333333336" type="line"/>
      <point x="1133.9733333333334" y="0.0" type="line"/>
      <point x="647.9733333333334" y="0.0" type="line"/>
      <point x="647.9733333333334" y="53.333333333333336" type="line"/>
      <point x="833.8733333333333" y="83.0" type="line"/>
      <point x="837.8733333333333" y="527.0" type="line"/>
      <point x="836.8733333333333" y="903.8133333333334" type="line"/>
      <point x="350.12666666666667" y="908.82" type="line"/>
      <point x="350.12666666666667" y="527.0" type="line"/>
      <point x="357.04" y="83.0" type="line"/>
      <point x="539.8266666666666" y="53.333333333333336" type="line"/>
      <point x="539.8266666666666" y="0.0" type="line"/>
    </contour>
    <contour>
      <point x="1378.46" y="1324.28" type="qcurve" smooth="yes"/>
      <point x="1378.46" y="1368.2533333333333"/>
      <point x="1425.04" y="1415.8333333333333"/>
      <point x="1469.0133333333333" y="1415.8333333333333" type="qcurve" smooth="yes"/>
      <point x="1509.6533333333332" y="1415.8333333333333"/>
      <point x="1559.5666666666668" y="1365.5866666666668"/>
      <point x="1559.5666666666668" y="1324.28" type="qcurve" smooth="yes"/>
      <point x="1559.5666666666668" y="1280.9733333333334"/>
      <point x="1511.6533333333332" y="1233.3333333333333"/>
      <point x="1469.0133333333333" y="1233.3333333333333" type="qcurve" smooth="yes"/>
      <point x="1427.7066666666667" y="1233.3333333333333"/>
      <point x="1378.46" y="1283.58"/>
    </contour>
  </outline>
</glyph>
<glyph name="El.bgr" format="2">
  <advance width="1438"/>
  <outline>
    <contour>
      <point x="1469.9666666666667" y="68.25333333333334" type="line"/>
      <point x="1469.9666666666667" y="0.0" type="line"/>
      <point x="939.8933333333333" y="0.0" type="line"/>
      <point x="939.8933333333333" y="68.25333333333334" type="line"/>
      <point x="1147.92" y="104.16666666666667" type="line"/>
      <point x="931.7066666666666" y="705.1" type="line"/>
      <point x="696.9" y="1359.2933333333333" type="line"/>
      <point x="460.3066666666667" y="692.8533333333334" type="line"/>
      <point x="253.73333333333335" y="102.25333333333334" type="line"/>
      <point x="463.5" y="68.25333333333334" type="line"/>
      <point x="463.5" y="0.0" type="line"/>
      <point x="-37.733333333333334" y="0.0" type="line"/>
      <point x="-37.733333333333334" y="68.25333333333334" type="line"/>
      <point x="157.93333333333334" y="103.68" type="line"/>
      <point x="380.4866666666667" y="724.1133333333333" type="line"/>
      <point x="661.54" y="1507.3333333333333" type="line"/>
      <point x="760.0266666666666" y="1507.3333333333333" type="line"/>
      <point x="1037.7733333333333" y="740.42" type="line"/>
      <point x="1271.6333333333332" y="103.62" type="line"/>
    </contour>
  </outline>
</glyph>
<glyph name="be.locl" format="2">
  <advance width="1145"/>
  <outline>
    <contour>
      <point x="181.2266666666667" y="521.4" type="qcurve" smooth="yes"/>
      <point x="182.2266666666667" y="323.37333333333333"/>
      <point x="394.8049653808" y="49.513333333333335"/>
      <point x="569.2666666666667" y="49.513333333333335" type="qcurve" smooth="yes"/>
      <point x="757.7122453016667" y="49.513333333333335"/>
      <point x="960.34" y="296.7666666666667"/>
      <point x="960.34" y="501.4" type="qcurve" smooth="yes"/>
      <point x="960.34" y="697.0333333333334"/>
      <point x="748.4" y="942.0733333333334"/>
      <point x="571.8133333333334" y="942.0733333333334" type="qcurve" smooth="yes"/>
      <point x="393.4666666666667" y="942.0733333333334"/>
      <point x="180.129193364" y="718.4810545096001"/>
    </contour>
    <contour>
      <point x="65.82666666666667" y="499.4" type="qcurve" smooth="yes"/>
      <point x="65.82666666666667" y="668.5184510313327"/>
      <point x="264.38" y="948.28"/>
      <point x="479.9" y="992.3133333333334" type="qcurve"/>
      <point x="479.9" y="996.3133333333334" type="line"/>
      <point x="316.26121657166664" y="1024.5931724710385"/>
      <point x="158.60666666666665" y="1135.2233768666974"/>
      <point x="158.60666666666665" y="1235.3333333333333" type="qcurve" smooth="yes"/>
      <point x="158.60666666666665" y="1331.8866666666668"/>
      <point x="304.74666666666667" y="1451.6666666666667"/>
      <point x="469.6533333333333" y="1451.6666666666667" type="qcurve" smooth="yes"/>
      <point x="673.0133333333333" y="1451.6666666666667" type="line" smooth="yes"/>
      <point x="809.0466666666666" y="1451.6666666666667"/>
      <point x="929.4029145425974" y="1473.0531064027105"/>
      <point x="941.02" y="1521.6666666666667" type="qcurve"/>
      <point x="993.2733333333334" y="1521.6666666666667" type="line"/>
      <point x="983.4101042705679" y="1428.3728041929176"/>
      <point x="848.2066666666666" y="1342.6"/>
      <point x="684.2333333333333" y="1342.6" type="qcurve" smooth="yes"/>
      <point x="465.28" y="1342.6" type="line" smooth="yes"/>
      <point x="329.9266666666667" y="1342.6"/>
      <point x="235.27333333333334" y="1288.0272727272825"/>
      <point x="235.27333333333334" y="1224.0" type="qcurve" smooth="yes"/>
      <point x="235.27333333333334" y="1138.9200099446734"/>
      <point x="430.6012791467226" y="1053.8023861365245"/>
      <point x="623.16" y="1021.16" type="qcurve" smooth="yes"/>
      <point x="855.9641711909127" y="981.3984067382386"/>
      <point x="1078.7133333333334" y="709.6686211668219"/>
      <point x="1078.7133333333334" y="505.4" type="qcurve" smooth="yes"/>
      <point x="1078.7133333333334" y="289.04"/>
      <point x="802.4810335917333" y="-21.7"/>
      <point x="576.12" y="-21.7" type="qcurve" smooth="yes"/>
      <point x="348.8057506361333" y="-21.7"/>
      <point x="65.82666666666667" y="266.1"/>
    </contour>
  </outline>
</glyph>
<glyph name="brevebelowcomb.case" format="2">
  <advance width="1024"/>
  <outline>
    <contour>
      <point x="753.9133333333334" y="-118.82" type="qcurve"/>
      <point x="810.44" y="-147.73333333333335" type="line"/>
      <point x="787.2533333333333" y="-233.46666666666667"/>
      <point x="628.5866666666666" y="-378.18"/>
      <point x="512.3933333333333" y="-378.18" type="qcurve" smooth="yes"/>
      <point x="400.68666666666667" y="-378.18"/>
      <point x="240.74666666666667" y="-245.34666666666666"/>
      <point x="213.34666666666666" y="-148.73333333333335" type="qcurve"/>
      <point x="274.1466666666667" y="-118.15333333333332" type="line"/>
      <point x="305.2733333333333" y="-176.06666666666666"/>
      <point x="423.2" y="-268.8"/>
      <point x="513.06" y="-268.8" type="qcurve" smooth="yes"/>
      <point x="605.86" y="-268.8"/>
      <point x="726.06" y="-177.06666666666666"/>
    </contour>
  </outline>
</glyph>
<glyph name="brevecomb.case" format="2">
  <advance width="1024"/>
  <outline>
    <contour>
      <point x="754.1866666666666" y="1891.0133333333333" type="qcurve"/>
      <point x="810.7133333333334" y="1862.1" type="line"/>
      <point x="787.5266666666666" y="1776.3666666666668"/>
      <point x="628.86" y="1631.6533333333332"/>
      <point x="512.6666666666666" y="1631.6533333333332" type="qcurve" smooth="yes"/>
      <point x="400.96" y="1631.6533333333332"/>
      <point x="241.02" y="1764.4866666666667"/>
      <point x="213.62" y="1861.1" type="qcurve"/>
      <point x="274.42" y="1891.68" type="line"/>
      <point x="305.5466666666667" y="1833.7666666666667"/>
      <point x="423.4733333333333" y="1741.0333333333333"/>
      <point x="513.3333333333334" y="1741.0333333333333" type="qcurve" smooth="yes"/>
      <point x="606.1333333333333" y="1741.0333333333333"/>
      <point x="726.3333333333334" y="1832.7666666666667"/>
    </contour>
  </outline>
</glyph>
<glyph name="brevecombstack.case" format="2">
  <advance width="1024"/>
  <outline>
    <contour>
      <point x="754.1866666666666" y="1890.4133333333332" type="qcurve"/>
      <point x="810.7133333333334" y="1861.5" type="line"/>
      <point x="787.5266666666666" y="1775.7666666666667"/>
      <point x="628.86" y="1631.6533333333332"/>
      <point x="512.6666666666666" y="1631.6533333333332" type="qcurve" smooth="yes"/>
      <point x="400.96" y="1631.6533333333332"/>
      <point x="241.02" y="1763.8866666666668"/>
      <point x="213.62" y="1860.5" type="qcurve"/>
      <point x="274.42" y="1891.08" type="line"/>
      <point x="305.5466666666667" y="1833.1666666666667"/>
      <point x="423.9533333333333" y="1741.3333333333333"/>
      <point x="513.5133333333333" y="1741.3333333333333" type="qcurve" smooth="yes"/>
      <point x="606.1933333333334" y="1741.3333333333333"/>
      <point x="726.3333333333334" y="1832.1666666666667"/>
    </contour>
  </outline>
</glyph>
<glyph name="cedillacomb.case" format="2">
  <advance width="1024"/>
  <outline>
    <contour>
      <point x="548.7" y="-0.48666666666666697" type="line"/>
      <point x="484.3933333333333" y="-126.46" type="line"/>
      <point x="499.6666666666667" y="-121.79333333333332"/>
      <point x="555.9733333333334" y="-113.46"/>
      <point x="583.7933333333334" y="-113.46" type="qcurve" smooth="yes"/>
      <point x="653.98" y="-113.46"/>
      <point x="756.9866666666667" y="-188.82666666666668"/>
      <point x="756.9866666666667" y="-272.5866666666667" type="qcurve" smooth="yes"/>
      <point x="756.9866666666667" y="-361.2266666666667"/>
      <point x="624.8266666666666" y="-458.26"/>
      <point x="530.1666666666666" y="-458.26" type="qcurve" smooth="yes"/>
      <point x="461.7066666666667" y="-458.26"/>
      <point x="335.8066666666667" y="-421.47333333333336"/>
      <point x="287.9533333333333" y="-380.5" type="qcurve"/>
      <point x="320.9866666666667" y="-311.7333333333333" type="line"/>
      <point x="354.8066666666667" y="-340.6733333333333"/>
      <point x="457.1533333333333" y="-379.4666666666667"/>
      <point x="516.7333333333333" y="-379.4666666666667" type="qcurve" smooth="yes"/>
      <point x="574.18" y="-379.4666666666667"/>
      <point x="649.0066666666667" y="-325.4066666666667"/>
      <point x="649.0066666666667" y="-278.25333333333333" type="qcurve" smooth="yes"/>
      <point x="649.0066666666667" y="-226.04"/>
      <point x="583.0333333333334" y="-183.82666666666668"/>
      <point x="532.0" y="-183.82666666666668" type="qcurve" smooth="yes"/>
      <point x="495.8466666666667" y="-183.82666666666668"/>
      <point x="441.1466666666667" y="-191.82666666666668"/>
      <point x="425.54" y="-197.1" type="qcurve"/>
      <point x="388.2333333333333" y="-151.34" type="line"/>
      <point x="486.6333333333333" y="37.66666666666667" type="line"/>
    </contour>
  </outline>
</glyph>
<glyph name="che.bgr" format="2">
  <advance width="1180"/>
  <outline>
    <contour>
      <point x="209.61333333333334" y="890.6666666666666" type="line"/>
      <point x="36.92" y="914.0" type="line"/>
      <point x="36.92" y="979.3333333333334" type="line"/>
      <point x="286.0333333333333" y="1000.0" type="line"/>
      <point x="307.04" y="996.0" type="line"/>
      <point x="318.9533333333333" y="966.6666666666666" type="line"/>
      <point x="317.8933333333333" y="708.54" type="line" smooth="yes"/>
      <point x="317.8333333333333" y="590.82"/>
      <point x="431.5933333333333" y="494.2"/>
      <point x="564.9266666666666" y="494.2" type="qcurve" smooth="yes"/>
      <point x="654.2266666666666" y="494.2"/>
      <point x="805.6866666666666" y="517.1466666666666"/>
      <point x="882.4333333333334" y="547.82" type="qcurve"/>
      <point x="882.4333333333334" y="478.1533333333333" type="line"/>
      <point x="806.1133333333333" y="450.6933333333333"/>
      <point x="656.5066666666667" y="420.8666666666667"/>
      <point x="549.5933333333334" y="420.8666666666667" type="qcurve" smooth="yes"/>
      <point x="377.56666666666666" y="420.8666666666667"/>
      <point x="211.76666666666665" y="559.0"/>
      <point x="210.82666666666665" y="708.66" type="qcurve" smooth="yes"/>
    </contour>
    <contour>
      <point x="937.1933333333334" y="966.0" type="line"/>
      <point x="935.0733333333334" y="500.2733333333333" type="line"/>
      <point x="937.0733333333334" y="83.0" type="line"/>
      <point x="1095.5266666666666" y="53.333333333333336" type="line"/>
      <point x="1095.5266666666666" y="0.0" type="line"/>
      <point x="652.8533333333334" y="0.0" type="line"/>
      <point x="652.8533333333334" y="53.333333333333336" type="line"/>
      <point x="827.9133333333334" y="83.0" type="line"/>
      <point x="829.7933333333334" y="500.0" type="line"/>
      <point x="827.9133333333334" y="890.6666666666666" type="line"/>
      <point x="665.2866666666666" y="914.0" type="line"/>
      <point x="665.2866666666666" y="979.3333333333334" type="line"/>
      <point x="906.94" y="1000.0" type="line"/>
      <point x="925.28" y="996.0" type="line"/>
    </contour>
  </outline>
</glyph>
<glyph name="circumflexcomb.case" format="2">
  <advance width="1024"/>
  <outline>
    <contour>
      <point x="512.0" y="1927.4533333333331" type="qcurve" smooth="yes"/>
      <point x="539.2133333333334" y="1927.4533333333331"/>
      <point x="575.7333333333333" y="1895.7266666666667"/>
      <point x="608.1866666666666" y="1854.7533333333333" type="qcurve" smooth="yes"/>
      <point x="796.9533333333334" y="1633.26" type="line"/>
      <point x="754.5866666666666" y="1587.62" type="line"/>
      <point x="512.0" y="1797.9266666666667" type="line"/>
      <point x="271.4133333333333" y="1589.5333333333333" type="line"/>
      <point x="227.04666666666665" y="1633.26" type="line"/>
      <point x="415.81333333333333" y="1854.7533333333333" type="line" smooth="yes"/>
      <point x="456.6333333333333" y="1902.9066666666668"/>
      <point x="484.7866666666667" y="1927.4533333333331"/>
    </contour>
  </outline>
</glyph>
<glyph name="commaaccentcomb.case" format="2">
  <advance width="1024"/>
  <outline>
    <contour>
      <point x="396.86" y="-531.16" type="line"/>
      <point x="439.2266666666667" y="-497.46"/>
      <point x="518.54" y="-400.1466666666667"/>
      <point x="533.7533333333333" y="-343.4133333333333" type="qcurve"/>
      <point x="475.2933333333333" y="-349.08"/>
      <point x="414.2866666666667" y="-292.4066666666667"/>
      <point x="414.2866666666667" y="-247.88666666666666" type="qcurve" smooth="yes"/>
      <point x="414.2866666666667" y="-204.42666666666665"/>
      <point x="472.96" y="-143.81333333333333"/>
      <point x="518.6933333333334" y="-143.81333333333333" type="qcurve" smooth="yes"/>
      <point x="561.88" y="-143.81333333333333"/>
      <point x="623.16" y="-201.48666666666665"/>
      <point x="623.16" y="-256.16" type="qcurve" smooth="yes"/>
      <point x="623.16" y="-347.4133333333333"/>
      <point x="501.48" y="-514.8266666666666"/>
      <point x="423.38" y="-564.62" type="qcurve"/>
    </contour>
  </outline>
</glyph>
<glyph name="dotbelowcomb.case" format="2">
  <advance width="1024"/>
  <outline>
    <contour>
      <point x="416.2066666666667" y="-257.4133333333333" type="qcurve" smooth="yes"/>
      <point x="416.2066666666667" y="-212.32"/>
      <point x="464.9066666666667" y="-163.28666666666666"/>
      <point x="511.3333333333333" y="-163.28666666666666" type="qcurve" smooth="yes"/>
      <point x="555.76" y="-163.28666666666666"/>
      <point x="607.7933333333334" y="-214.98666666666665"/>
      <point x="607.7933333333334" y="-257.4133333333333" type="qcurve" smooth="yes"/>
      <point x="607.7933333333334" y="-302.2333333333333"/>
      <point x="559.0933333333334" y="-351.3266666666667"/>
      <point x="511.3333333333333" y="-351.3266666666667" type="qcurve" smooth="yes"/>
      <point x="467.5733333333333" y="-351.3266666666667"/>
      <point x="416.2066666666667" y="-300.2933333333333"/>
    </contour>
  </outline>
</glyph>
<glyph name="en.bgr" format="2">
  <advance width="1264"/>
  <outline>
    <contour>
      <point x="297.96" y="548.6666666666666" type="line"/>
      <point x="630.52" y="545.6666666666666" type="line"/>
      <point x="965.6266666666667" y="548.6666666666666" type="line"/>
      <point x="965.6266666666667" y="473.6666666666667" type="line"/>
      <point x="630.52" y="475.6666666666667" type="line"/>
      <point x="297.96" y="473.6666666666667" type="line"/>
    </contour>
    <contour>
      <point x="352.54" y="966.6666666666666" type="line"/>
      <point x="350.6" y="500.0" type="line"/>
      <point x="352.48" y="83.0" type="line"/>
      <point x="505.0666666666666" y="53.333333333333336" type="line"/>
      <point x="505.0666666666666" y="0.0" type="line"/>
      <point x="84.86666666666667" y="0.0" type="line"/>
      <point x="84.86666666666667" y="53.333333333333336" type="line"/>
      <point x="243.32" y="83.0" type="line"/>
      <point x="245.32" y="500.0" type="line"/>
      <point x="243.26" y="890.6666666666666" type="line"/>
      <point x="71.23333333333333" y="914.0" type="line"/>
      <point x="71.23333333333333" y="979.3333333333334" type="line"/>
      <point x="319.62" y="1000.0" type="line"/>
      <point x="340.62666666666667" y="996.0" type="line"/>
    </contour>
    <contour>
      <point x="1020.3866666666668" y="966.0" type="line"/>
      <point x="1018.2666666666668" y="500.0" type="line"/>
      <point x="1020.2666666666668" y="83.0" type="line"/>
      <point x="1178.72" y="53.333333333333336" type="line"/>
      <point x="1178.72" y="0.0" type="line"/>
      <point x="758.58" y="0.0" type="line"/>
      <point x="758.58" y="53.333333333333336" type="line"/>
      <point x="911.1066666666667" y="83.0" type="line"/>
      <point x="912.9866666666667" y="500.0" type="line"/>
      <point x="911.1066666666667" y="890.6666666666666" type="line"/>
      <point x="747.7533333333333" y="914.0" type="line"/>
      <point x="747.7533333333333" y="979.3333333333334" type="line"/>
      <point x="990.1333333333333" y="1000.0" type="line"/>
      <point x="1008.4733333333332" y="996.0" type="line"/>
    </contour>
  </outline>
</glyph>
<glyph name="gravecomb.case" format="2">
  <advance width="1024"/>
  <outline>
    <contour>
      <point x="317.05333333333334" y="1846.4933333333333" type="qcurve" smooth="yes"/>
      <point x="317.2933333333333" y="1869.74"/>
      <point x="353.1466666666667" y="1900.8"/>
      <point x="377.0866666666667" y="1900.8" type="qcurve" smooth="yes"/>
      <point x="401.3" y="1900.8"/>
      <point x="449.4266666666667" y="1867.5266666666666"/>
      <point x="472.9733333333333" y="1842.5866666666668" type="qcurve" smooth="yes"/>
      <point x="676.4066666666666" y="1629.76" type="line"/>
      <point x="639.1866666666666" y="1586.6666666666667" type="line"/>
      <point x="370.12" y="1769.5533333333333" type="line" smooth="yes"/>
      <point x="345.24" y="1786.7666666666667"/>
      <point x="316.6933333333333" y="1820.64"/>
    </contour>
  </outline>
</glyph>
<glyph name="horncomb.case" format="2">
  <advance width="1024"/>
  <outline>
    <contour>
      <point x="319.5133333333333" y="1461.7066666666667" type="line"/>
      <point x="359.5133333333333" y="1455.1666666666667"/>
      <point x="410.76" y="1446.6266666666668"/>
      <point x="468.4" y="1446.6266666666668" type="qcurve" smooth="yes"/>
      <point x="530.68" y="1446.6266666666668"/>
      <point x="612.7" y="1498.14"/>
      <point x="612.7" y="1555.6266666666668" type="qcurve" smooth="yes"/>
      <point x="612.7" y="1588.96"/>
      <point x="602.0333333333334" y="1672.86"/>
      <point x="585.16" y="1726.22" type="qcurve"/>
      <point x="666.5" y="1726.22" type="line"/>
      <point x="683.68" y="1687.28"/>
      <point x="712.5066666666667" y="1582.4733333333334"/>
      <point x="712.5066666666667" y="1531.5866666666668" type="qcurve" smooth="yes"/>
      <point x="712.5066666666667" y="1441.0666666666668"/>
      <point x="591.7" y="1358.1333333333332"/>
      <point x="488.8466666666667" y="1358.1333333333332" type="qcurve" smooth="yes"/>
      <point x="450.54" y="1358.1333333333332"/>
      <point x="364.4733333333333" y="1371.7933333333333"/>
      <point x="319.5133333333333" y="1387.18" type="qcurve"/>
    </contour>
  </outline>
</glyph>
<glyph name="macroncombstack.case" format="2">
  <advance width="1024"/>
  <outline>
    <contour>
      <point x="243.26666666666665" y="1679.6333333333332" type="line"/>
      <point x="243.26666666666665" y="1784.0" type="line"/>
      <point x="780.7333333333333" y="1784.0" type="line"/>
      <point x="780.7333333333333" y="1679.6333333333332" type="line"/>
    </contour>
  </outline>
</glyph>
<glyph name="nine.lf" format="2">
  <advance width="1051"/>
  <outline>
    <contour>
      <point x="59.79333333333333" y="1020.6133333333333" type="qcurve" smooth="yes"/>
      <point x="62.46" y="1249.9933333333333"/>
      <point x="311.8866666666667" y="1519.7866666666666"/>
      <point x="496.8333333333333" y="1519.7866666666666" type="qcurve" smooth="yes"/>
      <point x="709.7866666666666" y="1519.7866666666666"/>
      <point x="978.66" y="1157.54"/>
      <point x="975.3266666666666" y="853.54" type="qcurve" smooth="yes"/>
      <point x="971.3266666666666" y="513.54"/>
      <point x="593.2" y="26.753333333333337"/>
      <point x="272.1933333333333" y="-69.91333333333334" type="qcurve"/>
      <point x="246.55333333333334" y="0.08000000000000007" type="line"/>
      <point x="517.28" y="87.74666666666667"/>
      <point x="855.68" y="507.0866666666667"/>
      <point x="859.0133333333333" y="859.0866666666666" type="qcurve" smooth="yes"/>
      <point x="861.68" y="1144.42"/>
      <point x="655.0466666666666" y="1446.12"/>
      <point x="497.78" y="1446.12" type="qcurve" smooth="yes"/>
      <point x="350.12666666666667" y="1446.12"/>
      <point x="174.6866666666667" y="1231.9933333333333"/>
      <point x="172.6866666666667" y="1036.0866666666668" type="qcurve" smooth="yes"/>
      <point x="170.6866666666667" y="850.7533333333333"/>
      <point x="349.91333333333336" y="662.5733333333334"/>
      <point x="493.8933333333334" y="662.5733333333334" type="qcurve" smooth="yes"/>
      <point x="547.8" y="662.5733333333334"/>
      <point x="655.2666666666667" y="695.5733333333334"/>
      <point x="686.3933333333333" y="713.9333333333334" type="qcurve"/>
      <point x="707.0666666666666" y="664.7533333333333" type="line"/>
      <point x="673.06" y="630.0866666666666"/>
      <point x="544.7133333333334" y="575.3866666666667"/>
      <point x="462.74666666666667" y="575.3866666666667" type="qcurve" smooth="yes"/>
      <point x="286.0133333333333" y="575.3866666666667"/>
      <point x="57.126666666666665" y="817.7533333333333"/>
    </contour>
  </outline>
</glyph>
<glyph name="ringcomb.case" format="2">
  <advance width="1024"/>
  <outline>
    <contour>
      <point x="312.3266666666667" y="1779.4733333333334" type="qcurve" smooth="yes"/>
      <point x="312.3266666666667" y="1860.84"/>
      <point x="426.6333333333333" y="1970.8133333333333"/>
      <point x="512.0" y="1970.8133333333333" type="qcurve" smooth="yes"/>
      <point x="597.3666666666667" y="1970.8133333333333"/>
      <point x="711.6733333333334" y="1860.84"/>
      <point x="711.6733333333334" y="1779.4733333333334" type="qcurve" smooth="yes"/>
      <point x="711.6733333333334" y="1698.0466666666669"/>
      <point x="597.3666666666667" y="1588.0733333333333"/>
      <point x="512.0" y="1588.0733333333333" type="qcurve" smooth="yes"/>
      <point x="426.6333333333333" y="1588.0733333333333"/>
      <point x="312.3266666666667" y="1698.0466666666669"/>
    </contour>
    <contour>
      <point x="395.3" y="1779.4733333333334" type="qcurve" smooth="yes"/>
      <point x="395.3" y="1726.9266666666667"/>
      <point x="458.4533333333333" y="1662.7733333333333"/>
      <point x="512.0" y="1662.7733333333333" type="qcurve" smooth="yes"/>
      <point x="568.5466666666666" y="1662.7733333333333"/>
      <point x="628.7" y="1722.26"/>
      <point x="628.7" y="1779.4733333333334" type="qcurve" smooth="yes"/>
      <point x="628.7" y="1831.96"/>
      <point x="565.5466666666666" y="1896.1133333333332"/>
      <point x="512.0" y="1896.1133333333332" type="qcurve" smooth="yes"/>
      <point x="455.4533333333333" y="1896.1133333333332"/>
      <point x="395.3" y="1836.6266666666668"/>
    </contour>
  </outline>
</glyph>
<glyph name="seven.lf" format="2">
  <advance width="925"/>
  <outline>
    <contour>
      <point x="47.8" y="1135.4333333333332" type="line"/>
      <point x="54.89333333333334" y="1500.0" type="line"/>
      <point x="907.96" y="1500.0" type="line"/>
      <point x="907.96" y="1419.6666666666667" type="line"/>
      <point x="585.4333333333334" y="637.6666666666666" type="line"/>
      <point x="330.21333333333337" y="-34.73333333333333" type="line"/>
      <point x="230.88666666666666" y="-34.73333333333333" type="line"/>
      <point x="230.88666666666666" y="17.6" type="line"/>
      <point x="507.61333333333334" y="667.3333333333334" type="line"/>
      <point x="800.02" y="1378.4533333333331" type="line"/>
      <point x="781.4066666666666" y="1396.3" type="line"/>
      <point x="151.21333333333334" y="1396.3" type="line"/>
      <point x="119.69333333333334" y="1135.4333333333332" type="line"/>
    </contour>
  </outline>
</glyph>
<glyph name="seven.tab" format="2">
  <advance width="992"/>
  <outline>
    <contour>
      <point x="80.6" y="1135.4333333333332" type="line"/>
      <point x="87.69333333333333" y="1500.0" type="line"/>
      <point x="929.8266666666666" y="1500.0" type="line"/>
      <point x="929.8266666666666" y="1419.6666666666667" type="line"/>
      <point x="612.06" y="637.6666666666666" type="line"/>
      <point x="334.42" y="-45.666666666666664" type="line"/>
      <point x="260.24" y="-45.666666666666664" type="line"/>
      <point x="260.24" y="6.666666666666668" type="line"/>
      <point x="534.24" y="667.3333333333334" type="line"/>
      <point x="817.7866666666666" y="1377.6333333333332" type="line"/>
      <point x="798.08" y="1396.3" type="line"/>
      <point x="184.01333333333335" y="1396.3" type="line"/>
      <point x="152.49333333333334" y="1135.4333333333332" type="line"/>
    </contour>
  </outline>
</glyph>
<glyph name="six.lc" format="2">
  <advance width="1094"/>
  <outline>
    <contour>
      <point x="93.62" y="500.0" type="qcurve" smooth="yes"/>
      <point x="93.62" y="783.2"/>
      <point x="516.6466666666666" y="1245.52"/>
      <point x="868.4466666666666" y="1357.52" type="qcurve"/>
      <point x="897.2666666666667" y="1292.46" type="line"/>
      <point x="587.7533333333333" y="1187.0333333333333"/>
      <point x="214.8466666666667" y="769.2666666666667"/>
      <point x="214.8466666666667" y="491.6666666666667" type="qcurve" smooth="yes"/>
      <point x="214.8466666666667" y="282.8666666666667"/>
      <point x="403.3" y="54.30666666666667"/>
      <point x="572.7466666666667" y="54.30666666666667" type="qcurve" smooth="yes"/>
      <point x="730.8933333333333" y="54.30666666666667"/>
      <point x="922.92" y="246.2"/>
      <point x="922.92" y="411.2666666666667" type="qcurve" smooth="yes"/>
      <point x="922.92" y="535.9733333333334"/>
      <point x="772.5066666666667" y="679.2"/>
      <point x="648.88" y="679.2" type="qcurve" smooth="yes"/>
      <point x="579.3266666666666" y="679.2"/>
      <point x="454.92" y="638.8666666666667"/>
      <point x="419.28" y="616.8666666666667" type="qcurve"/>
      <point x="395.7" y="667.2" type="line"/>
      <point x="433.7666666666667" y="704.8666666666667"/>
      <point x="582.6866666666666" y="763.5333333333334"/>
      <point x="664.7866666666666" y="763.5333333333334" type="qcurve" smooth="yes"/>
      <point x="832.06" y="763.5333333333334"/>
      <point x="1034.96" y="577.3533333333334"/>
      <point x="1034.96" y="413.2" type="qcurve" smooth="yes"/>
      <point x="1034.96" y="221.52666666666667"/>
      <point x="777.9533333333334" y="-21.666666666666668"/>
      <point x="569.08" y="-21.666666666666668" type="qcurve" smooth="yes"/>
      <point x="340.1133333333333" y="-21.666666666666668"/>
      <point x="93.62" y="259.2"/>
    </contour>
  </outline>
</glyph>
<glyph name="six.tab" format="2">
  <advance width="992"/>
  <outline>
    <contour>
      <point x="64.18" y="624.2133333333334" type="qcurve" smooth="yes"/>
      <point x="68.18" y="964.2133333333334"/>
      <point x="432.64" y="1464.3333333333333"/>
      <point x="741.62" y="1561.0" type="qcurve"/>
      <point x="764.0133333333333" y="1491.3666666666668" type="line"/>
      <point x="506.68" y="1403.7"/>
      <point x="181.09333333333333" y="970.6666666666666"/>
      <point x="177.76" y="618.6666666666666" type="qcurve" smooth="yes"/>
      <point x="175.09333333333333" y="333.3333333333333"/>
      <point x="375.49333333333334" y="46.333333333333336"/>
      <point x="530.5733333333334" y="46.333333333333336" type="qcurve" smooth="yes"/>
      <point x="665.3133333333334" y="46.333333333333336"/>
      <point x="833.9" y="264.6666666666667"/>
      <point x="836.5666666666666" y="455.0" type="qcurve" smooth="yes"/>
      <point x="839.2333333333333" y="647.0"/>
      <point x="668.0" y="828.5133333333333"/>
      <point x="539.3266666666666" y="828.5133333333333" type="qcurve" smooth="yes"/>
      <point x="476.4" y="828.5133333333333"/>
      <point x="371.94" y="794.9666666666666"/>
      <point x="341.6333333333333" y="776.3333333333334" type="qcurve"/>
      <point x="322.05333333333334" y="826.3333333333334" type="line"/>
      <point x="354.9666666666667" y="861.0"/>
      <point x="484.1333333333333" y="915.7"/>
      <point x="557.9" y="915.7" type="qcurve" smooth="yes"/>
      <point x="728.3466666666666" y="915.7"/>
      <point x="949.3066666666666" y="680.0"/>
      <point x="948.64" y="478.4" type="qcurve" smooth="yes"/>
      <point x="947.9733333333334" y="247.4"/>
      <point x="709.0466666666666" y="-27.333333333333332"/>
      <point x="526.9466666666666" y="-27.333333333333332" type="qcurve" smooth="yes"/>
      <point x="323.24" y="-27.333333333333332"/>
      <point x="60.846666666666664" y="320.2133333333333"/>
    </contour>
  </outline>
</glyph>
<glyph name="three.lf" format="2">
  <advance width="949"/>
  <outline>
    <contour>
      <point x="2.4266666666666667" y="158.57333333333335" type="qcurve"/>
      <point x="49.973333333333336" y="224.91333333333336" type="line"/>
      <point x="122.75333333333334" y="139.06"/>
      <point x="297.31333333333333" y="59.66666666666667"/>
      <point x="420.6" y="59.66666666666667" type="qcurve" smooth="yes"/>
      <point x="564.7066666666666" y="59.66666666666667"/>
      <point x="751.9066666666666" y="236.30666666666664"/>
      <point x="751.9066666666666" y="397.6666666666667" type="qcurve" smooth="yes"/>
      <point x="751.9066666666666" y="565.0"/>
      <point x="486.8466666666667" y="742.6666666666666"/>
      <point x="283.46" y="742.6666666666666" type="qcurve" smooth="yes"/>
      <point x="247.0" y="742.6666666666666" type="line"/>
      <point x="222.08666666666664" y="811.0" type="line"/>
      <point x="304.16" y="814.0" type="line" smooth="yes"/>
      <point x="490.6666666666667" y="820.0"/>
      <point x="721.66" y="1006.6666666666666"/>
      <point x="721.66" y="1168.3333333333333" type="qcurve" smooth="yes"/>
      <point x="721.66" y="1303.3333333333333"/>
      <point x="562.22" y="1434.8866666666668"/>
      <point x="441.6933333333333" y="1434.8866666666668" type="qcurve" smooth="yes"/>
      <point x="338.62" y="1434.8866666666668"/>
      <point x="182.51333333333335" y="1362.4866666666667"/>
      <point x="101.79333333333334" y="1279.84" type="qcurve"/>
      <point x="65.31333333333333" y="1343.9466666666667" type="line"/>
      <point x="135.42" y="1425.3133333333333"/>
      <point x="329.5266666666667" y="1520.0"/>
      <point x="455.5733333333333" y="1520.0" type="qcurve" smooth="yes"/>
      <point x="619.02" y="1520.0"/>
      <point x="833.3066666666666" y="1339.9333333333332"/>
      <point x="833.3066666666666" y="1184.0" type="qcurve" smooth="yes"/>
      <point x="833.3066666666666" y="1026.3333333333333"/>
      <point x="651.1333333333333" y="836.6666666666666"/>
      <point x="486.78" y="793.3333333333334" type="qcurve"/>
      <point x="486.78" y="787.6666666666666" type="line"/>
      <point x="652.4666666666666" y="762.6666666666666"/>
      <point x="866.8266666666666" y="552.9333333333334"/>
      <point x="866.8266666666666" y="385.2666666666667" type="qcurve" smooth="yes"/>
      <point x="866.8266666666666" y="196.93333333333334"/>
      <point x="610.8666666666667" y="-27.333333333333332"/>
      <point x="420.78" y="-27.333333333333332" type="qcurve" smooth="yes"/>
      <point x="282.7133333333333" y="-27.333333333333332"/>
      <point x="70.52666666666667" y="74.76"/>
    </contour>
  </outline>
</glyph>
<glyph name="tildecombstack.case" format="2">
  <advance width="1024"/>
  <outline>
    <contour>
      <point x="209.88" y="1711.9066666666668" type="line"/>
      <point x="237.91333333333333" y="1764.3066666666668"/>
      <point x="339.02" y="1852.8866666666668"/>
      <point x="398.62666666666667" y="1852.8866666666668" type="qcurve" smooth="yes"/>
      <point x="434.2066666666667" y="1852.8866666666668"/>
      <point x="495.76" y="1829.5466666666669"/>
      <point x="528.9733333333334" y="1808.5133333333333" type="qcurve" smooth="yes"/>
      <point x="551.6733333333334" y="1794.0866666666668"/>
      <point x="625.8066666666666" y="1751.2866666666666"/>
      <point x="662.1133333333333" y="1751.2866666666666" type="qcurve" smooth="yes"/>
      <point x="696.0266666666666" y="1751.2866666666666"/>
      <point x="761.64" y="1795.1466666666668"/>
      <point x="781.7933333333334" y="1825.8466666666668" type="qcurve"/>
      <point x="819.5866666666666" y="1778.3666666666668" type="line"/>
      <point x="788.22" y="1715.1466666666668"/>
      <point x="695.3533333333334" y="1646.8"/>
      <point x="647.9" y="1646.8" type="qcurve" smooth="yes"/>
      <point x="606.38" y="1646.8"/>
      <point x="524.6733333333334" y="1683.5066666666667"/>
      <point x="500.58" y="1700.54" type="qcurve" smooth="yes"/>
      <point x="472.46" y="1720.0866666666668"/>
      <point x="409.2666666666667" y="1749.0666666666668"/>
      <point x="384.1733333333333" y="1749.0666666666668" type="qcurve" smooth="yes"/>
      <point x="343.32" y="1749.0666666666668"/>
      <point x="268.7666666666667" y="1688.72"/>
      <point x="252.94666666666666" y="1665.6866666666667" type="qcurve"/>
    </contour>
  </outline>
</glyph>
<glyph name="ve.bgr" format="2">
  <advance width="990"/>
  <outline>
    <contour>
      <point x="115.36" y="369.93333333333334" type="qcurve" smooth="yes"/>
      <point x="115.36" y="1113.1" type="line" smooth="yes"/>
      <point x="115.36" y="1297.9207124681948"/>
      <point x="316.6133333333333" y="1521.0733333333333"/>
      <point x="506.7" y="1521.0733333333333" type="qcurve" smooth="yes"/>
      <point x="681.5466666666666" y="1521.0733333333333"/>
      <point x="884.64" y="1327.4866666666667"/>
      <point x="884.64" y="1151.0" type="qcurve" smooth="yes"/>
      <point x="884.64" y="1021.0733333333334"/>
      <point x="758.66" y="832.88"/>
      <point x="624.1666666666666" y="784.6666666666666" type="qcurve"/>
      <point x="624.1666666666666" y="780.6666666666666" type="line"/>
      <point x="771.0133333333333" y="753.5733333333334"/>
      <point x="936.64" y="561.5066666666667"/>
      <point x="936.64" y="403.6666666666667" type="qcurve" smooth="yes"/>
      <point x="936.64" y="190.73333333333335"/>
      <point x="703.0333333333334" y="-22.7"/>
      <point x="517.7" y="-22.7" type="qcurve" smooth="yes"/>
      <point x="321.64" y="-22.7"/>
      <point x="115.36" y="186.61333333333334"/>
    </contour>
    <contour>
      <point x="506.7" y="1444.4066666666668" type="qcurve" smooth="yes"/>
      <point x="368.8266666666667" y="1444.4066666666668"/>
      <point x="220.7" y="1287.2454652532367"/>
      <point x="220.7" y="1114.04" type="qcurve" smooth="yes"/>
      <point x="220.7" y="812.6666666666666" type="line"/>
      <point x="468.7" y="812.6666666666666" type="line" smooth="yes"/>
      <point x="610.5133333333333" y="812.6666666666666"/>
      <point x="774.6333333333333" y="989.6666666666666"/>
      <point x="774.6333333333333" y="1141.9" type="qcurve" smooth="yes"/>
      <point x="774.6333333333333" y="1294.6666666666667"/>
      <point x="641.4866666666667" y="1444.4066666666668"/>
    </contour>
    <contour>
      <point x="220.7" y="369.93333333333334" type="line" smooth="yes"/>
      <point x="220.7" y="203.9066666666667"/>
      <point x="371.00666666666666" y="48.63333333333333"/>
      <point x="517.7" y="48.63333333333333" type="qcurve" smooth="yes"/>
      <point x="670.6666666666666" y="48.63333333333333"/>
      <point x="824.6333333333333" y="218.15333333333334"/>
      <point x="824.6333333333333" y="402.6666666666667" type="qcurve" smooth="yes"/>
      <point x="824.6333333333333" y="569.3333333333334"/>
      <point x="646.06" y="740.0"/>
      <point x="477.7" y="740.0" type="qcurve" smooth="yes"/>
      <point x="220.7" y="740.0" type="line"/>
    </contour>
  </outline>
</glyph>
<glyph name="zero.tab" format="2">
  <advance width="992"/>
  <outline>
    <contour>
      <point x="56.3" y="748.0" type="qcurve" smooth="yes"/>
      <point x="56.3" y="1096.3333333333333"/>
      <point x="295.06666666666666" y="1520.0"/>
      <point x="496.8" y="1520.0" type="qcurve" smooth="yes"/>
      <point x="701.5333333333334" y="1520.0"/>
      <point x="935.3" y="1099.0"/>
      <point x="935.3" y="752.6666666666666" type="qcurve" smooth="yes"/>
      <point x="935.3" y="420.0"/>
      <point x="704.8666666666667" y="-26.666666666666664"/>
      <point x="499.4666666666667" y="-26.666666666666664" type="qcurve" smooth="yes"/>
      <point x="293.4" y="-26.666666666666664"/>
      <point x="56.3" y="396.3333333333333"/>
    </contour>
    <contour>
      <point x="170.33333333333334" y="768.0" type="qcurve" smooth="yes"/>
      <point x="170.66666666666669" y="439.0"/>
      <point x="347.3333333333333" y="48.57333333333334"/>
      <point x="495.8" y="48.57333333333334" type="qcurve" smooth="yes"/>
      <point x="648.9333333333334" y="48.57333333333334"/>
      <point x="819.6" y="417.6666666666667"/>
      <point x="821.2666666666667" y="752.0" type="qcurve" smooth="yes"/>
      <point x="823.2666666666667" y="1074.3333333333333"/>
      <point x="646.2666666666667" y="1434.24"/>
      <point x="497.4666666666667" y="1434.24" type="qcurve" smooth="yes"/>
      <point x="341.6666666666667" y="1434.24"/>
      <point x="169.33333333333334" y="1094.6666666666667"/>
    </contour>
  </outline>
</glyph>
<glyph name="zhe.bgr" format="2">
  <advance width="1586"/>
  <outline>
    <contour>
      <point x="581.32" y="0.0" type="line"/>
      <point x="581.32" y="53.333333333333336" type="line"/>
      <point x="737.3133333333334" y="83.0" type="line"/>
      <point x="739.3133333333334" y="527.0" type="line"/>
      <point x="737.3133333333334" y="1410.4266666666667" type="line"/>
      <point x="549.5866666666666" y="1434.6666666666667" type="line"/>
      <point x="549.5866666666666" y="1500.0" type="line"/>
      <point x="811.9266666666666" y="1520.6666666666667" type="line"/>
      <point x="827.9266666666666" y="1517.3333333333333" type="line"/>
      <point x="843.26" y="1492.6666666666667" type="line"/>
      <point x="843.32" y="522.4333333333334" type="line"/>
      <point x="849.2" y="83.0" type="line"/>
      <point x="1004.92" y="53.333333333333336" type="line"/>
      <point x="1004.92" y="0.0" type="line"/>
    </contour>
    <contour>
      <point x="791.2866666666666" y="399.52" type="line"/>
      <point x="791.2866666666666" y="482.2733333333333" type="line"/>
      <point x="1260.88" y="915.3333333333334" type="line"/>
      <point x="1118.34" y="940.0" type="line"/>
      <point x="1118.34" y="1000.0" type="line"/>
      <point x="1525.6133333333332" y="1000.0" type="line"/>
      <point x="1525.6133333333332" y="940.0" type="line"/>
      <point x="1369.9533333333331" y="913.0" type="line"/>
    </contour>
    <contour>
      <point x="992.0133333333333" y="603.98" type="line"/>
      <point x="1069.6533333333332" y="673.82" type="line"/>
      <point x="1452.4466666666667" y="83.0" type="line"/>
      <point x="1592.04" y="53.333333333333336" type="line"/>
      <point x="1592.04" y="0.0" type="line"/>
      <point x="1316.5333333333333" y="0.0" type="line"/>
      <point x="1305.8666666666668" y="49.0" type="line"/>
      <point x="1336.0733333333333" y="69.66666666666667" type="line"/>
    </contour>
    <contour>
      <point x="791.2866666666666" y="399.22" type="line"/>
      <point x="198.2266666666667" y="913.0" type="line"/>
      <point x="42.92666666666667" y="940.0" type="line"/>
      <point x="42.92666666666667" y="1000.0" type="line"/>
      <point x="463.29333333333335" y="1000.0" type="line"/>
      <point x="463.29333333333335" y="940.0" type="line"/>
      <point x="320.7533333333334" y="915.3333333333334" type="line"/>
      <point x="791.2866666666666" y="482.0" type="line"/>
    </contour>
    <contour>
      <point x="589.62" y="603.98" type="line"/>
      <point x="245.5" y="69.66666666666667" type="line"/>
      <point x="275.7066666666667" y="49.0" type="line"/>
      <point x="265.04" y="0.0" type="line"/>
      <point x="-6.4066666666666645" y="0.0" type="line"/>
      <point x="-6.4066666666666645" y="53.333333333333336" type="line"/>
      <point x="135.67333333333335" y="83.0" type="line"/>
      <point x="518.4666666666666" y="673.82" type="line"/>
    </contour>
  </outline>
</glyph>
